SplineFontDB: 3.0
FontName: ArchivoNarrowDeva-Regular
FullName: Archivo Narrow Devanagari Regular
FamilyName: Archivo Narrow Devanagari
Weight: Regular
Copyright: Copyright (c) 2012-2014, Omnibus-Type (www.omnibus-type.com omnibus.type@gmail.com) with Reserved Font Name 'Archivo'
Version: 001.004
ItalicAngle: 0
UnderlinePosition: -50
UnderlineWidth: 50
Ascent: 800
Descent: 200
sfntRevision: 0x00010106
LayerCount: 2
Layer: 0 1 "Back"  1
Layer: 1 1 "Fore"  0
XUID: [1021 191 1600663927 3639221]
FSType: 8
OS2Version: 3
OS2_WeightWidthSlopeOnly: 0
OS2_UseTypoMetrics: 1
CreationTime: 1409322513
ModificationTime: 1409350385
PfmFamily: 81
TTFWeight: 400
TTFWidth: 5
LineGap: 0
VLineGap: 0
Panose: 0 0 5 0 0 0 0 0 0 0
OS2TypoAscent: 890
OS2TypoAOffset: 0
OS2TypoDescent: -404
OS2TypoDOffset: 0
OS2TypoLinegap: 0
OS2WinAscent: 890
OS2WinAOffset: 0
OS2WinDescent: 404
OS2WinDOffset: 0
HheadAscent: 890
HheadAOffset: 0
HheadDescent: -404
HheadDOffset: 0
OS2SubXSize: 650
OS2SubYSize: 600
OS2SubXOff: 0
OS2SubYOff: 75
OS2SupXSize: 650
OS2SupYSize: 600
OS2SupXOff: 0
OS2SupYOff: 350
OS2StrikeYSize: 50
OS2StrikeYPos: 279
OS2Vendor: 'Omni'
OS2CodePages: 20000093.00000000
OS2UnicodeRanges: 00008007.00000000.00000000.00000000
Lookup: 1 0 0 "'aalt' Access All Alternates lookup 0"  {"'aalt' Access All Alternates lookup 0 subtable"  } ['aalt' ('DFLT' <'dflt' > 'dev2' <'HIN ' 'MAR ' 'NEP ' 'dflt' > 'grek' <'dflt' > 'latn' <'CAT ' 'MOL ' 'ROM ' 'dflt' > ) ]
Lookup: 3 0 0 "'aalt' Access All Alternates lookup 1"  {"'aalt' Access All Alternates lookup 1 subtable"  } ['aalt' ('DFLT' <'dflt' > 'dev2' <'HIN ' 'MAR ' 'NEP ' 'dflt' > 'grek' <'dflt' > 'latn' <'CAT ' 'MOL ' 'ROM ' 'dflt' > ) ]
Lookup: 4 0 0 "Ligature Substitution lookup 2"  {"Ligature Substitution lookup 2 subtable"  } []

StartChar: .notdef
Encoding: 65536 -1 0
Width: 442
Flags: W
HStem: 0 44<71 371> 575 44<71 371>
VStem: 0 44<84 535> 398 44<84 535>
LayerCount: 2
Fore
SplineSet
0 619 m 1,0,-1
 442 619 l 1,1,-1
 442 0 l 1,2,-1
 0 0 l 1,3,-1
 0 619 l 1,0,-1
371 575 m 1,4,-1
 71 575 l 1,5,-1
 221 349 l 1,6,-1
 371 575 l 1,4,-1
44 535 m 1,7,-1
 44 84 l 1,8,-1
 194 309 l 1,9,-1
 44 535 l 1,7,-1
398 535 m 1,10,-1
 248 309 l 1,11,-1
 398 84 l 1,12,-1
 398 535 l 1,10,-1
221 270 m 1,13,-1
 71 44 l 1,14,-1
 371 44 l 1,15,-1
 221 270 l 1,13,-1
EndSplineSet
EndChar

StartChar: A
Encoding: 65 65 1
Width: 473
GlyphClass: 2
Flags: W
HStem: 0 21G<-2 73 391.857 473> 140 62<129 336> 586 20G<184.63 287.337>
AnchorPoint: "Anchor-1" 0 0 basechar 0
AnchorPoint: "Anchor-0" 236 606 basechar 0
LayerCount: 2
Fore
SplineSet
398 0 m 1,0,-1
 355 140 l 1,1,-1
 109 140 l 1,2,-1
 67 0 l 1,3,-1
 -2 0 l 1,4,-1
 191 606 l 1,5,-1
 281 606 l 1,6,-1
 473 0 l 1,7,-1
 398 0 l 1,0,-1
234 554 m 1,8,-1
 231 554 l 1,9,10
 223 508 223 508 218 492 c 2,11,-1
 129 202 l 1,12,-1
 336 202 l 1,13,-1
 248 492 l 1,14,-1
 234 554 l 1,8,-1
EndSplineSet
Substitution2: "Single Substitution lookup 32 subtable" ordfeminine
Substitution2: "'aalt' Access All Alternates lookup 0 subtable" ordfeminine
Position2: "'cpsp' Capital Spacing lookup 0 subtable" dx=5 dy=0 dh=10 dv=0
EndChar

StartChar: Aacute
Encoding: 193 193 2
Width: 473
GlyphClass: 2
Flags: W
HStem: 0 21G<-2 73 391.857 473> 140 62<129 336> 586 20G<184.63 287.337>
LayerCount: 2
Fore
SplineSet
238 664 m 1,0,-1
 185 664 l 1,1,-1
 261 781 l 1,2,-1
 333 781 l 1,3,-1
 334 778 l 1,4,-1
 238 664 l 1,0,-1
398 0 m 1,5,-1
 355 140 l 1,6,-1
 109 140 l 1,7,-1
 67 0 l 1,8,-1
 -2 0 l 1,9,-1
 191 606 l 1,10,-1
 281 606 l 1,11,-1
 473 0 l 1,12,-1
 398 0 l 1,5,-1
234 554 m 1,13,-1
 231 554 l 1,14,15
 223 508 223 508 218 492 c 2,16,-1
 129 202 l 1,17,-1
 336 202 l 1,18,-1
 248 492 l 1,19,-1
 234 554 l 1,13,-1
EndSplineSet
Position2: "'cpsp' Capital Spacing lookup 0 subtable" dx=5 dy=0 dh=10 dv=0
EndChar

StartChar: Abreve
Encoding: 258 258 3
Width: 473
GlyphClass: 2
Flags: W
HStem: 0 21G<-2 73 391.857 473> 140 62<129 336> 586 20G<184.63 287.337> 698 53<187.821 284.964>
VStem: 130 53<758.858 781> 288 55<758.858 781>
LayerCount: 2
Fore
SplineSet
288 781 m 1,0,-1
 343 781 l 1,1,2
 343 749 343 749 313 723.5 c 128,-1,3
 283 698 283 698 236 698 c 0,4,5
 189 698 189 698 159.5 724 c 128,-1,6
 130 750 130 750 130 781 c 1,7,-1
 183 781 l 1,8,9
 186 770 186 770 200.5 760.5 c 128,-1,10
 215 751 215 751 235.5 751 c 0,11,12
 256 751 256 751 271.5 760.5 c 128,-1,13
 287 770 287 770 288 781 c 1,0,-1
398 0 m 1,14,-1
 355 140 l 1,15,-1
 109 140 l 1,16,-1
 67 0 l 1,17,-1
 -2 0 l 1,18,-1
 191 606 l 1,19,-1
 281 606 l 1,20,-1
 473 0 l 1,21,-1
 398 0 l 1,14,-1
234 554 m 1,22,-1
 231 554 l 1,23,24
 223 508 223 508 218 492 c 2,25,-1
 129 202 l 1,26,-1
 336 202 l 1,27,-1
 248 492 l 1,28,-1
 234 554 l 1,22,-1
EndSplineSet
Position2: "'cpsp' Capital Spacing lookup 0 subtable" dx=5 dy=0 dh=10 dv=0
EndChar

StartChar: Acircumflex
Encoding: 194 194 4
Width: 473
GlyphClass: 2
Flags: W
HStem: 0 21G<-2 73 391.857 473> 140 62<129 336> 586 20G<184.63 287.337>
LayerCount: 2
Fore
SplineSet
275 660 m 1,0,-1
 236 732 l 1,1,-1
 196 660 l 1,2,-1
 129 660 l 1,3,-1
 205 780 l 1,4,-1
 269 780 l 1,5,-1
 344 660 l 1,6,-1
 275 660 l 1,0,-1
398 0 m 1,7,-1
 355 140 l 1,8,-1
 109 140 l 1,9,-1
 67 0 l 1,10,-1
 -2 0 l 1,11,-1
 191 606 l 1,12,-1
 281 606 l 1,13,-1
 473 0 l 1,14,-1
 398 0 l 1,7,-1
234 554 m 1,15,-1
 231 554 l 1,16,17
 223 508 223 508 218 492 c 2,18,-1
 129 202 l 1,19,-1
 336 202 l 1,20,-1
 248 492 l 1,21,-1
 234 554 l 1,15,-1
EndSplineSet
Position2: "'cpsp' Capital Spacing lookup 0 subtable" dx=5 dy=0 dh=10 dv=0
EndChar

StartChar: Adieresis
Encoding: 196 196 5
Width: 473
GlyphClass: 2
Flags: W
HStem: 0 21G<-2 73 391.857 473> 140 62<129 336> 586 20G<184.63 287.337> 701 80<136 210 263 336>
VStem: 136 74<701 781> 263 73<701 781>
LayerCount: 2
Fore
SplineSet
136 701 m 1,0,-1
 136 781 l 1,1,-1
 210 781 l 1,2,-1
 210 701 l 1,3,-1
 136 701 l 1,0,-1
263 701 m 1,4,-1
 263 781 l 1,5,-1
 336 781 l 1,6,-1
 336 701 l 1,7,-1
 263 701 l 1,4,-1
398 0 m 1,8,-1
 355 140 l 1,9,-1
 109 140 l 1,10,-1
 67 0 l 1,11,-1
 -2 0 l 1,12,-1
 191 606 l 1,13,-1
 281 606 l 1,14,-1
 473 0 l 1,15,-1
 398 0 l 1,8,-1
234 554 m 1,16,-1
 231 554 l 1,17,18
 223 508 223 508 218 492 c 2,19,-1
 129 202 l 1,20,-1
 336 202 l 1,21,-1
 248 492 l 1,22,-1
 234 554 l 1,16,-1
EndSplineSet
Position2: "'cpsp' Capital Spacing lookup 0 subtable" dx=5 dy=0 dh=10 dv=0
EndChar

StartChar: Agrave
Encoding: 192 192 6
Width: 473
GlyphClass: 2
Flags: W
HStem: 0 21G<-2 73 391.857 473> 140 62<129 336> 586 20G<184.63 287.337>
LayerCount: 2
Fore
SplineSet
232 664 m 1,0,-1
 137 778 l 1,1,-1
 138 781 l 1,2,-1
 209 781 l 1,3,-1
 285 664 l 1,4,-1
 232 664 l 1,0,-1
398 0 m 1,5,-1
 355 140 l 1,6,-1
 109 140 l 1,7,-1
 67 0 l 1,8,-1
 -2 0 l 1,9,-1
 191 606 l 1,10,-1
 281 606 l 1,11,-1
 473 0 l 1,12,-1
 398 0 l 1,5,-1
234 554 m 1,13,-1
 231 554 l 1,14,15
 223 508 223 508 218 492 c 2,16,-1
 129 202 l 1,17,-1
 336 202 l 1,18,-1
 248 492 l 1,19,-1
 234 554 l 1,13,-1
EndSplineSet
Position2: "'cpsp' Capital Spacing lookup 0 subtable" dx=5 dy=0 dh=10 dv=0
EndChar

StartChar: Amacron
Encoding: 256 256 7
Width: 473
GlyphClass: 2
Flags: W
HStem: 0 21G<-2 73 391.857 473> 140 62<129 336> 586 20G<184.63 287.337> 671 60<126 347>
LayerCount: 2
Fore
SplineSet
126 671 m 1,0,-1
 126 731 l 1,1,-1
 347 731 l 1,2,-1
 347 671 l 1,3,-1
 126 671 l 1,0,-1
398 0 m 1,4,-1
 355 140 l 1,5,-1
 109 140 l 1,6,-1
 67 0 l 1,7,-1
 -2 0 l 1,8,-1
 191 606 l 1,9,-1
 281 606 l 1,10,-1
 473 0 l 1,11,-1
 398 0 l 1,4,-1
234 554 m 1,12,-1
 231 554 l 1,13,14
 223 508 223 508 218 492 c 2,15,-1
 129 202 l 1,16,-1
 336 202 l 1,17,-1
 248 492 l 1,18,-1
 234 554 l 1,12,-1
EndSplineSet
Position2: "'cpsp' Capital Spacing lookup 0 subtable" dx=5 dy=0 dh=10 dv=0
EndChar

StartChar: Aogonek
Encoding: 260 260 8
Width: 473
GlyphClass: 2
Flags: W
HStem: -159 57<459.512 523.202> -147 45<472.798 524> 0 21G<-2 73> 140 62<129 336> 586 20G<184.63 287.337>
VStem: 390 64<-97.7692 -15.2069>
LayerCount: 2
Fore
SplineSet
524 -102 m 1,0,-1
 524 -147 l 1,1,2
 495 -159 495 -159 467 -159 c 0,3,4
 439 -159 439 -159 414.5 -140 c 128,-1,5
 390 -121 390 -121 390 -80.5 c 0,6,7
 390 -40 390 -40 424 0 c 1,8,-1
 398 0 l 1,9,-1
 355 140 l 1,10,-1
 109 140 l 1,11,-1
 67 0 l 1,12,-1
 -2 0 l 1,13,-1
 191 606 l 1,14,-1
 281 606 l 1,15,-1
 473 0 l 1,16,17
 454 -33 454 -33 454 -53 c 0,18,19
 454 -102 454 -102 495 -102 c 2,20,-1
 524 -102 l 1,0,-1
336 202 m 1,21,-1
 248 492 l 1,22,-1
 234 554 l 1,23,-1
 231 554 l 1,24,25
 223 508 223 508 218 492 c 2,26,-1
 129 202 l 1,27,-1
 336 202 l 1,21,-1
EndSplineSet
Position2: "'cpsp' Capital Spacing lookup 0 subtable" dx=5 dy=0 dh=10 dv=0
EndChar

StartChar: Aring
Encoding: 197 197 9
Width: 473
GlyphClass: 2
Flags: W
HStem: 0 21G<-2 73 391.857 473> 140 62<129 336> 586 20G<184.63 287.337> 640 38<198.556 272.346> 771 39<198.338 271.838>
VStem: 150 39<687.507 761.809> 282 38<688.068 761.252>
LayerCount: 2
Fore
SplineSet
175 785 m 128,-1,1
 200 810 200 810 236 810 c 128,-1,2
 272 810 272 810 296 785 c 128,-1,3
 320 760 320 760 320 725 c 128,-1,4
 320 690 320 690 295.5 665 c 128,-1,5
 271 640 271 640 235.5 640 c 128,-1,6
 200 640 200 640 175 664.5 c 128,-1,7
 150 689 150 689 150 724.5 c 128,-1,0
 150 760 150 760 175 785 c 128,-1,1
268 757.5 m 128,-1,9
 254 771 254 771 235.5 771 c 128,-1,10
 217 771 217 771 203 757.5 c 128,-1,11
 189 744 189 744 189 725 c 128,-1,12
 189 706 189 706 203 692 c 128,-1,13
 217 678 217 678 235.5 678 c 128,-1,14
 254 678 254 678 268 692 c 128,-1,15
 282 706 282 706 282 725 c 128,-1,8
 282 744 282 744 268 757.5 c 128,-1,9
398 0 m 1,16,-1
 355 140 l 1,17,-1
 109 140 l 1,18,-1
 67 0 l 1,19,-1
 -2 0 l 1,20,-1
 191 606 l 1,21,-1
 281 606 l 1,22,-1
 473 0 l 1,23,-1
 398 0 l 1,16,-1
234 554 m 1,24,-1
 231 554 l 1,25,26
 223 508 223 508 218 492 c 2,27,-1
 129 202 l 1,28,-1
 336 202 l 1,29,-1
 248 492 l 1,30,-1
 234 554 l 1,24,-1
EndSplineSet
Position2: "'cpsp' Capital Spacing lookup 0 subtable" dx=5 dy=0 dh=10 dv=0
EndChar

StartChar: Aringacute
Encoding: 506 506 10
Width: 473
GlyphClass: 2
Flags: W
HStem: 0 21G<-2 73 391.857 473> 140 62<129 336> 690 36<200.466 272.057>
VStem: 151 39<609.011 680.302> 283 38<609.807 679.744>
LayerCount: 2
Fore
SplineSet
212 750 m 1,0,-1
 275 846 l 1,1,-1
 346 846 l 1,2,-1
 348 842 l 1,3,-1
 265 750 l 1,4,-1
 212 750 l 1,0,-1
176 702 m 128,-1,6
 201 726 201 726 236.5 726 c 128,-1,7
 272 726 272 726 296.5 702 c 128,-1,8
 321 678 321 678 321 641.5 c 128,-1,9
 321 605 321 605 289 579 c 1,10,-1
 473 0 l 1,11,-1
 398 0 l 1,12,-1
 355 140 l 1,13,-1
 109 140 l 1,14,-1
 67 0 l 1,15,-1
 -2 0 l 1,16,-1
 183 580 l 1,17,18
 151 605 151 605 151 641.5 c 128,-1,5
 151 678 151 678 176 702 c 128,-1,6
236 690 m 128,-1,20
 217 690 217 690 203.5 676.5 c 128,-1,21
 190 663 190 663 190 645 c 128,-1,22
 190 627 190 627 203.5 613.5 c 128,-1,23
 217 600 217 600 236 600 c 128,-1,24
 255 600 255 600 269 613.5 c 128,-1,25
 283 627 283 627 283 645 c 128,-1,26
 283 663 283 663 269 676.5 c 128,-1,19
 255 690 255 690 236 690 c 128,-1,20
234 554 m 1,27,-1
 231 554 l 1,28,29
 223 508 223 508 218 492 c 2,30,-1
 129 202 l 1,31,-1
 336 202 l 1,32,-1
 248 492 l 1,33,-1
 234 554 l 1,27,-1
EndSplineSet
Position2: "'cpsp' Capital Spacing lookup 0 subtable" dx=5 dy=0 dh=10 dv=0
EndChar

StartChar: Atilde
Encoding: 195 195 11
Width: 473
GlyphClass: 2
Flags: W
HStem: 0 21G<-2 73 391.857 473> 140 62<129 336> 586 20G<184.63 287.337> 694 62<212.058 309.211> 719 62<163.047 260.048>
VStem: 112 50<694 717.628> 310 49<756.598 781>
LayerCount: 2
Fore
SplineSet
310 781 m 1,0,-1
 359 781 l 1,1,2
 359 747 359 747 341 720.5 c 128,-1,3
 323 694 323 694 287 694 c 0,4,5
 268 694 268 694 237 706.5 c 128,-1,6
 206 719 206 719 191 719 c 0,7,8
 165 719 165 719 162 694 c 1,9,-1
 112 694 l 1,10,11
 112 726 112 726 130.5 753.5 c 128,-1,12
 149 781 149 781 183 781 c 0,13,14
 202 781 202 781 234 768.5 c 128,-1,15
 266 756 266 756 281 756 c 0,16,17
 306 756 306 756 310 781 c 1,0,-1
398 0 m 1,18,-1
 355 140 l 1,19,-1
 109 140 l 1,20,-1
 67 0 l 1,21,-1
 -2 0 l 1,22,-1
 191 606 l 1,23,-1
 281 606 l 1,24,-1
 473 0 l 1,25,-1
 398 0 l 1,18,-1
234 554 m 1,26,-1
 231 554 l 1,27,28
 223 508 223 508 218 492 c 2,29,-1
 129 202 l 1,30,-1
 336 202 l 1,31,-1
 248 492 l 1,32,-1
 234 554 l 1,26,-1
EndSplineSet
Position2: "'cpsp' Capital Spacing lookup 0 subtable" dx=5 dy=0 dh=10 dv=0
EndChar

StartChar: AE
Encoding: 198 198 12
Width: 725
GlyphClass: 2
Flags: W
HStem: 0 62<463 694> 140 62<149 359> 279 63<415 650> 545 61<274.874 291.292 355 689>
AnchorPoint: "Anchor-1" 0 0 basechar 0
AnchorPoint: "Anchor-0" 362 606 basechar 0
LayerCount: 2
Fore
SplineSet
355 545 m 1,0,-1
 401 342 l 1,1,-1
 650 342 l 1,2,-1
 650 279 l 1,3,-1
 415 279 l 1,4,-1
 463 62 l 1,5,-1
 694 62 l 1,6,-1
 694 0 l 1,7,-1
 402 0 l 1,8,-1
 371 140 l 1,9,-1
 125 140 l 1,10,-1
 71 0 l 1,11,-1
 1 0 l 1,12,-1
 254 606 l 1,13,-1
 689 606 l 1,14,-1
 689 545 l 1,15,-1
 355 545 l 1,0,-1
288 550 m 1,16,-1
 283 550 l 1,17,18
 273 514 273 514 262 489 c 1,19,-1
 149 202 l 1,20,-1
 359 202 l 1,21,-1
 297 489 l 2,22,23
 296 492 296 492 288 550 c 1,16,-1
EndSplineSet
Position2: "'cpsp' Capital Spacing lookup 0 subtable" dx=5 dy=0 dh=10 dv=0
EndChar

StartChar: AEacute
Encoding: 508 508 13
Width: 725
GlyphClass: 2
Flags: W
HStem: 0 62<463 694> 140 62<149 359> 279 63<415 650> 545 61<274.707 290.905 355 689>
LayerCount: 2
Fore
SplineSet
477 664 m 1,0,-1
 424 664 l 1,1,-1
 500 781 l 1,2,-1
 572 781 l 1,3,-1
 572 778 l 1,4,-1
 477 664 l 1,0,-1
355 545 m 1,5,-1
 401 342 l 1,6,-1
 650 342 l 1,7,-1
 650 279 l 1,8,-1
 415 279 l 1,9,-1
 463 62 l 1,10,-1
 694 62 l 1,11,-1
 694 0 l 1,12,-1
 402 0 l 1,13,-1
 371 140 l 1,14,-1
 125 140 l 1,15,-1
 71 0 l 1,16,-1
 1 0 l 1,17,-1
 254 606 l 1,18,-1
 689 606 l 1,19,-1
 689 545 l 1,20,-1
 355 545 l 1,5,-1
288 550 m 1,21,-1
 283 550 l 1,22,23
 272 512 272 512 263 492 c 1,24,-1
 149 202 l 1,25,-1
 359 202 l 1,26,-1
 296 491 l 2,27,28
 292 514 292 514 288 550 c 1,21,-1
EndSplineSet
Position2: "'cpsp' Capital Spacing lookup 0 subtable" dx=5 dy=0 dh=10 dv=0
EndChar

StartChar: B
Encoding: 66 66 14
Width: 473
GlyphClass: 2
Flags: W
HStem: 0 62<126 339.625> 279 63<126 322.394> 545 61<126 329.64>
VStem: 58 68<62 279 342 545> 362 72<381.174 512.819> 377 71<99.1375 233.326>
LayerCount: 2
Fore
SplineSet
58 606 m 1,0,-1
 279 606 l 2,1,2
 346 606 346 606 390 565.5 c 128,-1,3
 434 525 434 525 434 466.5 c 0,4,5
 434 408 434 408 408 370.5 c 128,-1,6
 382 333 382 333 341 318 c 1,7,-1
 341 315 l 1,8,9
 388 300 388 300 418 258.5 c 128,-1,10
 448 217 448 217 448 160 c 0,11,12
 448 86 448 86 399.5 43 c 128,-1,13
 351 0 351 0 279 0 c 2,14,-1
 58 0 l 1,15,-1
 58 606 l 1,0,-1
126 342 m 1,16,-1
 259 342 l 2,17,18
 304 342 304 342 333 371.5 c 128,-1,19
 362 401 362 401 362 447 c 0,20,21
 362 493 362 493 336 519 c 128,-1,22
 310 545 310 545 265 545 c 2,23,-1
 126 545 l 1,24,-1
 126 342 l 1,16,-1
126 62 m 1,25,-1
 272 62 l 2,26,27
 318 62 318 62 347.5 90.5 c 128,-1,28
 377 119 377 119 377 166.5 c 0,29,30
 377 214 377 214 345.5 246.5 c 128,-1,31
 314 279 314 279 266 279 c 2,32,-1
 126 279 l 1,33,-1
 126 62 l 1,25,-1
EndSplineSet
Position2: "'cpsp' Capital Spacing lookup 0 subtable" dx=5 dy=0 dh=10 dv=0
EndChar

StartChar: C
Encoding: 67 67 15
Width: 523
GlyphClass: 2
Flags: W
HStem: -11 64<189.042 356.253> 552 65<189.205 353.793>
VStem: 39 70<144.801 455.078> 418 67<119.691 215 389 483.351>
AnchorPoint: "Anchor-1" 262 0 basechar 0
AnchorPoint: "Anchor-0" 262 606 basechar 0
LayerCount: 2
Fore
SplineSet
277 617 m 0,0,1
 373 617 373 617 429 558.5 c 128,-1,2
 485 500 485 500 485 389 c 1,3,-1
 417 389 l 1,4,5
 417 469 417 469 379.5 510.5 c 128,-1,6
 342 552 342 552 277 552 c 0,7,8
 192 552 192 552 150.5 496.5 c 128,-1,9
 109 441 109 441 109 325 c 2,10,-1
 109 281 l 2,11,12
 109 53 109 53 276 53 c 0,13,14
 342 53 342 53 380 94 c 128,-1,15
 418 135 418 135 418 215 c 1,16,-1
 485 215 l 1,17,18
 485 103 485 103 429 46 c 128,-1,19
 373 -11 373 -11 277 -11 c 0,20,21
 39 -11 39 -11 39 303 c 128,-1,22
 39 617 39 617 277 617 c 0,0,1
EndSplineSet
Position2: "'cpsp' Capital Spacing lookup 0 subtable" dx=5 dy=0 dh=10 dv=0
EndChar

StartChar: Cacute
Encoding: 262 262 16
Width: 523
GlyphClass: 2
Flags: W
HStem: -11 64<189.042 356.253> 552 65<189.205 353.793>
VStem: 39 70<144.801 455.078> 418 67<119.691 215 389 483.351>
LayerCount: 2
Fore
SplineSet
279 664 m 1,0,-1
 226 664 l 1,1,-1
 302 781 l 1,2,-1
 373 781 l 1,3,-1
 374 778 l 1,4,-1
 279 664 l 1,0,-1
277 617 m 0,5,6
 373 617 373 617 429 558.5 c 128,-1,7
 485 500 485 500 485 389 c 1,8,-1
 417 389 l 1,9,10
 417 469 417 469 379.5 510.5 c 128,-1,11
 342 552 342 552 277 552 c 0,12,13
 192 552 192 552 150.5 496.5 c 128,-1,14
 109 441 109 441 109 325 c 2,15,-1
 109 281 l 2,16,17
 109 53 109 53 276 53 c 0,18,19
 342 53 342 53 380 94 c 128,-1,20
 418 135 418 135 418 215 c 1,21,-1
 485 215 l 1,22,23
 485 103 485 103 429 46 c 128,-1,24
 373 -11 373 -11 277 -11 c 0,25,26
 39 -11 39 -11 39 303 c 128,-1,27
 39 617 39 617 277 617 c 0,5,6
EndSplineSet
Position2: "'cpsp' Capital Spacing lookup 0 subtable" dx=5 dy=0 dh=10 dv=0
EndChar

StartChar: Ccaron
Encoding: 268 268 17
Width: 523
GlyphClass: 2
Flags: W
HStem: -11 64<189.042 356.253> 552 65<189.205 353.793>
VStem: 39 70<144.801 455.078> 418 67<119.691 215 389 483.351>
LayerCount: 2
Fore
SplineSet
151 781 m 1,0,-1
 219 781 l 1,1,-1
 260 708 l 1,2,-1
 298 781 l 1,3,-1
 367 781 l 1,4,-1
 289 661 l 1,5,-1
 226 661 l 1,6,-1
 151 781 l 1,0,-1
277 617 m 0,7,8
 373 617 373 617 429 558.5 c 128,-1,9
 485 500 485 500 485 389 c 1,10,-1
 417 389 l 1,11,12
 417 469 417 469 379.5 510.5 c 128,-1,13
 342 552 342 552 277 552 c 0,14,15
 192 552 192 552 150.5 496.5 c 128,-1,16
 109 441 109 441 109 325 c 2,17,-1
 109 281 l 2,18,19
 109 53 109 53 276 53 c 0,20,21
 342 53 342 53 380 94 c 128,-1,22
 418 135 418 135 418 215 c 1,23,-1
 485 215 l 1,24,25
 485 103 485 103 429 46 c 128,-1,26
 373 -11 373 -11 277 -11 c 0,27,28
 39 -11 39 -11 39 303 c 128,-1,29
 39 617 39 617 277 617 c 0,7,8
EndSplineSet
Position2: "'cpsp' Capital Spacing lookup 0 subtable" dx=5 dy=0 dh=10 dv=0
EndChar

StartChar: Ccedilla
Encoding: 199 199 18
Width: 523
GlyphClass: 2
Flags: W
HStem: -161 50<176.989 275.177> -154 43<176 248.826> -11.0911 64.0911<188.211 227 271 355.888> 552 65<189.205 353.793>
VStem: 39 70<146.463 455.078> 276 65<-109.873 -68.7826> 418 67<119.76 215 389 483.351>
LayerCount: 2
Fore
SplineSet
277 617 m 0,0,1
 373 617 373 617 429 558.5 c 128,-1,2
 485 500 485 500 485 389 c 1,3,-1
 417 389 l 1,4,5
 417 469 417 469 379.5 510.5 c 128,-1,6
 342 552 342 552 277 552 c 0,7,8
 192 552 192 552 150.5 496.5 c 128,-1,9
 109 441 109 441 109 325 c 2,10,-1
 109 281 l 2,11,12
 109 53 109 53 276 53 c 0,13,14
 342 53 342 53 380 94 c 128,-1,15
 418 135 418 135 418 215 c 1,16,-1
 485 215 l 1,17,18
 485 102.666790187 485 102.666790187 429.365421977 45.7878409779 c 128,-1,19
 373.730843955 -11.0911082309 373.730843955 -11.0911082309 278.601479151 -11.0911082309 c 0,20,21
 274.824491148 -11.0911082309 274.824491148 -11.0911082309 271 -11 c 1,22,-1
 268 -33 l 1,23,24
 341 -37 341 -37 341 -89 c 0,25,26
 341 -129 341 -129 313 -145 c 128,-1,27
 285 -161 285 -161 249 -161 c 0,28,29
 213 -161 213 -161 176 -154 c 1,30,-1
 176 -111 l 1,31,-1
 244 -111 l 2,32,33
 276 -111 276 -111 276 -89.5 c 0,34,35
 276 -68 276 -68 246 -68 c 2,36,-1
 216 -68 l 1,37,-1
 227 -7 l 1,38,39
 39 23 39 23 39 303 c 0,40,41
 39 617 39 617 277 617 c 0,0,1
EndSplineSet
Position2: "'cpsp' Capital Spacing lookup 0 subtable" dx=5 dy=0 dh=10 dv=0
EndChar

StartChar: Ccircumflex
Encoding: 264 264 19
Width: 523
GlyphClass: 2
Flags: W
HStem: -11 64<189.042 356.253> 552 65<189.205 353.793>
VStem: 39 70<144.801 455.078> 418 67<119.691 215 389 483.351>
LayerCount: 2
Fore
SplineSet
261 732 m 1,0,-1
 219 660 l 1,1,-1
 151 660 l 1,2,-1
 227 780 l 1,3,-1
 291 780 l 1,4,-1
 367 660 l 1,5,-1
 298 660 l 1,6,-1
 261 732 l 1,0,-1
277 617 m 0,7,8
 373 617 373 617 429 558.5 c 128,-1,9
 485 500 485 500 485 389 c 1,10,-1
 417 389 l 1,11,12
 417 469 417 469 379.5 510.5 c 128,-1,13
 342 552 342 552 277 552 c 0,14,15
 192 552 192 552 150.5 496.5 c 128,-1,16
 109 441 109 441 109 325 c 2,17,-1
 109 281 l 2,18,19
 109 53 109 53 276 53 c 0,20,21
 342 53 342 53 380 94 c 128,-1,22
 418 135 418 135 418 215 c 1,23,-1
 485 215 l 1,24,25
 485 103 485 103 429 46 c 128,-1,26
 373 -11 373 -11 277 -11 c 0,27,28
 39 -11 39 -11 39 303 c 128,-1,29
 39 617 39 617 277 617 c 0,7,8
EndSplineSet
Position2: "'cpsp' Capital Spacing lookup 0 subtable" dx=5 dy=0 dh=10 dv=0
EndChar

StartChar: Cdotaccent
Encoding: 266 266 20
Width: 523
GlyphClass: 2
Flags: W
HStem: -11 64<189.042 356.253> 552 65<189.205 353.793> 702 79<223 296>
VStem: 39 70<144.801 455.078> 223 73<702 781> 418 67<119.691 215 389 483.351>
LayerCount: 2
Fore
SplineSet
223 781 m 1,0,-1
 296 781 l 1,1,-1
 296 702 l 1,2,-1
 223 702 l 1,3,-1
 223 781 l 1,0,-1
277 617 m 0,4,5
 373 617 373 617 429 558.5 c 128,-1,6
 485 500 485 500 485 389 c 1,7,-1
 417 389 l 1,8,9
 417 469 417 469 379.5 510.5 c 128,-1,10
 342 552 342 552 277 552 c 0,11,12
 192 552 192 552 150.5 496.5 c 128,-1,13
 109 441 109 441 109 325 c 2,14,-1
 109 281 l 2,15,16
 109 53 109 53 276 53 c 0,17,18
 342 53 342 53 380 94 c 128,-1,19
 418 135 418 135 418 215 c 1,20,-1
 485 215 l 1,21,22
 485 103 485 103 429 46 c 128,-1,23
 373 -11 373 -11 277 -11 c 0,24,25
 39 -11 39 -11 39 303 c 128,-1,26
 39 617 39 617 277 617 c 0,4,5
EndSplineSet
Position2: "'cpsp' Capital Spacing lookup 0 subtable" dx=5 dy=0 dh=10 dv=0
EndChar

StartChar: D
Encoding: 68 68 21
Width: 523
GlyphClass: 2
Flags: W
HStem: 0 62<132 323.307> 545 61<132 323.307>
VStem: 65 67<62 545> 405 72<161.18 453.683>
AnchorPoint: "Anchor-1" 0 0 basechar 0
AnchorPoint: "Anchor-0" 262 606 basechar 0
LayerCount: 2
Fore
SplineSet
65 606 m 1,0,-1
 250 606 l 2,1,2
 358 606 358 606 417.5 531 c 128,-1,3
 477 456 477 456 477 307.5 c 0,4,5
 477 159 477 159 417.5 79.5 c 128,-1,6
 358 0 358 0 250 0 c 2,7,-1
 65 0 l 1,8,-1
 65 606 l 1,0,-1
132 62 m 1,9,-1
 244 62 l 2,10,11
 320 62 320 62 362.5 119.5 c 128,-1,12
 405 177 405 177 405 290 c 2,13,-1
 405 334 l 2,14,15
 405 438 405 438 362.5 491.5 c 128,-1,16
 320 545 320 545 244 545 c 2,17,-1
 132 545 l 1,18,-1
 132 62 l 1,9,-1
EndSplineSet
Position2: "'cpsp' Capital Spacing lookup 0 subtable" dx=5 dy=0 dh=10 dv=0
EndChar

StartChar: Eth
Encoding: 208 208 22
Width: 523
GlyphClass: 2
Flags: W
HStem: 0 62<132 323.307> 289 50<3 65 132 278> 545 61<132 323.307>
VStem: 65 67<62 289 339 545> 405 72<161.18 453.683>
LayerCount: 2
Fore
SplineSet
65 606 m 1,0,-1
 250 606 l 2,1,2
 358 606 358 606 417.5 531 c 128,-1,3
 477 456 477 456 477 307.5 c 0,4,5
 477 159 477 159 417.5 79.5 c 128,-1,6
 358 0 358 0 250 0 c 2,7,-1
 65 0 l 1,8,-1
 65 289 l 1,9,-1
 3 289 l 1,10,-1
 3 339 l 1,11,-1
 65 339 l 1,12,-1
 65 606 l 1,0,-1
278 339 m 1,13,-1
 278 289 l 1,14,-1
 132 289 l 1,15,-1
 132 62 l 1,16,-1
 244 62 l 2,17,18
 320 62 320 62 362.5 119.5 c 128,-1,19
 405 177 405 177 405 290 c 2,20,-1
 405 334 l 2,21,22
 405 438 405 438 362.5 491.5 c 128,-1,23
 320 545 320 545 244 545 c 2,24,-1
 132 545 l 1,25,-1
 132 339 l 1,26,-1
 278 339 l 1,13,-1
EndSplineSet
Position2: "'cpsp' Capital Spacing lookup 0 subtable" dx=5 dy=0 dh=10 dv=0
EndChar

StartChar: Dcaron
Encoding: 270 270 23
Width: 523
GlyphClass: 2
Flags: W
HStem: 0 62<132 323.307> 545 61<132 323.307>
VStem: 65 67<62 545> 405 72<161.18 453.683>
LayerCount: 2
Fore
SplineSet
165 781 m 1,0,-1
 233 781 l 1,1,-1
 273 708 l 1,2,-1
 313 781 l 1,3,-1
 381 781 l 1,4,-1
 303 661 l 1,5,-1
 240 661 l 1,6,-1
 165 781 l 1,0,-1
65 606 m 1,7,-1
 250 606 l 2,8,9
 358 606 358 606 417.5 531 c 128,-1,10
 477 456 477 456 477 307.5 c 0,11,12
 477 159 477 159 417.5 79.5 c 128,-1,13
 358 0 358 0 250 0 c 2,14,-1
 65 0 l 1,15,-1
 65 606 l 1,7,-1
132 62 m 1,16,-1
 244 62 l 2,17,18
 320 62 320 62 362.5 119.5 c 128,-1,19
 405 177 405 177 405 290 c 2,20,-1
 405 334 l 2,21,22
 405 438 405 438 362.5 491.5 c 128,-1,23
 320 545 320 545 244 545 c 2,24,-1
 132 545 l 1,25,-1
 132 62 l 1,16,-1
EndSplineSet
Position2: "'cpsp' Capital Spacing lookup 0 subtable" dx=5 dy=0 dh=10 dv=0
EndChar

StartChar: Dcroat
Encoding: 272 272 24
Width: 523
GlyphClass: 2
Flags: W
HStem: 0 62<132 323.307> 289 50<3 65 132 278> 545 61<132 323.307>
VStem: 65 67<62 289 339 545> 405 72<161.18 453.683>
LayerCount: 2
Fore
SplineSet
65 606 m 1,0,-1
 250 606 l 2,1,2
 358 606 358 606 417.5 531 c 128,-1,3
 477 456 477 456 477 307.5 c 0,4,5
 477 159 477 159 417.5 79.5 c 128,-1,6
 358 0 358 0 250 0 c 2,7,-1
 65 0 l 1,8,-1
 65 289 l 1,9,-1
 3 289 l 1,10,-1
 3 339 l 1,11,-1
 65 339 l 1,12,-1
 65 606 l 1,0,-1
278 339 m 1,13,-1
 278 289 l 1,14,-1
 132 289 l 1,15,-1
 132 62 l 1,16,-1
 244 62 l 2,17,18
 320 62 320 62 362.5 119.5 c 128,-1,19
 405 177 405 177 405 290 c 2,20,-1
 405 334 l 2,21,22
 405 438 405 438 362.5 491.5 c 128,-1,23
 320 545 320 545 244 545 c 2,24,-1
 132 545 l 1,25,-1
 132 339 l 1,26,-1
 278 339 l 1,13,-1
EndSplineSet
Position2: "'cpsp' Capital Spacing lookup 0 subtable" dx=5 dy=0 dh=10 dv=0
EndChar

StartChar: E
Encoding: 69 69 25
Width: 484
GlyphClass: 2
Flags: W
HStem: 0 62<133 440> 279 63<133 396> 545 61<133 435>
VStem: 65 68<62 279 342 545>
AnchorPoint: "Anchor-1" 242 0 basechar 0
AnchorPoint: "Anchor-0" 242 606 basechar 0
LayerCount: 2
Fore
SplineSet
435 606 m 1,0,-1
 435 545 l 1,1,-1
 133 545 l 1,2,-1
 133 342 l 1,3,-1
 396 342 l 1,4,-1
 396 279 l 1,5,-1
 133 279 l 1,6,-1
 133 62 l 1,7,-1
 440 62 l 1,8,-1
 440 0 l 1,9,-1
 65 0 l 1,10,-1
 65 606 l 1,11,-1
 435 606 l 1,0,-1
EndSplineSet
Position2: "'cpsp' Capital Spacing lookup 0 subtable" dx=5 dy=0 dh=10 dv=0
EndChar

StartChar: Eacute
Encoding: 201 201 26
Width: 484
GlyphClass: 2
Flags: W
HStem: 0 62<133 440> 279 63<133 396> 545 61<133 435>
VStem: 65 68<62 279 342 545>
LayerCount: 2
Fore
SplineSet
244 664 m 1,0,-1
 191 664 l 1,1,-1
 267 781 l 1,2,-1
 339 781 l 1,3,-1
 340 778 l 1,4,-1
 244 664 l 1,0,-1
133 545 m 1,5,-1
 133 342 l 1,6,-1
 396 342 l 1,7,-1
 396 279 l 1,8,-1
 133 279 l 1,9,-1
 133 62 l 1,10,-1
 440 62 l 1,11,-1
 440 0 l 1,12,-1
 65 0 l 1,13,-1
 65 606 l 1,14,-1
 435 606 l 1,15,-1
 435 545 l 1,16,-1
 133 545 l 1,5,-1
EndSplineSet
Position2: "'cpsp' Capital Spacing lookup 0 subtable" dx=5 dy=0 dh=10 dv=0
EndChar

StartChar: Ebreve
Encoding: 276 276 27
Width: 484
GlyphClass: 2
Flags: W
HStem: 0 62<133 440> 279 63<133 396> 545 61<133 435> 698 53<193.821 290.964>
VStem: 65 68<62 279 342 545> 136 53<758.858 781> 294 55<758.858 781>
LayerCount: 2
Fore
SplineSet
294 781 m 1,0,-1
 349 781 l 1,1,2
 349 749 349 749 319 723.5 c 128,-1,3
 289 698 289 698 242 698 c 0,4,5
 195 698 195 698 165.5 724 c 128,-1,6
 136 750 136 750 136 781 c 1,7,-1
 189 781 l 1,8,9
 192 770 192 770 206.5 760.5 c 128,-1,10
 221 751 221 751 241.5 751 c 0,11,12
 262 751 262 751 277.5 760.5 c 128,-1,13
 293 770 293 770 294 781 c 1,0,-1
435 606 m 1,14,-1
 435 545 l 1,15,-1
 133 545 l 1,16,-1
 133 342 l 1,17,-1
 396 342 l 1,18,-1
 396 279 l 1,19,-1
 133 279 l 1,20,-1
 133 62 l 1,21,-1
 440 62 l 1,22,-1
 440 0 l 1,23,-1
 65 0 l 1,24,-1
 65 606 l 1,25,-1
 435 606 l 1,14,-1
EndSplineSet
Position2: "'cpsp' Capital Spacing lookup 0 subtable" dx=5 dy=0 dh=10 dv=0
EndChar

StartChar: Ecaron
Encoding: 282 282 28
Width: 484
GlyphClass: 2
Flags: W
HStem: 0 62<133 440> 279 63<133 396> 545 61<133 435>
VStem: 65 68<62 279 342 545>
LayerCount: 2
Fore
SplineSet
135 781 m 1,0,-1
 202 781 l 1,1,-1
 241 708 l 1,2,-1
 281 781 l 1,3,-1
 350 781 l 1,4,-1
 273 661 l 1,5,-1
 210 661 l 1,6,-1
 135 781 l 1,0,-1
435 606 m 1,7,-1
 435 545 l 1,8,-1
 133 545 l 1,9,-1
 133 342 l 1,10,-1
 396 342 l 1,11,-1
 396 279 l 1,12,-1
 133 279 l 1,13,-1
 133 62 l 1,14,-1
 440 62 l 1,15,-1
 440 0 l 1,16,-1
 65 0 l 1,17,-1
 65 606 l 1,18,-1
 435 606 l 1,7,-1
EndSplineSet
Position2: "'cpsp' Capital Spacing lookup 0 subtable" dx=5 dy=0 dh=10 dv=0
EndChar

StartChar: Ecircumflex
Encoding: 202 202 29
Width: 484
GlyphClass: 2
Flags: W
HStem: 0 62<133 440> 279 63<133 396> 545 61<133 435>
VStem: 65 68<62 279 342 545>
LayerCount: 2
Fore
SplineSet
242 732 m 1,0,-1
 202 660 l 1,1,-1
 135 660 l 1,2,-1
 211 780 l 1,3,-1
 275 780 l 1,4,-1
 350 660 l 1,5,-1
 281 660 l 1,6,-1
 242 732 l 1,0,-1
435 606 m 1,7,-1
 435 545 l 1,8,-1
 133 545 l 1,9,-1
 133 342 l 1,10,-1
 396 342 l 1,11,-1
 396 279 l 1,12,-1
 133 279 l 1,13,-1
 133 62 l 1,14,-1
 440 62 l 1,15,-1
 440 0 l 1,16,-1
 65 0 l 1,17,-1
 65 606 l 1,18,-1
 435 606 l 1,7,-1
EndSplineSet
Position2: "'cpsp' Capital Spacing lookup 0 subtable" dx=5 dy=0 dh=10 dv=0
EndChar

StartChar: Edieresis
Encoding: 203 203 30
Width: 484
GlyphClass: 2
Flags: W
HStem: 0 62<133 440> 279 63<133 396> 545 61<133 435> 701 80<142 215 269 343>
VStem: 65 68<62 279 342 545> 142 73<701 781> 269 74<701 781>
LayerCount: 2
Fore
SplineSet
142 701 m 1,0,-1
 142 781 l 1,1,-1
 215 781 l 1,2,-1
 215 701 l 1,3,-1
 142 701 l 1,0,-1
269 701 m 1,4,-1
 269 781 l 1,5,-1
 343 781 l 1,6,-1
 343 701 l 1,7,-1
 269 701 l 1,4,-1
133 545 m 1,8,-1
 133 342 l 1,9,-1
 396 342 l 1,10,-1
 396 279 l 1,11,-1
 133 279 l 1,12,-1
 133 62 l 1,13,-1
 440 62 l 1,14,-1
 440 0 l 1,15,-1
 65 0 l 1,16,-1
 65 606 l 1,17,-1
 435 606 l 1,18,-1
 435 545 l 1,19,-1
 133 545 l 1,8,-1
EndSplineSet
Position2: "'cpsp' Capital Spacing lookup 0 subtable" dx=5 dy=0 dh=10 dv=0
EndChar

StartChar: Edotaccent
Encoding: 278 278 31
Width: 484
GlyphClass: 2
Flags: W
HStem: 0 62<133 440> 279 63<133 396> 545 61<133 435> 702 79<206 278>
VStem: 65 68<62 279 342 545> 206 72<702 781>
LayerCount: 2
Fore
SplineSet
206 781 m 1,0,-1
 278 781 l 1,1,-1
 278 702 l 1,2,-1
 206 702 l 1,3,-1
 206 781 l 1,0,-1
435 606 m 1,4,-1
 435 545 l 1,5,-1
 133 545 l 1,6,-1
 133 342 l 1,7,-1
 396 342 l 1,8,-1
 396 279 l 1,9,-1
 133 279 l 1,10,-1
 133 62 l 1,11,-1
 440 62 l 1,12,-1
 440 0 l 1,13,-1
 65 0 l 1,14,-1
 65 606 l 1,15,-1
 435 606 l 1,4,-1
EndSplineSet
Position2: "'cpsp' Capital Spacing lookup 0 subtable" dx=5 dy=0 dh=10 dv=0
EndChar

StartChar: Egrave
Encoding: 200 200 32
Width: 484
GlyphClass: 2
Flags: W
HStem: 0 62<133 440> 279 63<133 396> 545 61<133 435>
VStem: 65 68<62 279 342 545>
LayerCount: 2
Fore
SplineSet
239 664 m 1,0,-1
 144 778 l 1,1,-1
 145 781 l 1,2,-1
 216 781 l 1,3,-1
 292 664 l 1,4,-1
 239 664 l 1,0,-1
133 545 m 1,5,-1
 133 342 l 1,6,-1
 396 342 l 1,7,-1
 396 279 l 1,8,-1
 133 279 l 1,9,-1
 133 62 l 1,10,-1
 440 62 l 1,11,-1
 440 0 l 1,12,-1
 65 0 l 1,13,-1
 65 606 l 1,14,-1
 435 606 l 1,15,-1
 435 545 l 1,16,-1
 133 545 l 1,5,-1
EndSplineSet
Position2: "'cpsp' Capital Spacing lookup 0 subtable" dx=5 dy=0 dh=10 dv=0
EndChar

StartChar: Emacron
Encoding: 274 274 33
Width: 484
GlyphClass: 2
Flags: W
HStem: 0 62<133 440> 279 63<133 396> 545 61<133 435> 671 60<132 353>
VStem: 65 68<62 279 342 545>
LayerCount: 2
Fore
SplineSet
132 731 m 1,0,-1
 353 731 l 1,1,-1
 353 671 l 1,2,-1
 132 671 l 1,3,-1
 132 731 l 1,0,-1
435 606 m 1,4,-1
 435 545 l 1,5,-1
 133 545 l 1,6,-1
 133 342 l 1,7,-1
 396 342 l 1,8,-1
 396 279 l 1,9,-1
 133 279 l 1,10,-1
 133 62 l 1,11,-1
 440 62 l 1,12,-1
 440 0 l 1,13,-1
 65 0 l 1,14,-1
 65 606 l 1,15,-1
 435 606 l 1,4,-1
EndSplineSet
Position2: "'cpsp' Capital Spacing lookup 0 subtable" dx=5 dy=0 dh=10 dv=0
EndChar

StartChar: Eogonek
Encoding: 280 280 34
Width: 484
GlyphClass: 2
Flags: W
HStem: -159 57<426.642 491.111> -147 45<439.797 492> 0 62<133 388> 279 63<133 396> 545 61<133 435>
VStem: 65 68<62 279 342 545> 357 64<-97.7692 -11.1071>
LayerCount: 2
Fore
SplineSet
133 342 m 1,0,-1
 396 342 l 1,1,-1
 396 279 l 1,2,-1
 133 279 l 1,3,-1
 133 62 l 1,4,-1
 440 62 l 1,5,-1
 440 0 l 1,6,7
 421 -25 421 -25 421 -53 c 0,8,9
 421 -102 421 -102 462 -102 c 2,10,-1
 492 -102 l 1,11,-1
 492 -147 l 1,12,13
 459 -159 459 -159 432.5 -159 c 0,14,15
 406 -159 406 -159 381.5 -140 c 128,-1,16
 357 -121 357 -121 357 -77 c 0,17,18
 357 -33 357 -33 388 0 c 1,19,-1
 65 0 l 1,20,-1
 65 606 l 1,21,-1
 435 606 l 1,22,-1
 435 545 l 1,23,-1
 133 545 l 1,24,-1
 133 342 l 1,0,-1
EndSplineSet
Position2: "'cpsp' Capital Spacing lookup 0 subtable" dx=5 dy=0 dh=10 dv=0
EndChar

StartChar: F
Encoding: 70 70 35
Width: 443
GlyphClass: 2
Flags: W
HStem: 0 21G<65 133> 274 61<133 382> 545 61<133 413>
VStem: 65 68<0 274 335 545>
LayerCount: 2
Fore
SplineSet
413 606 m 1,0,-1
 413 545 l 1,1,-1
 133 545 l 1,2,-1
 133 335 l 1,3,-1
 382 335 l 1,4,-1
 382 274 l 1,5,-1
 133 274 l 1,6,-1
 133 0 l 1,7,-1
 65 0 l 1,8,-1
 65 606 l 1,9,-1
 413 606 l 1,0,-1
EndSplineSet
Position2: "'cpsp' Capital Spacing lookup 0 subtable" dx=5 dy=0 dh=10 dv=0
EndChar

StartChar: G
Encoding: 71 71 36
Width: 564
GlyphClass: 2
Flags: W
HStem: -11 64<199.533 372.522> 0 21G<453.224 504> 253 59<271 434> 552 65<203.438 374.78>
VStem: 47 72<151.358 447.944> 434 70<118.97 253 402 492.07> 458 46<0 29.3125>
AnchorPoint: "Anchor-1" 282 0 basechar 0
AnchorPoint: "Anchor-0" 282 606 basechar 0
LayerCount: 2
Fore
SplineSet
271 312 m 1,0,-1
 504 312 l 1,1,-1
 504 0 l 1,2,-1
 458 0 l 1,3,-1
 442 67 l 1,4,5
 390 -11 390 -11 280 -11 c 0,6,7
 170 -11 170 -11 108.5 68.5 c 128,-1,8
 47 148 47 148 47 303 c 128,-1,9
 47 458 47 458 110 537.5 c 128,-1,10
 173 617 173 617 279.5 617 c 0,11,12
 386 617 386 617 445 562.5 c 128,-1,13
 504 508 504 508 504 402 c 1,14,-1
 434 402 l 1,15,16
 434 478 434 478 395 515 c 128,-1,17
 356 552 356 552 282.5 552 c 0,18,19
 209 552 209 552 164 495 c 128,-1,20
 119 438 119 438 119 325 c 2,21,-1
 119 281 l 2,22,23
 119 53 119 53 281 53 c 0,24,25
 363 53 363 53 398.5 96.5 c 128,-1,26
 434 140 434 140 434 233 c 2,27,-1
 434 253 l 1,28,-1
 271 253 l 1,29,-1
 271 312 l 1,0,-1
EndSplineSet
Position2: "'cpsp' Capital Spacing lookup 0 subtable" dx=5 dy=0 dh=10 dv=0
EndChar

StartChar: Gbreve
Encoding: 286 286 37
Width: 564
GlyphClass: 2
Flags: W
HStem: -11 64<199.533 372.522> 0 21G<453.224 504> 253 59<271 434> 552 65<203.438 374.78> 698 53<234.54 330.56>
VStem: 47 72<151.358 447.944> 176 54<758.858 781> 335 55<758.858 781> 434 70<118.97 253 402 492.07> 458 46<0 29.3125>
LayerCount: 2
Fore
SplineSet
360 723.5 m 128,-1,1
 330 698 330 698 283 698 c 128,-1,2
 236 698 236 698 206 724 c 128,-1,3
 176 750 176 750 176 781 c 1,4,-1
 230 781 l 1,5,6
 232 770 232 770 247 760.5 c 128,-1,7
 262 751 262 751 282.5 751 c 128,-1,8
 303 751 303 751 318 760.5 c 128,-1,9
 333 770 333 770 335 781 c 1,10,-1
 390 781 l 1,11,0
 390 749 390 749 360 723.5 c 128,-1,1
271 312 m 1,12,-1
 504 312 l 1,13,-1
 504 0 l 1,14,-1
 458 0 l 1,15,-1
 442 67 l 1,16,17
 390 -11 390 -11 280 -11 c 128,-1,18
 170 -11 170 -11 108.5 68.5 c 128,-1,19
 47 148 47 148 47 303 c 128,-1,20
 47 458 47 458 110 537.5 c 128,-1,21
 173 617 173 617 279.5 617 c 128,-1,22
 386 617 386 617 445 562.5 c 128,-1,23
 504 508 504 508 504 402 c 1,24,-1
 434 402 l 1,25,26
 434 478 434 478 395 515 c 128,-1,27
 356 552 356 552 282.5 552 c 128,-1,28
 209 552 209 552 164 495 c 128,-1,29
 119 438 119 438 119 325 c 2,30,-1
 119 281 l 2,31,32
 119 53 119 53 281 53 c 0,33,34
 363 53 363 53 398.5 96.5 c 128,-1,35
 434 140 434 140 434 233 c 2,36,-1
 434 253 l 1,37,-1
 271 253 l 1,38,-1
 271 312 l 1,12,-1
EndSplineSet
Position2: "'cpsp' Capital Spacing lookup 0 subtable" dx=5 dy=0 dh=10 dv=0
EndChar

StartChar: Gcircumflex
Encoding: 284 284 38
Width: 564
GlyphClass: 2
Flags: W
HStem: -11 64<199.533 372.522> 0 21G<453.224 504> 253 59<271 434> 552 65<203.438 374.78>
VStem: 47 72<151.358 447.944> 434 70<118.97 253 402 492.07> 458 46<0 29.3125>
LayerCount: 2
Fore
SplineSet
243 660 m 1,0,-1
 174 660 l 1,1,-1
 250 780 l 1,2,-1
 314 780 l 1,3,-1
 389 660 l 1,4,-1
 322 660 l 1,5,-1
 283 732 l 1,6,-1
 243 660 l 1,0,-1
271 312 m 1,7,-1
 504 312 l 1,8,-1
 504 0 l 1,9,-1
 458 0 l 1,10,-1
 442 67 l 1,11,12
 390 -11 390 -11 280 -11 c 0,13,14
 170 -11 170 -11 108.5 68.5 c 128,-1,15
 47 148 47 148 47 303 c 128,-1,16
 47 458 47 458 110 537.5 c 128,-1,17
 173 617 173 617 279.5 617 c 0,18,19
 386 617 386 617 445 562.5 c 128,-1,20
 504 508 504 508 504 402 c 1,21,-1
 434 402 l 1,22,23
 434 478 434 478 395 515 c 128,-1,24
 356 552 356 552 282.5 552 c 0,25,26
 209 552 209 552 164 495 c 128,-1,27
 119 438 119 438 119 325 c 2,28,-1
 119 281 l 2,29,30
 119 53 119 53 281 53 c 0,31,32
 363 53 363 53 398.5 96.5 c 128,-1,33
 434 140 434 140 434 233 c 2,34,-1
 434 253 l 1,35,-1
 271 253 l 1,36,-1
 271 312 l 1,7,-1
EndSplineSet
Position2: "'cpsp' Capital Spacing lookup 0 subtable" dx=5 dy=0 dh=10 dv=0
EndChar

StartChar: Gcommaaccent
Encoding: 290 290 39
Width: 564
GlyphClass: 2
Flags: W
HStem: -126 72<254 280> -11 64<199.533 372.522> 0 21G<453.224 504> 253 59<271 434> 552 65<203.438 374.78>
VStem: 47 72<151.358 447.944> 254 65<-121 -54> 434 70<118.97 253 402 492.07> 458 46<0 29.3125>
LayerCount: 2
Fore
SplineSet
271 312 m 1,0,-1
 504 312 l 1,1,-1
 504 0 l 1,2,-1
 458 0 l 1,3,-1
 442 67 l 1,4,5
 390 -11 390 -11 280 -11 c 0,6,7
 170 -11 170 -11 108.5 68.5 c 128,-1,8
 47 148 47 148 47 303 c 128,-1,9
 47 458 47 458 110 537.5 c 128,-1,10
 173 617 173 617 279.5 617 c 0,11,12
 386 617 386 617 445 562.5 c 128,-1,13
 504 508 504 508 504 402 c 1,14,-1
 434 402 l 1,15,16
 434 478 434 478 395 515 c 128,-1,17
 356 552 356 552 282.5 552 c 0,18,19
 209 552 209 552 164 495 c 128,-1,20
 119 438 119 438 119 325 c 2,21,-1
 119 281 l 2,22,23
 119 53 119 53 281 53 c 0,24,25
 363 53 363 53 398.5 96.5 c 128,-1,26
 434 140 434 140 434 233 c 2,27,-1
 434 253 l 1,28,-1
 271 253 l 1,29,-1
 271 312 l 1,0,-1
254 -54 m 1,30,-1
 319 -54 l 1,31,-1
 319 -121 l 1,32,-1
 297 -185 l 1,33,-1
 264 -185 l 1,34,-1
 280 -126 l 1,35,-1
 254 -126 l 1,36,-1
 254 -54 l 1,30,-1
EndSplineSet
Position2: "'cpsp' Capital Spacing lookup 0 subtable" dx=5 dy=0 dh=10 dv=0
EndChar

StartChar: Gdotaccent
Encoding: 288 288 40
Width: 564
GlyphClass: 2
Flags: W
HStem: -11 64<199.533 372.522> 0 21G<453.224 504> 253 59<271 434> 552 65<203.438 374.78> 702 79<247 319>
VStem: 47 72<151.358 447.944> 247 72<702 781> 434 70<118.97 253 402 492.07> 458 46<0 29.3125>
LayerCount: 2
Fore
SplineSet
319 702 m 1,0,-1
 247 702 l 1,1,-1
 247 781 l 1,2,-1
 319 781 l 1,3,-1
 319 702 l 1,0,-1
271 312 m 1,4,-1
 504 312 l 1,5,-1
 504 0 l 1,6,-1
 458 0 l 1,7,-1
 442 67 l 1,8,9
 390 -11 390 -11 280 -11 c 0,10,11
 170 -11 170 -11 108.5 68.5 c 128,-1,12
 47 148 47 148 47 303 c 128,-1,13
 47 458 47 458 110 537.5 c 128,-1,14
 173 617 173 617 279.5 617 c 0,15,16
 386 617 386 617 445 562.5 c 128,-1,17
 504 508 504 508 504 402 c 1,18,-1
 434 402 l 1,19,20
 434 478 434 478 395 515 c 128,-1,21
 356 552 356 552 282.5 552 c 0,22,23
 209 552 209 552 164 495 c 128,-1,24
 119 438 119 438 119 325 c 2,25,-1
 119 281 l 2,26,27
 119 53 119 53 281 53 c 0,28,29
 363 53 363 53 398.5 96.5 c 128,-1,30
 434 140 434 140 434 233 c 2,31,-1
 434 253 l 1,32,-1
 271 253 l 1,33,-1
 271 312 l 1,4,-1
EndSplineSet
Position2: "'cpsp' Capital Spacing lookup 0 subtable" dx=5 dy=0 dh=10 dv=0
EndChar

StartChar: H
Encoding: 72 72 41
Width: 523
GlyphClass: 2
Flags: W
HStem: 0 21G<65 133 392 459> 279 63<133 392> 586 20G<65 133 392 459>
VStem: 65 68<0 279 342 606> 392 67<0 279 342 606>
AnchorPoint: "Anchor-1" 0 0 basechar 0
AnchorPoint: "Anchor-0" 262 606 basechar 0
LayerCount: 2
Fore
SplineSet
392 0 m 1,0,-1
 392 279 l 1,1,-1
 133 279 l 1,2,-1
 133 0 l 1,3,-1
 65 0 l 1,4,-1
 65 606 l 1,5,-1
 133 606 l 1,6,-1
 133 342 l 1,7,-1
 392 342 l 1,8,-1
 392 606 l 1,9,-1
 459 606 l 1,10,-1
 459 0 l 1,11,-1
 392 0 l 1,0,-1
EndSplineSet
Position2: "'cpsp' Capital Spacing lookup 0 subtable" dx=5 dy=0 dh=10 dv=0
EndChar

StartChar: Hbar
Encoding: 294 294 42
Width: 523
GlyphClass: 2
Flags: W
HStem: 0 21G<65 133 392 459> 276 61<133 392> 433 60<21 65 133 392 459 504> 586 20G<65 133 392 459>
VStem: 65 68<0 276 337 433 493 606> 392 67<0 276 337 433 493 606>
LayerCount: 2
Fore
SplineSet
459 0 m 1,0,-1
 392 0 l 1,1,-1
 392 276 l 1,2,-1
 133 276 l 1,3,-1
 133 0 l 1,4,-1
 65 0 l 1,5,-1
 65 433 l 1,6,-1
 21 433 l 1,7,-1
 21 493 l 1,8,-1
 65 493 l 1,9,-1
 65 606 l 1,10,-1
 133 606 l 1,11,-1
 133 493 l 1,12,-1
 392 493 l 1,13,-1
 392 606 l 1,14,-1
 459 606 l 1,15,-1
 459 493 l 1,16,-1
 504 493 l 1,17,-1
 504 433 l 1,18,-1
 459 433 l 1,19,-1
 459 0 l 1,0,-1
132 433 m 1,20,-1
 132 337 l 1,21,-1
 392 337 l 1,22,-1
 392 433 l 1,23,-1
 132 433 l 1,20,-1
EndSplineSet
Position2: "'cpsp' Capital Spacing lookup 0 subtable" dx=5 dy=0 dh=10 dv=0
EndChar

StartChar: Hcircumflex
Encoding: 292 292 43
Width: 523
GlyphClass: 2
Flags: W
HStem: 0 21G<65 133 392 459> 279 63<133 392> 586 20G<65 133 392 459>
VStem: 65 68<0 279 342 606> 392 67<0 279 342 606>
LayerCount: 2
Fore
SplineSet
301 660 m 1,0,-1
 263 732 l 1,1,-1
 222 660 l 1,2,-1
 153 660 l 1,3,-1
 229 780 l 1,4,-1
 293 780 l 1,5,-1
 369 660 l 1,6,-1
 301 660 l 1,0,-1
392 0 m 1,7,-1
 392 279 l 1,8,-1
 133 279 l 1,9,-1
 133 0 l 1,10,-1
 65 0 l 1,11,-1
 65 606 l 1,12,-1
 133 606 l 1,13,-1
 133 342 l 1,14,-1
 392 342 l 1,15,-1
 392 606 l 1,16,-1
 459 606 l 1,17,-1
 459 0 l 1,18,-1
 392 0 l 1,7,-1
EndSplineSet
Position2: "'cpsp' Capital Spacing lookup 0 subtable" dx=5 dy=0 dh=10 dv=0
EndChar

StartChar: I
Encoding: 73 73 44
Width: 202
GlyphClass: 2
Flags: W
HStem: 0 21G<67 135> 586 20G<67 135>
VStem: 67 68<0 606>
AnchorPoint: "Anchor-1" 0 0 basechar 0
AnchorPoint: "Anchor-0" 101 606 basechar 0
LayerCount: 2
Fore
SplineSet
67 606 m 1,0,-1
 135 606 l 1,1,-1
 135 0 l 1,2,-1
 67 0 l 1,3,-1
 67 606 l 1,0,-1
EndSplineSet
Position2: "'cpsp' Capital Spacing lookup 0 subtable" dx=5 dy=0 dh=10 dv=0
EndChar

StartChar: IJ
Encoding: 306 306 45
Width: 552
GlyphClass: 2
Flags: W
HStem: -11 64<301.168 406.832> 0 21G<67 135> 586 20G<67 135 426 494>
VStem: 67 68<0 606> 214 68<73.5953 182> 426 68<73.5953 606>
LayerCount: 2
Fore
SplineSet
67 0 m 1,0,-1
 67 606 l 1,1,-1
 135 606 l 1,2,-1
 135 0 l 1,3,-1
 67 0 l 1,0,-1
494 606 m 1,4,-1
 494 144 l 2,5,6
 494 69 494 69 457.5 29 c 128,-1,7
 421 -11 421 -11 354 -11 c 128,-1,8
 287 -11 287 -11 250.5 29 c 128,-1,9
 214 69 214 69 214 144 c 2,10,-1
 214 182 l 1,11,-1
 282 182 l 1,12,-1
 282 136 l 2,13,14
 282 53 282 53 354 53 c 128,-1,15
 426 53 426 53 426 136 c 2,16,-1
 426 606 l 1,17,-1
 494 606 l 1,4,-1
EndSplineSet
Position2: "'cpsp' Capital Spacing lookup 0 subtable" dx=5 dy=0 dh=10 dv=0
EndChar

StartChar: Iacute
Encoding: 205 205 46
Width: 202
GlyphClass: 2
Flags: W
HStem: 0 21G<67 135> 586 20G<67 135>
VStem: 67 68<0 606>
LayerCount: 2
Fore
SplineSet
105 664 m 1,0,-1
 52 664 l 1,1,-1
 128 781 l 1,2,-1
 198 781 l 1,3,-1
 199 778 l 1,4,-1
 105 664 l 1,0,-1
67 0 m 1,5,-1
 67 606 l 1,6,-1
 135 606 l 1,7,-1
 135 0 l 1,8,-1
 67 0 l 1,5,-1
EndSplineSet
Position2: "'cpsp' Capital Spacing lookup 0 subtable" dx=5 dy=0 dh=10 dv=0
EndChar

StartChar: Ibreve
Encoding: 300 300 47
Width: 202
GlyphClass: 2
Flags: W
HStem: 0 21G<67 135> 586 20G<67 135> 698 53<53.151 150.36>
VStem: -7 56<758.858 781> 67 68<0 606> 154 53<758.858 781>
LayerCount: 2
Fore
SplineSet
154 781 m 1,0,-1
 207 781 l 1,1,2
 207 749 207 749 177.5 723.5 c 128,-1,3
 148 698 148 698 101 698 c 128,-1,4
 54 698 54 698 23.5 724 c 128,-1,5
 -7 750 -7 750 -7 781 c 1,6,-1
 49 781 l 1,7,8
 51 770 51 770 66 760.5 c 128,-1,9
 81 751 81 751 101.5 751 c 0,10,11
 122 751 122 751 137 760.5 c 128,-1,12
 152 770 152 770 154 781 c 1,0,-1
67 606 m 1,13,-1
 135 606 l 1,14,-1
 135 0 l 1,15,-1
 67 0 l 1,16,-1
 67 606 l 1,13,-1
EndSplineSet
Position2: "'cpsp' Capital Spacing lookup 0 subtable" dx=5 dy=0 dh=10 dv=0
EndChar

StartChar: Icircumflex
Encoding: 206 206 48
Width: 202
GlyphClass: 2
Flags: W
HStem: 0 21G<67 135> 586 20G<67 135>
VStem: 67 68<0 606>
LayerCount: 2
Fore
SplineSet
102 732 m 1,0,-1
 62 660 l 1,1,-1
 -8 660 l 1,2,-1
 69 780 l 1,3,-1
 133 780 l 1,4,-1
 208 660 l 1,5,-1
 141 660 l 1,6,-1
 102 732 l 1,0,-1
67 606 m 1,7,-1
 135 606 l 1,8,-1
 135 0 l 1,9,-1
 67 0 l 1,10,-1
 67 606 l 1,7,-1
EndSplineSet
Position2: "'cpsp' Capital Spacing lookup 0 subtable" dx=5 dy=0 dh=10 dv=0
EndChar

StartChar: Idieresis
Encoding: 207 207 49
Width: 202
GlyphClass: 2
Flags: W
HStem: 0 21G<67 135> 586 20G<67 135> 701 80<1 75 128 201>
VStem: 1 74<701 781> 67 68<0 606> 128 73<701 781>
LayerCount: 2
Fore
SplineSet
1 701 m 1,0,-1
 1 781 l 1,1,-1
 75 781 l 1,2,-1
 75 701 l 1,3,-1
 1 701 l 1,0,-1
128 701 m 1,4,-1
 128 781 l 1,5,-1
 201 781 l 1,6,-1
 201 701 l 1,7,-1
 128 701 l 1,4,-1
67 0 m 1,8,-1
 67 606 l 1,9,-1
 135 606 l 1,10,-1
 135 0 l 1,11,-1
 67 0 l 1,8,-1
EndSplineSet
Position2: "'cpsp' Capital Spacing lookup 0 subtable" dx=5 dy=0 dh=10 dv=0
EndChar

StartChar: Idotaccent
Encoding: 304 304 50
Width: 202
GlyphClass: 2
Flags: W
HStem: 0 21G<67 135> 586 20G<67 135> 702 79<66 138>
VStem: 67 68<0 606 702 781>
LayerCount: 2
Fore
SplineSet
66 781 m 1,0,-1
 138 781 l 1,1,-1
 138 702 l 1,2,-1
 66 702 l 1,3,-1
 66 781 l 1,0,-1
67 606 m 1,4,-1
 135 606 l 1,5,-1
 135 0 l 1,6,-1
 67 0 l 1,7,-1
 67 606 l 1,4,-1
EndSplineSet
Position2: "'cpsp' Capital Spacing lookup 0 subtable" dx=5 dy=0 dh=10 dv=0
EndChar

StartChar: Igrave
Encoding: 204 204 51
Width: 202
GlyphClass: 2
Flags: W
HStem: 0 21G<67 135> 586 20G<67 135>
VStem: 67 68<0 606>
LayerCount: 2
Fore
SplineSet
98 664 m 1,0,-1
 2 778 l 1,1,-1
 3 781 l 1,2,-1
 75 781 l 1,3,-1
 151 664 l 1,4,-1
 98 664 l 1,0,-1
67 0 m 1,5,-1
 67 606 l 1,6,-1
 135 606 l 1,7,-1
 135 0 l 1,8,-1
 67 0 l 1,5,-1
EndSplineSet
Position2: "'cpsp' Capital Spacing lookup 0 subtable" dx=5 dy=0 dh=10 dv=0
EndChar

StartChar: Imacron
Encoding: 298 298 52
Width: 202
GlyphClass: 2
Flags: W
HStem: 0 21G<67 135> 586 20G<67 135> 671 60<-10 211>
VStem: 67 68<0 606>
LayerCount: 2
Fore
SplineSet
-10 731 m 1,0,-1
 211 731 l 1,1,-1
 211 671 l 1,2,-1
 -10 671 l 1,3,-1
 -10 731 l 1,0,-1
67 606 m 1,4,-1
 135 606 l 1,5,-1
 135 0 l 1,6,-1
 67 0 l 1,7,-1
 67 606 l 1,4,-1
EndSplineSet
Position2: "'cpsp' Capital Spacing lookup 0 subtable" dx=5 dy=0 dh=10 dv=0
EndChar

StartChar: Iogonek
Encoding: 302 302 53
Width: 202
GlyphClass: 2
Flags: W
HStem: -159 57<121.381 185.202> -147 45<134.798 186> 586 20G<68 135>
VStem: 52 62<-96.0274 -10.2261> 68 67<0 606>
LayerCount: 2
Fore
SplineSet
135 606 m 1,0,-1
 135 0 l 1,1,2
 114 -30 114 -30 114 -52 c 0,3,4
 114 -74 114 -74 124.5 -88 c 128,-1,5
 135 -102 135 -102 156 -102 c 2,6,-1
 186 -102 l 1,7,-1
 186 -147 l 1,8,9
 157 -159 157 -159 129 -159 c 0,10,11
 101 -159 101 -159 76.5 -140 c 128,-1,12
 52 -121 52 -121 52 -77.5 c 0,13,14
 52 -34 52 -34 82 0 c 1,15,-1
 68 0 l 1,16,-1
 68 606 l 1,17,-1
 135 606 l 1,0,-1
EndSplineSet
Position2: "'cpsp' Capital Spacing lookup 0 subtable" dx=5 dy=0 dh=10 dv=0
EndChar

StartChar: Itilde
Encoding: 296 296 54
Width: 202
GlyphClass: 2
Flags: W
HStem: 0 21G<67 135> 586 20G<67 135> 694 62<76.1708 174.421> 719 62<27.1556 125.28>
VStem: -22 48<694 717.628> 67 68<0 606> 175 49<756.598 781>
LayerCount: 2
Fore
SplineSet
175 781 m 1,0,-1
 224 781 l 1,1,2
 224 747 224 747 206 720.5 c 128,-1,3
 188 694 188 694 153 694 c 0,4,5
 134 694 134 694 102.5 706.5 c 128,-1,6
 71 719 71 719 55 719 c 0,7,8
 30 719 30 719 26 694 c 1,9,-1
 -22 694 l 1,10,11
 -22 726 -22 726 -3.5 753.5 c 128,-1,12
 15 781 15 781 49 781 c 0,13,14
 67 781 67 781 98.5 768.5 c 128,-1,15
 130 756 130 756 147 756 c 0,16,17
 172 756 172 756 175 781 c 1,0,-1
67 606 m 1,18,-1
 135 606 l 1,19,-1
 135 0 l 1,20,-1
 67 0 l 1,21,-1
 67 606 l 1,18,-1
EndSplineSet
Position2: "'cpsp' Capital Spacing lookup 0 subtable" dx=5 dy=0 dh=10 dv=0
EndChar

StartChar: J
Encoding: 74 74 55
Width: 350
GlyphClass: 2
Flags: W
HStem: -11 64<99.1677 204.832> 586 20G<224 292>
VStem: 12 68<73.5953 182> 224 68<73.5953 606>
AnchorPoint: "Anchor-1" 0 0 basechar 0
AnchorPoint: "Anchor-0" 175 606 basechar 0
LayerCount: 2
Fore
SplineSet
292 606 m 1,0,-1
 292 144 l 2,1,2
 292 69 292 69 255.5 29 c 128,-1,3
 219 -11 219 -11 152 -11 c 128,-1,4
 85 -11 85 -11 48.5 29 c 128,-1,5
 12 69 12 69 12 144 c 2,6,-1
 12 182 l 1,7,-1
 80 182 l 1,8,-1
 80 136 l 2,9,10
 80 53 80 53 152 53 c 128,-1,11
 224 53 224 53 224 136 c 2,12,-1
 224 606 l 1,13,-1
 292 606 l 1,0,-1
EndSplineSet
Position2: "'cpsp' Capital Spacing lookup 0 subtable" dx=5 dy=0 dh=10 dv=0
EndChar

StartChar: Jcircumflex
Encoding: 308 308 56
Width: 350
GlyphClass: 2
Flags: W
HStem: -11 64<99.1677 204.832> 586 20G<224 292>
VStem: 12 68<73.5953 182> 224 68<73.5953 606>
LayerCount: 2
Fore
SplineSet
296 660 m 1,0,-1
 257 732 l 1,1,-1
 216 660 l 1,2,-1
 147 660 l 1,3,-1
 223 780 l 1,4,-1
 287 780 l 1,5,-1
 363 660 l 1,6,-1
 296 660 l 1,0,-1
292 606 m 1,7,-1
 292 144 l 2,8,9
 292 69 292 69 255.5 29 c 128,-1,10
 219 -11 219 -11 152 -11 c 128,-1,11
 85 -11 85 -11 48.5 29 c 128,-1,12
 12 69 12 69 12 144 c 2,13,-1
 12 182 l 1,14,-1
 80 182 l 1,15,-1
 80 136 l 2,16,17
 80 53 80 53 152 53 c 128,-1,18
 224 53 224 53 224 136 c 2,19,-1
 224 606 l 1,20,-1
 292 606 l 1,7,-1
EndSplineSet
Position2: "'cpsp' Capital Spacing lookup 0 subtable" dx=5 dy=0 dh=10 dv=0
EndChar

StartChar: K
Encoding: 75 75 57
Width: 473
GlyphClass: 2
Flags: W
HStem: 0 21G<65 132 372.901 459> 586 20G<65 132 362.768 453>
VStem: 65 67<0 198 283 606>
AnchorPoint: "Anchor-1" 236 0 basechar 0
AnchorPoint: "Anchor-0" 236 606 basechar 0
LayerCount: 2
Fore
SplineSet
453 606 m 1,0,-1
 270 363 l 1,1,-1
 459 0 l 1,2,-1
 383 0 l 1,3,-1
 230 303 l 1,4,-1
 132 198 l 1,5,-1
 132 0 l 1,6,-1
 65 0 l 1,7,-1
 65 606 l 1,8,-1
 132 606 l 1,9,-1
 132 283 l 1,10,-1
 378 606 l 1,11,-1
 453 606 l 1,0,-1
EndSplineSet
Position2: "'cpsp' Capital Spacing lookup 0 subtable" dx=5 dy=0 dh=10 dv=0
EndChar

StartChar: Kcommaaccent
Encoding: 310 310 58
Width: 473
GlyphClass: 2
Flags: W
HStem: -126 72<203 229> 0 21G<65 132 372.901 459> 586 20G<65 132 362.768 453>
VStem: 65 67<0 198 283 606> 203 65<-126 -54> 214 33<-185 -163.667>
LayerCount: 2
Fore
SplineSet
453 606 m 1,0,-1
 270 363 l 1,1,-1
 459 0 l 1,2,-1
 383 0 l 1,3,-1
 230 303 l 1,4,-1
 132 198 l 1,5,-1
 132 0 l 1,6,-1
 65 0 l 1,7,-1
 65 606 l 1,8,-1
 132 606 l 1,9,-1
 132 283 l 1,10,-1
 378 606 l 1,11,-1
 453 606 l 1,0,-1
214 -185 m 1,12,-1
 229 -126 l 1,13,-1
 203 -126 l 1,14,-1
 203 -54 l 1,15,-1
 268 -54 l 1,16,-1
 268 -121 l 1,17,-1
 247 -185 l 1,18,-1
 214 -185 l 1,12,-1
EndSplineSet
Position2: "'cpsp' Capital Spacing lookup 0 subtable" dx=5 dy=0 dh=10 dv=0
EndChar

StartChar: L
Encoding: 76 76 59
Width: 391
GlyphClass: 2
Flags: W
HStem: 0 61<133 377> 586 20G<65 133>
VStem: 65 68<61 606>
AnchorPoint: "Anchor-1" 196 0 basechar 0
AnchorPoint: "Anchor-0" 196 606 basechar 0
LayerCount: 2
Fore
SplineSet
377 61 m 1,0,-1
 377 0 l 1,1,-1
 65 0 l 1,2,-1
 65 606 l 1,3,-1
 133 606 l 1,4,-1
 133 61 l 1,5,-1
 377 61 l 1,0,-1
EndSplineSet
Position2: "'cpsp' Capital Spacing lookup 0 subtable" dx=5 dy=0 dh=10 dv=0
EndChar

StartChar: Lacute
Encoding: 313 313 60
Width: 391
GlyphClass: 2
Flags: W
HStem: 0 61<133 377> 586 20G<65 133>
VStem: 65 68<61 606>
LayerCount: 2
Fore
SplineSet
97 664 m 1,0,-1
 43 664 l 1,1,-1
 119 781 l 1,2,-1
 191 781 l 1,3,-1
 192 778 l 1,4,-1
 97 664 l 1,0,-1
377 61 m 1,5,-1
 377 0 l 1,6,-1
 65 0 l 1,7,-1
 65 606 l 1,8,-1
 133 606 l 1,9,-1
 133 61 l 1,10,-1
 377 61 l 1,5,-1
EndSplineSet
Position2: "'cpsp' Capital Spacing lookup 0 subtable" dx=5 dy=0 dh=10 dv=0
EndChar

StartChar: Lcaron
Encoding: 317 317 61
Width: 391
GlyphClass: 2
Flags: W
HStem: 0 61<133 377> 519 87<276 307>
VStem: 65 68<61 606> 276 78<526 606>
LayerCount: 2
Fore
SplineSet
377 61 m 1,0,-1
 377 0 l 1,1,-1
 65 0 l 1,2,-1
 65 606 l 1,3,-1
 133 606 l 1,4,-1
 133 61 l 1,5,-1
 377 61 l 1,0,-1
317 417 m 1,6,-1
 276 417 l 1,7,-1
 307 519 l 1,8,-1
 276 519 l 1,9,-1
 276 606 l 1,10,-1
 354 606 l 1,11,-1
 354 526 l 1,12,-1
 317 417 l 1,6,-1
EndSplineSet
Position2: "'cpsp' Capital Spacing lookup 0 subtable" dx=5 dy=0 dh=10 dv=0
EndChar

StartChar: Lcommaaccent
Encoding: 315 315 62
Width: 391
GlyphClass: 2
Flags: W
HStem: -126 72<163 189> 0 61<133 377> 586 20G<65 133>
VStem: 65 68<61 606> 163 66<-121 -54>
LayerCount: 2
Fore
SplineSet
377 61 m 1,0,-1
 377 0 l 1,1,-1
 65 0 l 1,2,-1
 65 606 l 1,3,-1
 133 606 l 1,4,-1
 133 61 l 1,5,-1
 377 61 l 1,0,-1
207 -185 m 1,6,-1
 172 -185 l 1,7,-1
 189 -126 l 1,8,-1
 163 -126 l 1,9,-1
 163 -54 l 1,10,-1
 229 -54 l 1,11,-1
 229 -121 l 1,12,-1
 207 -185 l 1,6,-1
EndSplineSet
Position2: "'cpsp' Capital Spacing lookup 0 subtable" dx=5 dy=0 dh=10 dv=0
EndChar

StartChar: Ldot
Encoding: 319 319 63
Width: 391
GlyphClass: 2
Flags: W
HStem: 0 61<133 377> 367 97<256 344> 586 20G<65 133>
VStem: 65 68<61 606> 256 88<367 464>
LayerCount: 2
Fore
SplineSet
377 61 m 1,0,-1
 377 0 l 1,1,-1
 65 0 l 1,2,-1
 65 606 l 1,3,-1
 133 606 l 1,4,-1
 133 61 l 1,5,-1
 377 61 l 1,0,-1
256 367 m 1,6,-1
 256 464 l 1,7,-1
 344 464 l 1,8,-1
 344 367 l 1,9,-1
 256 367 l 1,6,-1
EndSplineSet
Ligature2: "Ligature Substitution lookup 31 subtable" L periodcentered
Position2: "'cpsp' Capital Spacing lookup 0 subtable" dx=5 dy=0 dh=10 dv=0
EndChar

StartChar: Lslash
Encoding: 321 321 64
Width: 391
GlyphClass: 2
Flags: W
HStem: 0 61<132 376> 586 20G<65 132>
VStem: 65 67<61 219 276 279 336 606>
LayerCount: 2
Fore
SplineSet
259 448 m 1,0,-1
 259 390 l 1,1,-1
 132 279 l 1,2,-1
 132 61 l 1,3,-1
 376 61 l 1,4,-1
 376 0 l 1,5,-1
 65 0 l 1,6,-1
 65 219 l 1,7,-1
 0 163 l 1,8,-1
 0 219 l 1,9,-1
 65 276 l 1,10,-1
 65 606 l 1,11,-1
 132 606 l 1,12,-1
 132 336 l 1,13,-1
 259 448 l 1,0,-1
EndSplineSet
Position2: "'cpsp' Capital Spacing lookup 0 subtable" dx=5 dy=0 dh=10 dv=0
EndChar

StartChar: M
Encoding: 77 77 65
Width: 604
GlyphClass: 2
Flags: W
HStem: 0 21G<57 119 261.154 332.817 476 546> 549 57<113 120.591 475.429 483>
VStem: 57 62<0 548.944> 476 70<0 548.946>
LayerCount: 2
Fore
SplineSet
476 0 m 1,0,-1
 476 456 l 1,1,-1
 483 549 l 1,2,-1
 480 549 l 1,3,4
 478 541 478 541 470.5 504 c 128,-1,5
 463 467 463 467 457 447 c 2,6,-1
 327 0 l 1,7,-1
 267 0 l 1,8,-1
 134 455 l 2,9,10
 129 472 129 472 124 506.5 c 128,-1,11
 119 541 119 541 117 549 c 1,12,-1
 113 549 l 1,13,14
 119 472 119 472 119 456 c 2,15,-1
 119 0 l 1,16,-1
 57 0 l 1,17,-1
 57 606 l 1,18,-1
 163 606 l 1,19,-1
 279 190 l 2,20,21
 290.884615385 150.384615385 290.884615385 150.384615385 297 77 c 2,22,-1
 299 53 l 1,23,-1
 302 53 l 1,24,25
 309 145 309 145 322 190 c 2,26,-1
 439 606 l 1,27,-1
 546 606 l 1,28,-1
 546 0 l 1,29,-1
 476 0 l 1,0,-1
EndSplineSet
Position2: "'cpsp' Capital Spacing lookup 0 subtable" dx=5 dy=0 dh=10 dv=0
EndChar

StartChar: N
Encoding: 78 78 66
Width: 523
GlyphClass: 2
Flags: W
HStem: 0 21G<65 126 393.13 459> 586 20G<65 133.949 399 459>
VStem: 65 61<0 489.955> 399 60<124 606>
AnchorPoint: "Anchor-1" 262 0 basechar 0
AnchorPoint: "Anchor-0" 262 606 basechar 0
LayerCount: 2
Fore
SplineSet
405 0 m 1,0,-1
 167 401 l 2,1,2
 154.459459459 421.378378378 154.459459459 421.378378378 131 475 c 2,3,-1
 124 491 l 1,4,-1
 122 490 l 1,5,6
 126 428 126 428 126 400 c 2,7,-1
 126 0 l 1,8,-1
 65 0 l 1,9,-1
 65 606 l 1,10,-1
 122 606 l 1,11,-1
 358 211 l 2,12,13
 374.625 184.875 374.625 184.875 392.5 139.5 c 2,14,-1
 399 123 l 1,15,-1
 401 124 l 1,16,17
 399 190 399 190 399 212 c 2,18,-1
 399 606 l 1,19,-1
 459 606 l 1,20,-1
 459 0 l 1,21,-1
 405 0 l 1,0,-1
EndSplineSet
Position2: "'cpsp' Capital Spacing lookup 0 subtable" dx=5 dy=0 dh=10 dv=0
EndChar

StartChar: Nacute
Encoding: 323 323 67
Width: 523
GlyphClass: 2
Flags: W
HStem: 0 21G<65 126 393.13 459> 586 20G<65 133.949 399 459>
VStem: 65 61<0 489.955> 399 60<124 606>
LayerCount: 2
Fore
SplineSet
266 664 m 1,0,-1
 211 664 l 1,1,-1
 287 781 l 1,2,-1
 358 781 l 1,3,-1
 359 778 l 1,4,-1
 266 664 l 1,0,-1
405 0 m 1,5,-1
 167 401 l 2,6,7
 154.459459459 421.378378378 154.459459459 421.378378378 131 475 c 2,8,-1
 124 491 l 1,9,-1
 122 490 l 1,10,11
 126 428 126 428 126 400 c 2,12,-1
 126 0 l 1,13,-1
 65 0 l 1,14,-1
 65 606 l 1,15,-1
 122 606 l 1,16,-1
 358 211 l 2,17,18
 374.625 184.875 374.625 184.875 392.5 139.5 c 2,19,-1
 399 123 l 1,20,-1
 401 124 l 1,21,22
 399 190 399 190 399 212 c 2,23,-1
 399 606 l 1,24,-1
 459 606 l 1,25,-1
 459 0 l 1,26,-1
 405 0 l 1,5,-1
EndSplineSet
Position2: "'cpsp' Capital Spacing lookup 0 subtable" dx=5 dy=0 dh=10 dv=0
EndChar

StartChar: Ncaron
Encoding: 327 327 68
Width: 523
GlyphClass: 2
Flags: W
HStem: 0 21G<65 126 393.13 459> 586 20G<65 133.949 399 459>
VStem: 65 61<0 489.955> 399 60<124 606>
LayerCount: 2
Fore
SplineSet
228 661 m 1,0,-1
 153 781 l 1,1,-1
 222 781 l 1,2,-1
 262 708 l 1,3,-1
 301 781 l 1,4,-1
 369 781 l 1,5,-1
 291 661 l 1,6,-1
 228 661 l 1,0,-1
405 0 m 1,7,-1
 167 401 l 2,8,9
 154.459459459 421.378378378 154.459459459 421.378378378 131 475 c 2,10,-1
 124 491 l 1,11,-1
 122 490 l 1,12,13
 126 428 126 428 126 400 c 2,14,-1
 126 0 l 1,15,-1
 65 0 l 1,16,-1
 65 606 l 1,17,-1
 122 606 l 1,18,-1
 358 211 l 2,19,20
 374.625 184.875 374.625 184.875 392.5 139.5 c 2,21,-1
 399 123 l 1,22,-1
 401 124 l 1,23,24
 399 190 399 190 399 212 c 2,25,-1
 399 606 l 1,26,-1
 459 606 l 1,27,-1
 459 0 l 1,28,-1
 405 0 l 1,7,-1
EndSplineSet
Position2: "'cpsp' Capital Spacing lookup 0 subtable" dx=5 dy=0 dh=10 dv=0
EndChar

StartChar: Ncommaaccent
Encoding: 325 325 69
Width: 523
GlyphClass: 2
Flags: W
HStem: -126 72<229 256> 0 21G<65 126 393.13 459> 586 20G<65 133.949 399 459>
VStem: 65 61<0 489.955> 229 66<-121 -54> 399 60<124 606>
LayerCount: 2
Fore
SplineSet
405 0 m 1,0,-1
 167 401 l 2,1,2
 154.459459459 421.378378378 154.459459459 421.378378378 131 475 c 2,3,-1
 124 491 l 1,4,-1
 122 490 l 1,5,6
 126 428 126 428 126 400 c 2,7,-1
 126 0 l 1,8,-1
 65 0 l 1,9,-1
 65 606 l 1,10,-1
 122 606 l 1,11,-1
 358 211 l 2,12,13
 374.625 184.875 374.625 184.875 392.5 139.5 c 2,14,-1
 399 123 l 1,15,-1
 401 124 l 1,16,17
 399 190 399 190 399 212 c 2,18,-1
 399 606 l 1,19,-1
 459 606 l 1,20,-1
 459 0 l 1,21,-1
 405 0 l 1,0,-1
273 -185 m 1,22,-1
 238 -185 l 1,23,-1
 256 -126 l 1,24,-1
 229 -126 l 1,25,-1
 229 -54 l 1,26,-1
 295 -54 l 1,27,-1
 295 -121 l 1,28,-1
 273 -185 l 1,22,-1
EndSplineSet
Position2: "'cpsp' Capital Spacing lookup 0 subtable" dx=5 dy=0 dh=10 dv=0
EndChar

StartChar: Eng
Encoding: 330 330 70
Width: 523
GlyphClass: 2
Flags: W
HStem: -161 53<316.662 390.14> -150 42<316 372.015> 0 21G<65 126> 586 20G<65 133.949 395 459>
VStem: 65 61<0 489.955> 396 63<-103.087 17 124 606>
LayerCount: 2
Fore
SplineSet
459 606 m 1,0,-1
 459 -59 l 2,1,2
 459 -102 459 -102 438.5 -131.5 c 128,-1,3
 418 -161 418 -161 380 -161 c 128,-1,4
 342 -161 342 -161 316 -150 c 1,5,-1
 316 -108 l 1,6,-1
 354 -108 l 2,7,8
 396 -108 396 -108 396 -65 c 2,9,-1
 396 17 l 1,10,-1
 167 401 l 2,11,12
 154.459459459 421.378378378 154.459459459 421.378378378 131 475 c 2,13,-1
 124 491 l 1,14,-1
 122 490 l 1,15,16
 126 428 126 428 126 400 c 2,17,-1
 126 0 l 1,18,-1
 65 0 l 1,19,-1
 65 606 l 1,20,-1
 122 606 l 1,21,-1
 358 211 l 2,22,23
 374.625 184.875 374.625 184.875 392.5 139.5 c 2,24,-1
 399 123 l 1,25,-1
 401 124 l 1,26,27
 399 190 399 190 399 212 c 2,28,-1
 395 606 l 1,29,-1
 459 606 l 1,0,-1
EndSplineSet
Position2: "'cpsp' Capital Spacing lookup 0 subtable" dx=5 dy=0 dh=10 dv=0
EndChar

StartChar: Ntilde
Encoding: 209 209 71
Width: 523
GlyphClass: 2
Flags: W
HStem: 0 21G<65 126 393.13 459> 586 20G<65 133.949 399 459> 694 62<237.32 334.067> 719 62<188.65 285.883>
VStem: 65 61<0 489.955> 139 49<694 717.628> 335 51<756.598 781> 399 60<124 606>
LayerCount: 2
Fore
SplineSet
335 781 m 1,0,-1
 386 781 l 1,1,2
 386 748 386 748 367.5 721 c 128,-1,3
 349 694 349 694 314 694 c 0,4,5
 294 694 294 694 263 706.5 c 128,-1,6
 232 719 232 719 216 719 c 0,7,8
 192 719 192 719 188 694 c 1,9,-1
 139 694 l 1,10,11
 139 726 139 726 157.5 753.5 c 128,-1,12
 176 781 176 781 210 781 c 0,13,14
 229 781 229 781 260 768.5 c 128,-1,15
 291 756 291 756 307 756 c 0,16,17
 334 756 334 756 335 781 c 1,0,-1
405 0 m 1,18,-1
 167 401 l 2,19,20
 154.459459459 421.378378378 154.459459459 421.378378378 131 475 c 2,21,-1
 124 491 l 1,22,-1
 122 490 l 1,23,24
 126 428 126 428 126 400 c 2,25,-1
 126 0 l 1,26,-1
 65 0 l 1,27,-1
 65 606 l 1,28,-1
 122 606 l 1,29,-1
 358 211 l 2,30,31
 374.625 184.875 374.625 184.875 392.5 139.5 c 2,32,-1
 399 123 l 1,33,-1
 401 124 l 1,34,35
 399 190 399 190 399 212 c 2,36,-1
 399 606 l 1,37,-1
 459 606 l 1,38,-1
 459 0 l 1,39,-1
 405 0 l 1,18,-1
EndSplineSet
Position2: "'cpsp' Capital Spacing lookup 0 subtable" dx=5 dy=0 dh=10 dv=0
EndChar

StartChar: O
Encoding: 79 79 72
Width: 564
GlyphClass: 2
Flags: W
HStem: -11 64<200.147 364.19> 552 65<200.147 364.19>
VStem: 47 72<151.358 455.078> 446 71<151.358 455.078>
AnchorPoint: "Anchor-1" 0 0 basechar 0
AnchorPoint: "Anchor-0" 282 606 basechar 0
LayerCount: 2
Fore
SplineSet
282 617 m 128,-1,1
 394 617 394 617 455.5 537.5 c 128,-1,2
 517 458 517 458 517 303.5 c 0,3,4
 517 149 517 149 455.5 69 c 128,-1,5
 394 -11 394 -11 282 -11 c 128,-1,6
 170 -11 170 -11 108.5 69 c 128,-1,7
 47 149 47 149 47 303.5 c 0,8,9
 47 458 47 458 108.5 537.5 c 128,-1,0
 170 617 170 617 282 617 c 128,-1,1
282 552 m 128,-1,11
 205 552 205 552 162 495.5 c 128,-1,12
 119 439 119 439 119 325 c 2,13,-1
 119 281 l 2,14,15
 119 167 119 167 162 110 c 128,-1,16
 205 53 205 53 282 53 c 128,-1,17
 359 53 359 53 402.5 110 c 128,-1,18
 446 167 446 167 446 281 c 2,19,-1
 446 325 l 2,20,21
 446 439 446 439 402.5 495.5 c 128,-1,10
 359 552 359 552 282 552 c 128,-1,11
EndSplineSet
Substitution2: "Single Substitution lookup 32 subtable" ordmasculine
Substitution2: "'aalt' Access All Alternates lookup 0 subtable" ordmasculine
Position2: "'cpsp' Capital Spacing lookup 0 subtable" dx=5 dy=0 dh=10 dv=0
EndChar

StartChar: Oacute
Encoding: 211 211 73
Width: 564
GlyphClass: 2
Flags: W
HStem: -11 64<200.147 364.19> 552 65<200.147 364.19>
VStem: 47 72<151.358 455.078> 446 71<151.358 455.078>
LayerCount: 2
Fore
SplineSet
286 664 m 1,0,-1
 233 664 l 1,1,-1
 309 781 l 1,2,-1
 380 781 l 1,3,-1
 381 778 l 1,4,-1
 286 664 l 1,0,-1
282 617 m 128,-1,6
 394 617 394 617 455.5 537.5 c 128,-1,7
 517 458 517 458 517 303.5 c 0,8,9
 517 149 517 149 455.5 69 c 128,-1,10
 394 -11 394 -11 282 -11 c 128,-1,11
 170 -11 170 -11 108.5 69 c 128,-1,12
 47 149 47 149 47 303.5 c 0,13,14
 47 458 47 458 108.5 537.5 c 128,-1,5
 170 617 170 617 282 617 c 128,-1,6
282 552 m 128,-1,16
 205 552 205 552 162 495.5 c 128,-1,17
 119 439 119 439 119 325 c 2,18,-1
 119 281 l 2,19,20
 119 167 119 167 162 110 c 128,-1,21
 205 53 205 53 282 53 c 128,-1,22
 359 53 359 53 402.5 110 c 128,-1,23
 446 167 446 167 446 281 c 2,24,-1
 446 325 l 2,25,26
 446 439 446 439 402.5 495.5 c 128,-1,15
 359 552 359 552 282 552 c 128,-1,16
EndSplineSet
Position2: "'cpsp' Capital Spacing lookup 0 subtable" dx=5 dy=0 dh=10 dv=0
EndChar

StartChar: Obreve
Encoding: 334 334 74
Width: 564
GlyphClass: 2
Flags: W
HStem: -11 64<200.147 364.19> 552 65<200.147 364.19> 698 53<234.54 330.56>
VStem: 47 72<151.358 455.078> 176 54<758.858 781> 335 55<758.858 781> 446 71<151.358 455.078>
LayerCount: 2
Fore
SplineSet
335 781 m 1,0,-1
 390 781 l 1,1,2
 390 749 390 749 360 723.5 c 128,-1,3
 330 698 330 698 283 698 c 0,4,5
 236 698 236 698 206 724 c 128,-1,6
 176 750 176 750 176 781 c 1,7,-1
 230 781 l 1,8,9
 232 770 232 770 247 760.5 c 128,-1,10
 262 751 262 751 282.5 751 c 0,11,12
 303 751 303 751 318 760.5 c 128,-1,13
 333 770 333 770 335 781 c 1,0,-1
282 617 m 128,-1,15
 394 617 394 617 455.5 537.5 c 128,-1,16
 517 458 517 458 517 303.5 c 0,17,18
 517 149 517 149 455.5 69 c 128,-1,19
 394 -11 394 -11 282 -11 c 128,-1,20
 170 -11 170 -11 108.5 69 c 128,-1,21
 47 149 47 149 47 303.5 c 0,22,23
 47 458 47 458 108.5 537.5 c 128,-1,14
 170 617 170 617 282 617 c 128,-1,15
282 552 m 128,-1,25
 205 552 205 552 162 495.5 c 128,-1,26
 119 439 119 439 119 325 c 2,27,-1
 119 281 l 2,28,29
 119 167 119 167 162 110 c 128,-1,30
 205 53 205 53 282 53 c 128,-1,31
 359 53 359 53 402.5 110 c 128,-1,32
 446 167 446 167 446 281 c 2,33,-1
 446 325 l 2,34,35
 446 439 446 439 402.5 495.5 c 128,-1,24
 359 552 359 552 282 552 c 128,-1,25
EndSplineSet
Position2: "'cpsp' Capital Spacing lookup 0 subtable" dx=5 dy=0 dh=10 dv=0
EndChar

StartChar: Ocircumflex
Encoding: 212 212 75
Width: 564
GlyphClass: 2
Flags: W
HStem: -11 64<200.147 364.19> 552 65<200.147 364.19>
VStem: 47 72<151.358 455.078> 446 71<151.358 455.078>
LayerCount: 2
Fore
SplineSet
283 732 m 1,0,-1
 243 660 l 1,1,-1
 174 660 l 1,2,-1
 250 780 l 1,3,-1
 314 780 l 1,4,-1
 389 660 l 1,5,-1
 322 660 l 1,6,-1
 283 732 l 1,0,-1
282 617 m 128,-1,8
 394 617 394 617 455.5 537.5 c 128,-1,9
 517 458 517 458 517 303.5 c 0,10,11
 517 149 517 149 455.5 69 c 128,-1,12
 394 -11 394 -11 282 -11 c 128,-1,13
 170 -11 170 -11 108.5 69 c 128,-1,14
 47 149 47 149 47 303.5 c 0,15,16
 47 458 47 458 108.5 537.5 c 128,-1,7
 170 617 170 617 282 617 c 128,-1,8
282 552 m 128,-1,18
 205 552 205 552 162 495.5 c 128,-1,19
 119 439 119 439 119 325 c 2,20,-1
 119 281 l 2,21,22
 119 167 119 167 162 110 c 128,-1,23
 205 53 205 53 282 53 c 128,-1,24
 359 53 359 53 402.5 110 c 128,-1,25
 446 167 446 167 446 281 c 2,26,-1
 446 325 l 2,27,28
 446 439 446 439 402.5 495.5 c 128,-1,17
 359 552 359 552 282 552 c 128,-1,18
EndSplineSet
Position2: "'cpsp' Capital Spacing lookup 0 subtable" dx=5 dy=0 dh=10 dv=0
EndChar

StartChar: Odieresis
Encoding: 214 214 76
Width: 564
GlyphClass: 2
Flags: W
HStem: -11 64<200.147 364.19> 552 65<200.147 364.19> 701 80<183 257 308 382>
VStem: 47 72<151.358 455.078> 183 74<701 781> 308 74<701 781> 446 71<151.358 455.078>
LayerCount: 2
Fore
SplineSet
183 701 m 1,0,-1
 183 781 l 1,1,-1
 257 781 l 1,2,-1
 257 701 l 1,3,-1
 183 701 l 1,0,-1
308 701 m 1,4,-1
 308 781 l 1,5,-1
 382 781 l 1,6,-1
 382 701 l 1,7,-1
 308 701 l 1,4,-1
282 617 m 128,-1,9
 394 617 394 617 455.5 537.5 c 128,-1,10
 517 458 517 458 517 303.5 c 0,11,12
 517 149 517 149 455.5 69 c 128,-1,13
 394 -11 394 -11 282 -11 c 128,-1,14
 170 -11 170 -11 108.5 69 c 128,-1,15
 47 149 47 149 47 303.5 c 0,16,17
 47 458 47 458 108.5 537.5 c 128,-1,8
 170 617 170 617 282 617 c 128,-1,9
282 552 m 128,-1,19
 205 552 205 552 162 495.5 c 128,-1,20
 119 439 119 439 119 325 c 2,21,-1
 119 281 l 2,22,23
 119 167 119 167 162 110 c 128,-1,24
 205 53 205 53 282 53 c 128,-1,25
 359 53 359 53 402.5 110 c 128,-1,26
 446 167 446 167 446 281 c 2,27,-1
 446 325 l 2,28,29
 446 439 446 439 402.5 495.5 c 128,-1,18
 359 552 359 552 282 552 c 128,-1,19
EndSplineSet
Position2: "'cpsp' Capital Spacing lookup 0 subtable" dx=5 dy=0 dh=10 dv=0
EndChar

StartChar: Ograve
Encoding: 210 210 77
Width: 564
GlyphClass: 2
Flags: W
HStem: -11 64<200.147 364.19> 552 65<200.147 364.19>
VStem: 47 72<151.358 455.078> 446 71<151.358 455.078>
LayerCount: 2
Fore
SplineSet
279 664 m 1,0,-1
 184 778 l 1,1,-1
 184 781 l 1,2,-1
 256 781 l 1,3,-1
 332 664 l 1,4,-1
 279 664 l 1,0,-1
282 617 m 128,-1,6
 394 617 394 617 455.5 537.5 c 128,-1,7
 517 458 517 458 517 303.5 c 0,8,9
 517 149 517 149 455.5 69 c 128,-1,10
 394 -11 394 -11 282 -11 c 128,-1,11
 170 -11 170 -11 108.5 69 c 128,-1,12
 47 149 47 149 47 303.5 c 0,13,14
 47 458 47 458 108.5 537.5 c 128,-1,5
 170 617 170 617 282 617 c 128,-1,6
282 552 m 128,-1,16
 205 552 205 552 162 495.5 c 128,-1,17
 119 439 119 439 119 325 c 2,18,-1
 119 281 l 2,19,20
 119 167 119 167 162 110 c 128,-1,21
 205 53 205 53 282 53 c 128,-1,22
 359 53 359 53 402.5 110 c 128,-1,23
 446 167 446 167 446 281 c 2,24,-1
 446 325 l 2,25,26
 446 439 446 439 402.5 495.5 c 128,-1,15
 359 552 359 552 282 552 c 128,-1,16
EndSplineSet
Position2: "'cpsp' Capital Spacing lookup 0 subtable" dx=5 dy=0 dh=10 dv=0
EndChar

StartChar: Ohungarumlaut
Encoding: 336 336 78
Width: 564
GlyphClass: 2
Flags: W
HStem: -11 64<200.147 364.19> 552 65<200.147 364.19>
VStem: 47 72<151.358 455.078> 446 71<151.358 455.078>
LayerCount: 2
Fore
SplineSet
259 664 m 1,0,-1
 202 664 l 1,1,-1
 257 781 l 1,2,-1
 332 781 l 1,3,-1
 333 778 l 1,4,-1
 259 664 l 1,0,-1
373 664 m 1,5,-1
 315 664 l 1,6,-1
 370 781 l 1,7,-1
 446 781 l 1,8,-1
 447 778 l 1,9,-1
 373 664 l 1,5,-1
282 617 m 128,-1,11
 394 617 394 617 455.5 537.5 c 128,-1,12
 517 458 517 458 517 303.5 c 0,13,14
 517 149 517 149 455.5 69 c 128,-1,15
 394 -11 394 -11 282 -11 c 128,-1,16
 170 -11 170 -11 108.5 69 c 128,-1,17
 47 149 47 149 47 303.5 c 0,18,19
 47 458 47 458 108.5 537.5 c 128,-1,10
 170 617 170 617 282 617 c 128,-1,11
282 552 m 128,-1,21
 205 552 205 552 162 495.5 c 128,-1,22
 119 439 119 439 119 325 c 2,23,-1
 119 281 l 2,24,25
 119 167 119 167 162 110 c 128,-1,26
 205 53 205 53 282 53 c 128,-1,27
 359 53 359 53 402.5 110 c 128,-1,28
 446 167 446 167 446 281 c 2,29,-1
 446 325 l 2,30,31
 446 439 446 439 402.5 495.5 c 128,-1,20
 359 552 359 552 282 552 c 128,-1,21
EndSplineSet
Position2: "'cpsp' Capital Spacing lookup 0 subtable" dx=5 dy=0 dh=10 dv=0
EndChar

StartChar: Omacron
Encoding: 332 332 79
Width: 564
GlyphClass: 2
Flags: W
HStem: -11 64<200.147 364.19> 552 65<200.147 364.19> 671 60<171 392>
VStem: 47 72<151.358 455.078> 446 71<151.358 455.078>
LayerCount: 2
Fore
SplineSet
171 731 m 1,0,-1
 392 731 l 1,1,-1
 392 671 l 1,2,-1
 171 671 l 1,3,-1
 171 731 l 1,0,-1
282 617 m 128,-1,5
 394 617 394 617 455.5 537.5 c 128,-1,6
 517 458 517 458 517 303.5 c 0,7,8
 517 149 517 149 455.5 69 c 128,-1,9
 394 -11 394 -11 282 -11 c 128,-1,10
 170 -11 170 -11 108.5 69 c 128,-1,11
 47 149 47 149 47 303.5 c 0,12,13
 47 458 47 458 108.5 537.5 c 128,-1,4
 170 617 170 617 282 617 c 128,-1,5
282 552 m 128,-1,15
 205 552 205 552 162 495.5 c 128,-1,16
 119 439 119 439 119 325 c 2,17,-1
 119 281 l 2,18,19
 119 167 119 167 162 110 c 128,-1,20
 205 53 205 53 282 53 c 128,-1,21
 359 53 359 53 402.5 110 c 128,-1,22
 446 167 446 167 446 281 c 2,23,-1
 446 325 l 2,24,25
 446 439 446 439 402.5 495.5 c 128,-1,14
 359 552 359 552 282 552 c 128,-1,15
EndSplineSet
Position2: "'cpsp' Capital Spacing lookup 0 subtable" dx=5 dy=0 dh=10 dv=0
EndChar

StartChar: Oslash
Encoding: 216 216 80
Width: 564
GlyphClass: 2
Flags: W
HStem: -11 64<199.643 363.906> 552 65<200.147 363.307> 619 20G<454.826 519>
VStem: 47 72<148.9 455.078> 445 73<151.358 454.321>
AnchorPoint: "Anchor-1" 0 0 basechar 0
AnchorPoint: "Anchor-0" 282 606 basechar 0
LayerCount: 2
Fore
SplineSet
519 639 m 1,0,-1
 454 538 l 1,1,2
 518 455 518 455 518 302 c 128,-1,3
 518 149 518 149 456 69 c 128,-1,4
 394 -11 394 -11 282 -11 c 0,5,6
 198 -11 198 -11 140 36 c 1,7,-1
 99 -33 l 1,8,-1
 47 -33 l 1,9,-1
 110 67 l 1,10,11
 47 147 47 147 47 302.5 c 128,-1,12
 47 458 47 458 108.5 537.5 c 128,-1,13
 170 617 170 617 282 617 c 0,14,15
 367 617 367 617 425 570 c 1,16,-1
 467 639 l 1,17,-1
 519 639 l 1,0,-1
388 511 m 1,18,19
 347 552 347 552 276 552 c 128,-1,20
 205 552 205 552 162 495.5 c 128,-1,21
 119 439 119 439 119 325 c 2,22,-1
 119 281 l 2,23,24
 119 185 119 185 149 131 c 1,25,-1
 388 511 l 1,18,19
415 476 m 1,26,-1
 176 93 l 1,27,28
 217 53 217 53 288 53 c 128,-1,29
 359 53 359 53 402 110 c 128,-1,30
 445 167 445 167 445 281 c 2,31,-1
 445 325 l 2,32,33
 445 420 445 420 415 476 c 1,26,-1
EndSplineSet
Position2: "'cpsp' Capital Spacing lookup 0 subtable" dx=5 dy=0 dh=10 dv=0
EndChar

StartChar: Oslashacute
Encoding: 510 510 81
Width: 564
GlyphClass: 2
Flags: W
HStem: -11 64<199.643 363.906> 552 65<200.147 363.307> 619 20G<454.826 519>
VStem: 47 72<148.9 455.078> 445 73<151.358 454.321>
LayerCount: 2
Fore
SplineSet
286 664 m 1,0,-1
 233 664 l 1,1,-1
 309 781 l 1,2,-1
 380 781 l 1,3,-1
 381 778 l 1,4,-1
 286 664 l 1,0,-1
519 639 m 1,5,-1
 454 538 l 1,6,7
 518 455 518 455 518 302 c 128,-1,8
 518 149 518 149 456 69 c 128,-1,9
 394 -11 394 -11 282 -11 c 0,10,11
 198 -11 198 -11 140 36 c 1,12,-1
 99 -33 l 1,13,-1
 47 -33 l 1,14,-1
 110 67 l 1,15,16
 47 147 47 147 47 302.5 c 128,-1,17
 47 458 47 458 108.5 537.5 c 128,-1,18
 170 617 170 617 282 617 c 0,19,20
 367 617 367 617 425 570 c 1,21,-1
 467 639 l 1,22,-1
 519 639 l 1,5,-1
388 511 m 1,23,24
 347 552 347 552 276 552 c 128,-1,25
 205 552 205 552 162 495.5 c 128,-1,26
 119 439 119 439 119 325 c 2,27,-1
 119 281 l 2,28,29
 119 185 119 185 149 131 c 1,30,-1
 388 511 l 1,23,24
415 476 m 1,31,-1
 176 93 l 1,32,33
 217 53 217 53 288 53 c 128,-1,34
 359 53 359 53 402 110 c 128,-1,35
 445 167 445 167 445 281 c 2,36,-1
 445 325 l 2,37,38
 445 420 445 420 415 476 c 1,31,-1
EndSplineSet
Position2: "'cpsp' Capital Spacing lookup 0 subtable" dx=5 dy=0 dh=10 dv=0
EndChar

StartChar: Otilde
Encoding: 213 213 82
Width: 564
GlyphClass: 2
Flags: W
HStem: -11 64<200.147 364.19> 552 65<200.147 364.19> 694 62<257.577 355.844> 719 62<208.156 305.407>
VStem: 47 72<151.358 455.078> 159 48<694 717.628> 357 48<756.598 781> 446 71<151.358 455.078>
LayerCount: 2
Fore
SplineSet
357 781 m 1,0,-1
 405 781 l 1,1,2
 405 747 405 747 387 720.5 c 128,-1,3
 369 694 369 694 334 694 c 0,4,5
 315 694 315 694 284 706.5 c 128,-1,6
 253 719 253 719 236 719 c 0,7,8
 211 719 211 719 207 694 c 1,9,-1
 159 694 l 1,10,11
 159 726 159 726 177.5 753.5 c 128,-1,12
 196 781 196 781 230 781 c 0,13,14
 249 781 249 781 280 768.5 c 128,-1,15
 311 756 311 756 327 756 c 0,16,17
 353 756 353 756 357 781 c 1,0,-1
282 617 m 128,-1,19
 394 617 394 617 455.5 537.5 c 128,-1,20
 517 458 517 458 517 303.5 c 0,21,22
 517 149 517 149 455.5 69 c 128,-1,23
 394 -11 394 -11 282 -11 c 128,-1,24
 170 -11 170 -11 108.5 69 c 128,-1,25
 47 149 47 149 47 303.5 c 0,26,27
 47 458 47 458 108.5 537.5 c 128,-1,18
 170 617 170 617 282 617 c 128,-1,19
282 552 m 128,-1,29
 205 552 205 552 162 495.5 c 128,-1,30
 119 439 119 439 119 325 c 2,31,-1
 119 281 l 2,32,33
 119 167 119 167 162 110 c 128,-1,34
 205 53 205 53 282 53 c 128,-1,35
 359 53 359 53 402.5 110 c 128,-1,36
 446 167 446 167 446 281 c 2,37,-1
 446 325 l 2,38,39
 446 439 446 439 402.5 495.5 c 128,-1,28
 359 552 359 552 282 552 c 128,-1,29
EndSplineSet
Position2: "'cpsp' Capital Spacing lookup 0 subtable" dx=5 dy=0 dh=10 dv=0
EndChar

StartChar: OE
Encoding: 338 338 83
Width: 725
GlyphClass: 2
Flags: W
HStem: -11 64<186.45 313.155> 0 62<447 691> 279 63<447 646> 545 61<447 687> 552 65<186.45 313.155>
VStem: 48 72<138.1 462.057> 381 66<142.502 279 342 463.182 544 545>
AnchorPoint: "Anchor-1" 0 0 basechar 0
AnchorPoint: "Anchor-0" 362 606 basechar 0
LayerCount: 2
Fore
SplineSet
99.5 537.5 m 128,-1,1
 151 617 151 617 241 617 c 128,-1,2
 331 617 331 617 381 544 c 1,3,-1
 381 606 l 1,4,-1
 687 606 l 1,5,-1
 687 545 l 1,6,-1
 447 545 l 1,7,-1
 447 342 l 1,8,-1
 646 342 l 1,9,-1
 646 279 l 1,10,-1
 447 279 l 1,11,-1
 447 62 l 1,12,-1
 691 62 l 1,13,-1
 691 0 l 1,14,-1
 381 0 l 1,15,-1
 381 62 l 1,16,17
 332 -11 332 -11 241.5 -11 c 128,-1,18
 151 -11 151 -11 99.5 68.5 c 128,-1,19
 48 148 48 148 48 303 c 128,-1,0
 48 458 48 458 99.5 537.5 c 128,-1,1
250 552 m 128,-1,21
 189 552 189 552 154.5 494 c 128,-1,22
 120 436 120 436 120 325 c 2,23,-1
 120 281 l 2,24,25
 120 170 120 170 154.5 111.5 c 128,-1,26
 189 53 189 53 250 53 c 128,-1,27
 311 53 311 53 346 111.5 c 128,-1,28
 381 170 381 170 381 281 c 2,29,-1
 381 325 l 2,30,31
 381 436 381 436 346 494 c 128,-1,20
 311 552 311 552 250 552 c 128,-1,21
EndSplineSet
Position2: "'cpsp' Capital Spacing lookup 0 subtable" dx=5 dy=0 dh=10 dv=0
EndChar

StartChar: P
Encoding: 80 80 84
Width: 484
GlyphClass: 2
Flags: W
HStem: 0 21G<65 133> 254 63<133 347.128> 545 61<132 349.276>
VStem: 65 68<0 254 317 545> 388 72<359.285 506.81>
LayerCount: 2
Fore
SplineSet
65 0 m 1,0,-1
 65 606 l 1,1,-1
 281 606 l 2,2,3
 368 606 368 606 414 559 c 128,-1,4
 460 512 460 512 460 432 c 128,-1,5
 460 352 460 352 412 303 c 128,-1,6
 364 254 364 254 281 254 c 2,7,-1
 133 254 l 1,8,-1
 133 0 l 1,9,-1
 65 0 l 1,0,-1
132 317 m 1,10,-1
 281 317 l 2,11,12
 329 317 329 317 358.5 348.5 c 128,-1,13
 388 380 388 380 388 432 c 128,-1,14
 388 484 388 484 360 514.5 c 128,-1,15
 332 545 332 545 281 545 c 2,16,-1
 132 545 l 1,17,-1
 132 317 l 1,10,-1
EndSplineSet
Position2: "'cpsp' Capital Spacing lookup 0 subtable" dx=5 dy=0 dh=10 dv=0
EndChar

StartChar: Thorn
Encoding: 222 222 85
Width: 484
GlyphClass: 2
Flags: W
HStem: 0 21G<65 133> 131 62<133 347.128> 420 62<133 350.213> 586 20G<65 133>
VStem: 65 68<0 131 193 420 482 606> 388 72<234.845 382.742>
LayerCount: 2
Fore
SplineSet
133 482 m 1,0,-1
 281 482 l 2,1,2
 368 482 368 482 414 435 c 128,-1,3
 460 388 460 388 460 307.5 c 0,4,5
 460 227 460 227 412 179 c 128,-1,6
 364 131 364 131 281 131 c 2,7,-1
 133 131 l 1,8,-1
 133 0 l 1,9,-1
 65 0 l 1,10,-1
 65 606 l 1,11,-1
 133 606 l 1,12,-1
 133 482 l 1,0,-1
132 193 m 1,13,-1
 281 193 l 2,14,15
 329 193 329 193 358.5 224.5 c 128,-1,16
 388 256 388 256 388 308.5 c 0,17,18
 388 361 388 361 360 390.5 c 128,-1,19
 332 420 332 420 281 420 c 2,20,-1
 132 420 l 1,21,-1
 132 193 l 1,13,-1
EndSplineSet
Position2: "'cpsp' Capital Spacing lookup 0 subtable" dx=5 dy=0 dh=10 dv=0
EndChar

StartChar: Q
Encoding: 81 81 86
Width: 564
GlyphClass: 2
Flags: W
HStem: -11 64<200.326 293> 552 65<200.147 364.19>
VStem: 47 72<151.358 455.078> 446 71<150.984 455.078>
LayerCount: 2
Fore
SplineSet
108.5 69 m 128,-1,1
 47 149 47 149 47 303.5 c 128,-1,2
 47 458 47 458 108.5 537.5 c 128,-1,3
 170 617 170 617 282 617 c 128,-1,4
 394 617 394 617 455.5 537.5 c 128,-1,5
 517 458 517 458 517 303 c 0,6,7
 517 60 517 60 370 3 c 1,8,-1
 497 -110 l 1,9,-1
 403 -110 l 1,10,-1
 293 -11 l 1,11,-1
 282 -11 l 2,12,0
 170 -11 170 -11 108.5 69 c 128,-1,1
119 325 m 2,13,-1
 119 281 l 2,14,15
 119 167 119 167 162 110 c 128,-1,16
 205 53 205 53 282 53 c 128,-1,17
 359 53 359 53 402.5 110 c 128,-1,18
 446 167 446 167 446 281 c 2,19,-1
 446 325 l 2,20,21
 446 439 446 439 402.5 495.5 c 128,-1,22
 359 552 359 552 282 552 c 128,-1,23
 205 552 205 552 162 495.5 c 128,-1,24
 119 439 119 439 119 325 c 2,13,-1
EndSplineSet
Position2: "'cpsp' Capital Spacing lookup 0 subtable" dx=5 dy=0 dh=10 dv=0
EndChar

StartChar: R
Encoding: 82 82 87
Width: 523
GlyphClass: 2
Flags: W
HStem: 0 21G<65 133 415.471 500> 272 63<133 308> 545 61<132 379.633>
VStem: 65 68<0 272 335 545> 416 70<374.516 507.439>
AnchorPoint: "Anchor-1" 262 0 basechar 0
AnchorPoint: "Anchor-0" 262 606 basechar 0
LayerCount: 2
Fore
SplineSet
65 606 m 1,0,-1
 306 606 l 2,1,2
 393 606 393 606 439.5 561 c 128,-1,3
 486 516 486 516 486 439 c 0,4,5
 486 383 486 383 457 341.5 c 128,-1,6
 428 300 428 300 376 283 c 1,7,-1
 500 0 l 1,8,-1
 424 0 l 1,9,-1
 308 272 l 1,10,-1
 133 272 l 1,11,-1
 133 0 l 1,12,-1
 65 0 l 1,13,-1
 65 606 l 1,0,-1
132 335 m 1,14,-1
 306 335 l 2,15,16
 354 335 354 335 385 364 c 128,-1,17
 416 393 416 393 416 441 c 0,18,19
 416 489 416 489 387 517 c 128,-1,20
 358 545 358 545 305 545 c 2,21,-1
 132 545 l 1,22,-1
 132 335 l 1,14,-1
EndSplineSet
Position2: "'cpsp' Capital Spacing lookup 0 subtable" dx=5 dy=0 dh=10 dv=0
EndChar

StartChar: Racute
Encoding: 340 340 88
Width: 523
GlyphClass: 2
Flags: W
HStem: 0 21G<65 133 415.471 500> 272 63<133 308> 545 61<132 379.633>
VStem: 65 68<0 272 335 545> 416 70<374.516 507.439>
LayerCount: 2
Fore
SplineSet
240 664 m 1,0,-1
 185 664 l 1,1,-1
 261 781 l 1,2,-1
 333 781 l 1,3,-1
 334 778 l 1,4,-1
 240 664 l 1,0,-1
65 606 m 1,5,-1
 306 606 l 2,6,7
 393 606 393 606 439.5 561 c 128,-1,8
 486 516 486 516 486 439 c 0,9,10
 486 383 486 383 457 341.5 c 128,-1,11
 428 300 428 300 376 283 c 1,12,-1
 500 0 l 1,13,-1
 424 0 l 1,14,-1
 308 272 l 1,15,-1
 133 272 l 1,16,-1
 133 0 l 1,17,-1
 65 0 l 1,18,-1
 65 606 l 1,5,-1
132 335 m 1,19,-1
 306 335 l 2,20,21
 354 335 354 335 385 364 c 128,-1,22
 416 393 416 393 416 441 c 0,23,24
 416 489 416 489 387 517 c 128,-1,25
 358 545 358 545 305 545 c 2,26,-1
 132 545 l 1,27,-1
 132 335 l 1,19,-1
EndSplineSet
Position2: "'cpsp' Capital Spacing lookup 0 subtable" dx=5 dy=0 dh=10 dv=0
EndChar

StartChar: Rcaron
Encoding: 344 344 89
Width: 523
GlyphClass: 2
Flags: W
HStem: 0 21G<65 133 415.471 500> 272 63<133 308> 545 61<132 379.633>
VStem: 65 68<0 272 335 545> 416 70<374.516 507.439>
LayerCount: 2
Fore
SplineSet
228 661 m 1,0,-1
 153 781 l 1,1,-1
 222 781 l 1,2,-1
 262 708 l 1,3,-1
 301 781 l 1,4,-1
 369 781 l 1,5,-1
 291 661 l 1,6,-1
 228 661 l 1,0,-1
65 606 m 1,7,-1
 306 606 l 2,8,9
 393 606 393 606 439.5 561 c 128,-1,10
 486 516 486 516 486 439 c 0,11,12
 486 383 486 383 457 341.5 c 128,-1,13
 428 300 428 300 376 283 c 1,14,-1
 500 0 l 1,15,-1
 424 0 l 1,16,-1
 308 272 l 1,17,-1
 133 272 l 1,18,-1
 133 0 l 1,19,-1
 65 0 l 1,20,-1
 65 606 l 1,7,-1
132 335 m 1,21,-1
 306 335 l 2,22,23
 354 335 354 335 385 364 c 128,-1,24
 416 393 416 393 416 441 c 0,25,26
 416 489 416 489 387 517 c 128,-1,27
 358 545 358 545 305 545 c 2,28,-1
 132 545 l 1,29,-1
 132 335 l 1,21,-1
EndSplineSet
Position2: "'cpsp' Capital Spacing lookup 0 subtable" dx=5 dy=0 dh=10 dv=0
EndChar

StartChar: Rcommaaccent
Encoding: 342 342 90
Width: 523
GlyphClass: 2
Flags: W
HStem: -126 72<229 256> 0 21G<65 133 415.471 500> 272 63<133 308> 545 61<132 379.633>
VStem: 65 68<0 272 335 545> 229 66<-121 -54> 416 70<374.516 507.439>
LayerCount: 2
Fore
SplineSet
65 606 m 1,0,-1
 306 606 l 2,1,2
 393 606 393 606 439.5 561 c 128,-1,3
 486 516 486 516 486 439 c 0,4,5
 486 383 486 383 457 341.5 c 128,-1,6
 428 300 428 300 376 283 c 1,7,-1
 500 0 l 1,8,-1
 424 0 l 1,9,-1
 308 272 l 1,10,-1
 133 272 l 1,11,-1
 133 0 l 1,12,-1
 65 0 l 1,13,-1
 65 606 l 1,0,-1
132 335 m 1,14,-1
 306 335 l 2,15,16
 354 335 354 335 385 364 c 128,-1,17
 416 393 416 393 416 441 c 0,18,19
 416 489 416 489 387 517 c 128,-1,20
 358 545 358 545 305 545 c 2,21,-1
 132 545 l 1,22,-1
 132 335 l 1,14,-1
273 -185 m 1,23,-1
 238 -185 l 1,24,-1
 256 -126 l 1,25,-1
 229 -126 l 1,26,-1
 229 -54 l 1,27,-1
 295 -54 l 1,28,-1
 295 -121 l 1,29,-1
 273 -185 l 1,23,-1
EndSplineSet
Position2: "'cpsp' Capital Spacing lookup 0 subtable" dx=5 dy=0 dh=10 dv=0
EndChar

StartChar: S
Encoding: 83 83 91
Width: 484
GlyphClass: 2
Flags: W
HStem: -11 64<154.886 326.902> 552 65<157.832 319.594>
VStem: 39 70<97.4974 187> 52 72<408.375 520.592> 360 69<438 512.908> 373 72<95.8005 219.116>
AnchorPoint: "Anchor-1" 242 0 basechar 0
AnchorPoint: "Anchor-0" 242 606 basechar 0
LayerCount: 2
Fore
SplineSet
39 169 m 0,0,1
 39 173 39 173 40 187 c 1,2,-1
 110 187 l 1,3,-1
 109 167 l 1,4,5
 109 110 109 110 144 81.5 c 128,-1,6
 179 53 179 53 236 53 c 0,7,8
 373 53 373 53 373 163 c 0,9,10
 373 206 373 206 340 232 c 128,-1,11
 307 258 307 258 260 272.5 c 128,-1,12
 213 287 213 287 165.5 304 c 128,-1,13
 118 321 118 321 85 358.5 c 128,-1,14
 52 396 52 396 52 456 c 0,15,16
 52 536 52 536 104.5 576.5 c 128,-1,17
 157 617 157 617 241.5 617 c 128,-1,18
 326 617 326 617 377.5 575.5 c 128,-1,19
 429 534 429 534 429 448 c 2,20,-1
 429 438 l 1,21,-1
 360 438 l 1,22,-1
 360 453 l 2,23,24
 360 500 360 500 327 526 c 128,-1,25
 294 552 294 552 242 552 c 128,-1,26
 190 552 190 552 157 530.5 c 128,-1,27
 124 509 124 509 124 468.5 c 128,-1,28
 124 428 124 428 148 403.5 c 128,-1,29
 172 379 172 379 207.5 367 c 128,-1,30
 243 355 243 355 284.5 339.5 c 128,-1,31
 326 324 326 324 361.5 307.5 c 128,-1,32
 397 291 397 291 421 256.5 c 128,-1,33
 445 222 445 222 445 173 c 0,34,35
 445 77 445 77 390 33 c 128,-1,36
 335 -11 335 -11 243 -11 c 128,-1,37
 151 -11 151 -11 95 31.5 c 128,-1,38
 39 74 39 74 39 169 c 0,0,1
EndSplineSet
Position2: "'cpsp' Capital Spacing lookup 0 subtable" dx=5 dy=0 dh=10 dv=0
EndChar

StartChar: Sacute
Encoding: 346 346 92
Width: 484
GlyphClass: 2
Flags: W
HStem: -11 64<154.886 326.902> 552 65<157.832 319.594>
VStem: 39 70<97.4974 187> 52 72<408.375 520.592> 360 69<438 512.908> 373 72<95.8005 219.116>
LayerCount: 2
Fore
SplineSet
244 664 m 1,0,-1
 191 664 l 1,1,-1
 267 781 l 1,2,-1
 339 781 l 1,3,-1
 340 778 l 1,4,-1
 244 664 l 1,0,-1
39 169 m 0,5,6
 39 173 39 173 40 187 c 1,7,-1
 110 187 l 1,8,-1
 109 167 l 1,9,10
 109 110 109 110 144 81.5 c 128,-1,11
 179 53 179 53 236 53 c 0,12,13
 373 53 373 53 373 163 c 0,14,15
 373 206 373 206 340 232 c 128,-1,16
 307 258 307 258 260 272.5 c 128,-1,17
 213 287 213 287 165.5 304 c 128,-1,18
 118 321 118 321 85 358.5 c 128,-1,19
 52 396 52 396 52 456 c 0,20,21
 52 536 52 536 104.5 576.5 c 128,-1,22
 157 617 157 617 241.5 617 c 128,-1,23
 326 617 326 617 377.5 575.5 c 128,-1,24
 429 534 429 534 429 448 c 2,25,-1
 429 438 l 1,26,-1
 360 438 l 1,27,-1
 360 453 l 2,28,29
 360 500 360 500 327 526 c 128,-1,30
 294 552 294 552 242 552 c 128,-1,31
 190 552 190 552 157 530.5 c 128,-1,32
 124 509 124 509 124 468.5 c 128,-1,33
 124 428 124 428 148 403.5 c 128,-1,34
 172 379 172 379 207.5 367 c 128,-1,35
 243 355 243 355 284.5 339.5 c 128,-1,36
 326 324 326 324 361.5 307.5 c 128,-1,37
 397 291 397 291 421 256.5 c 128,-1,38
 445 222 445 222 445 173 c 0,39,40
 445 77 445 77 390 33 c 128,-1,41
 335 -11 335 -11 243 -11 c 128,-1,42
 151 -11 151 -11 95 31.5 c 128,-1,43
 39 74 39 74 39 169 c 0,5,6
EndSplineSet
Position2: "'cpsp' Capital Spacing lookup 0 subtable" dx=5 dy=0 dh=10 dv=0
EndChar

StartChar: Scaron
Encoding: 352 352 93
Width: 484
GlyphClass: 2
Flags: W
HStem: -11 64<154.886 326.902> 552 65<157.832 319.594>
VStem: 39 70<97.4974 187> 52 72<408.375 520.592> 360 69<438 512.908> 373 72<95.8005 219.116>
LayerCount: 2
Fore
SplineSet
135 781 m 1,0,-1
 202 781 l 1,1,-1
 241 708 l 1,2,-1
 281 781 l 1,3,-1
 350 781 l 1,4,-1
 273 661 l 1,5,-1
 210 661 l 1,6,-1
 135 781 l 1,0,-1
39 169 m 0,7,8
 39 173 39 173 40 187 c 1,9,-1
 110 187 l 1,10,-1
 109 167 l 1,11,12
 109 110 109 110 144 81.5 c 128,-1,13
 179 53 179 53 236 53 c 0,14,15
 373 53 373 53 373 163 c 0,16,17
 373 206 373 206 340 232 c 128,-1,18
 307 258 307 258 260 272.5 c 128,-1,19
 213 287 213 287 165.5 304 c 128,-1,20
 118 321 118 321 85 358.5 c 128,-1,21
 52 396 52 396 52 456 c 0,22,23
 52 536 52 536 104.5 576.5 c 128,-1,24
 157 617 157 617 241.5 617 c 128,-1,25
 326 617 326 617 377.5 575.5 c 128,-1,26
 429 534 429 534 429 448 c 2,27,-1
 429 438 l 1,28,-1
 360 438 l 1,29,-1
 360 453 l 2,30,31
 360 500 360 500 327 526 c 128,-1,32
 294 552 294 552 242 552 c 128,-1,33
 190 552 190 552 157 530.5 c 128,-1,34
 124 509 124 509 124 468.5 c 128,-1,35
 124 428 124 428 148 403.5 c 128,-1,36
 172 379 172 379 207.5 367 c 128,-1,37
 243 355 243 355 284.5 339.5 c 128,-1,38
 326 324 326 324 361.5 307.5 c 128,-1,39
 397 291 397 291 421 256.5 c 128,-1,40
 445 222 445 222 445 173 c 0,41,42
 445 77 445 77 390 33 c 128,-1,43
 335 -11 335 -11 243 -11 c 128,-1,44
 151 -11 151 -11 95 31.5 c 128,-1,45
 39 74 39 74 39 169 c 0,7,8
EndSplineSet
Position2: "'cpsp' Capital Spacing lookup 0 subtable" dx=5 dy=0 dh=10 dv=0
EndChar

StartChar: Scedilla
Encoding: 350 350 94
Width: 484
GlyphClass: 2
Flags: W
HStem: -161 50<160.989 259.177> -154 43<160 232.826> -9 62<155.058 211 255 326.756> 552 65<157.832 319.594>
VStem: 39 70<99.2047 187> 52 72<408.375 520.592> 260 65<-109.873 -68.7826> 360 69<438 512.908> 373 72<94.8575 219.116>
LayerCount: 2
Fore
SplineSet
39 169 m 0,0,1
 39 173 39 173 40 187 c 1,2,-1
 110 187 l 1,3,-1
 109 167 l 1,4,5
 109 110 109 110 144 81.5 c 128,-1,6
 179 53 179 53 236 53 c 0,7,8
 373 53 373 53 373 163 c 0,9,10
 373 206 373 206 340 232 c 128,-1,11
 307 258 307 258 260 272.5 c 128,-1,12
 213 287 213 287 165.5 304 c 128,-1,13
 118 321 118 321 85 358.5 c 128,-1,14
 52 396 52 396 52 456 c 0,15,16
 52 536 52 536 104.5 576.5 c 128,-1,17
 157 617 157 617 241.5 617 c 128,-1,18
 326 617 326 617 377.5 575.5 c 128,-1,19
 429 534 429 534 429 448 c 2,20,-1
 429 438 l 1,21,-1
 360 438 l 1,22,-1
 360 453 l 2,23,24
 360 500 360 500 327 526 c 128,-1,25
 294 552 294 552 242 552 c 128,-1,26
 190 552 190 552 157 530.5 c 128,-1,27
 124 509 124 509 124 468.5 c 128,-1,28
 124 428 124 428 148 403.5 c 128,-1,29
 172 379 172 379 207.5 367 c 128,-1,30
 243 355 243 355 284.5 339.5 c 128,-1,31
 326 324 326 324 361.5 307.5 c 128,-1,32
 397 291 397 291 421 256.5 c 128,-1,33
 445 222 445 222 445 173 c 0,34,35
 445 -3 445 -3 255 -10 c 1,36,-1
 253 -33 l 1,37,38
 325 -37 325 -37 325 -89 c 0,39,40
 325 -129 325 -129 297 -145 c 128,-1,41
 269 -161 269 -161 233 -161 c 128,-1,42
 197 -161 197 -161 160 -154 c 1,43,-1
 160 -111 l 1,44,-1
 228 -111 l 2,45,46
 260 -111 260 -111 260 -89.5 c 128,-1,47
 260 -68 260 -68 230 -68 c 2,48,-1
 201 -68 l 1,49,-1
 211 -9 l 1,50,51
 39 5 39 5 39 169 c 0,0,1
EndSplineSet
Substitution2: "'locl' Localized Forms in Latin lookup 5 subtable" Scommaaccent
Substitution2: "'locl' Localized Forms in Latin lookup 4 subtable" Scommaaccent
Substitution2: "'aalt' Access All Alternates lookup 0 subtable" Scommaaccent
Position2: "'cpsp' Capital Spacing lookup 0 subtable" dx=5 dy=0 dh=10 dv=0
EndChar

StartChar: Scircumflex
Encoding: 348 348 95
Width: 484
GlyphClass: 2
Flags: W
HStem: -11 64<154.886 326.902> 552 65<157.832 319.594>
VStem: 39 70<97.4974 187> 52 72<408.375 520.592> 360 69<438 512.908> 373 72<95.8005 219.116>
LayerCount: 2
Fore
SplineSet
242 732 m 1,0,-1
 202 660 l 1,1,-1
 135 660 l 1,2,-1
 211 780 l 1,3,-1
 275 780 l 1,4,-1
 350 660 l 1,5,-1
 281 660 l 1,6,-1
 242 732 l 1,0,-1
39 169 m 0,7,8
 39 173 39 173 40 187 c 1,9,-1
 110 187 l 1,10,-1
 109 167 l 1,11,12
 109 110 109 110 144 81.5 c 128,-1,13
 179 53 179 53 236 53 c 0,14,15
 373 53 373 53 373 163 c 0,16,17
 373 206 373 206 340 232 c 128,-1,18
 307 258 307 258 260 272.5 c 128,-1,19
 213 287 213 287 165.5 304 c 128,-1,20
 118 321 118 321 85 358.5 c 128,-1,21
 52 396 52 396 52 456 c 0,22,23
 52 536 52 536 104.5 576.5 c 128,-1,24
 157 617 157 617 241.5 617 c 128,-1,25
 326 617 326 617 377.5 575.5 c 128,-1,26
 429 534 429 534 429 448 c 2,27,-1
 429 438 l 1,28,-1
 360 438 l 1,29,-1
 360 453 l 2,30,31
 360 500 360 500 327 526 c 128,-1,32
 294 552 294 552 242 552 c 128,-1,33
 190 552 190 552 157 530.5 c 128,-1,34
 124 509 124 509 124 468.5 c 128,-1,35
 124 428 124 428 148 403.5 c 128,-1,36
 172 379 172 379 207.5 367 c 128,-1,37
 243 355 243 355 284.5 339.5 c 128,-1,38
 326 324 326 324 361.5 307.5 c 128,-1,39
 397 291 397 291 421 256.5 c 128,-1,40
 445 222 445 222 445 173 c 0,41,42
 445 77 445 77 390 33 c 128,-1,43
 335 -11 335 -11 243 -11 c 128,-1,44
 151 -11 151 -11 95 31.5 c 128,-1,45
 39 74 39 74 39 169 c 0,7,8
EndSplineSet
Position2: "'cpsp' Capital Spacing lookup 0 subtable" dx=5 dy=0 dh=10 dv=0
EndChar

StartChar: Scommaaccent
Encoding: 536 536 96
Width: 484
GlyphClass: 2
Flags: W
HStem: -126 72<209 235> -11 64<154.886 326.902> 552 65<157.832 319.594>
VStem: 39 70<97.4974 187> 52 72<408.375 520.592> 209 65<-121 -54> 360 69<438 512.908> 373 72<95.8005 219.116>
AnchorPoint: "Anchor-1" 242 0 basechar 0
AnchorPoint: "Anchor-0" 242 606 basechar 0
LayerCount: 2
Fore
SplineSet
39 169 m 0,0,1
 39 173 39 173 40 187 c 1,2,-1
 110 187 l 1,3,-1
 109 167 l 1,4,5
 109 110 109 110 144 81.5 c 128,-1,6
 179 53 179 53 236 53 c 0,7,8
 373 53 373 53 373 163 c 0,9,10
 373 206 373 206 340 232 c 128,-1,11
 307 258 307 258 260 272.5 c 128,-1,12
 213 287 213 287 165.5 304 c 128,-1,13
 118 321 118 321 85 358.5 c 128,-1,14
 52 396 52 396 52 456 c 0,15,16
 52 536 52 536 104.5 576.5 c 128,-1,17
 157 617 157 617 241.5 617 c 128,-1,18
 326 617 326 617 377.5 575.5 c 128,-1,19
 429 534 429 534 429 448 c 2,20,-1
 429 438 l 1,21,-1
 360 438 l 1,22,-1
 360 453 l 2,23,24
 360 500 360 500 327 526 c 128,-1,25
 294 552 294 552 242 552 c 128,-1,26
 190 552 190 552 157 530.5 c 128,-1,27
 124 509 124 509 124 468.5 c 128,-1,28
 124 428 124 428 148 403.5 c 128,-1,29
 172 379 172 379 207.5 367 c 128,-1,30
 243 355 243 355 284.5 339.5 c 128,-1,31
 326 324 326 324 361.5 307.5 c 128,-1,32
 397 291 397 291 421 256.5 c 128,-1,33
 445 222 445 222 445 173 c 0,34,35
 445 77 445 77 390 33 c 128,-1,36
 335 -11 335 -11 243 -11 c 128,-1,37
 151 -11 151 -11 95 31.5 c 128,-1,38
 39 74 39 74 39 169 c 0,0,1
217 -185 m 1,39,-1
 235 -126 l 1,40,-1
 209 -126 l 1,41,-1
 209 -54 l 1,42,-1
 274 -54 l 1,43,-1
 274 -121 l 1,44,-1
 252 -185 l 1,45,-1
 217 -185 l 1,39,-1
EndSplineSet
Position2: "'cpsp' Capital Spacing lookup 0 subtable" dx=5 dy=0 dh=10 dv=0
EndChar

StartChar: T
Encoding: 84 84 97
Width: 443
GlyphClass: 2
Flags: W
HStem: 0 21G<187 255> 545 61<18 187 255 424>
VStem: 187 68<0 545>
AnchorPoint: "Anchor-1" 222 0 basechar 0
AnchorPoint: "Anchor-0" 222 606 basechar 0
LayerCount: 2
Fore
SplineSet
255 545 m 1,0,-1
 255 0 l 1,1,-1
 187 0 l 1,2,-1
 187 545 l 1,3,-1
 18 545 l 1,4,-1
 18 606 l 1,5,-1
 424 606 l 1,6,-1
 424 545 l 1,7,-1
 255 545 l 1,0,-1
EndSplineSet
Position2: "'cpsp' Capital Spacing lookup 0 subtable" dx=5 dy=0 dh=10 dv=0
EndChar

StartChar: Tbar
Encoding: 358 358 98
Width: 443
GlyphClass: 2
Flags: W
HStem: 0 21G<187 255> 287 60<69 187 255 376> 545 61<18 187 255 424>
VStem: 187 68<0 287 347 545>
LayerCount: 2
Fore
SplineSet
255 545 m 1,0,-1
 255 347 l 1,1,-1
 376 347 l 1,2,-1
 376 287 l 1,3,-1
 255 287 l 1,4,-1
 255 0 l 1,5,-1
 187 0 l 1,6,-1
 187 287 l 1,7,-1
 69 287 l 1,8,-1
 69 347 l 1,9,-1
 187 347 l 1,10,-1
 187 545 l 1,11,-1
 18 545 l 1,12,-1
 18 606 l 1,13,-1
 424 606 l 1,14,-1
 424 545 l 1,15,-1
 255 545 l 1,0,-1
EndSplineSet
Position2: "'cpsp' Capital Spacing lookup 0 subtable" dx=5 dy=0 dh=10 dv=0
EndChar

StartChar: Tcaron
Encoding: 356 356 99
Width: 443
GlyphClass: 2
Flags: W
HStem: 0 21G<187 255> 545 61<18 187 255 424>
VStem: 187 68<0 545>
LayerCount: 2
Fore
SplineSet
189 661 m 1,0,-1
 113 781 l 1,1,-1
 182 781 l 1,2,-1
 220 708 l 1,3,-1
 261 781 l 1,4,-1
 328 781 l 1,5,-1
 252 661 l 1,6,-1
 189 661 l 1,0,-1
255 545 m 1,7,-1
 255 0 l 1,8,-1
 187 0 l 1,9,-1
 187 545 l 1,10,-1
 18 545 l 1,11,-1
 18 606 l 1,12,-1
 424 606 l 1,13,-1
 424 545 l 1,14,-1
 255 545 l 1,7,-1
EndSplineSet
Position2: "'cpsp' Capital Spacing lookup 0 subtable" dx=5 dy=0 dh=10 dv=0
EndChar

StartChar: Tcedilla
Encoding: 354 354 100
Width: 443
GlyphClass: 2
Flags: W
HStem: -161 50<140.989 239.177> -154 43<140 212.826> 545 61<18 187 255 424>
VStem: 187 68<0 545> 192 40<-35.1658 0> 240 65<-109.873 -68.7826>
AnchorPoint: "Anchor-1" 222 0 basechar 0
AnchorPoint: "Anchor-0" 222 606 basechar 0
LayerCount: 2
Fore
SplineSet
238 0 m 1,0,-1
 232 -33 l 1,1,2
 305 -37 305 -37 305 -89 c 0,3,4
 305 -129 305 -129 277 -145 c 128,-1,5
 249 -161 249 -161 213 -161 c 0,6,7
 177 -161 177 -161 140 -154 c 1,8,-1
 140 -111 l 1,9,-1
 208 -111 l 2,10,11
 240 -111 240 -111 240 -89.5 c 0,12,13
 240 -68 240 -68 210 -68 c 2,14,-1
 181 -68 l 1,15,-1
 192 0 l 1,16,-1
 187 0 l 1,17,-1
 187 545 l 1,18,-1
 18 545 l 1,19,-1
 18 606 l 1,20,-1
 424 606 l 1,21,-1
 424 545 l 1,22,-1
 255 545 l 1,23,-1
 255 0 l 1,24,-1
 238 0 l 1,0,-1
EndSplineSet
Substitution2: "'locl' Localized Forms in Latin lookup 5 subtable" Tcommaaccent
Substitution2: "'locl' Localized Forms in Latin lookup 4 subtable" Tcommaaccent
Substitution2: "'aalt' Access All Alternates lookup 0 subtable" Tcommaaccent
Position2: "'cpsp' Capital Spacing lookup 0 subtable" dx=5 dy=0 dh=10 dv=0
EndChar

StartChar: Tcommaaccent
Encoding: 538 538 101
Width: 443
GlyphClass: 2
Flags: W
HStem: -126 72<189 215> 0 21G<187 255> 545 61<18 187 255 424>
VStem: 187 68<-121 -54 0 545>
LayerCount: 2
Fore
SplineSet
255 545 m 1,0,-1
 255 0 l 1,1,-1
 187 0 l 1,2,-1
 187 545 l 1,3,-1
 18 545 l 1,4,-1
 18 606 l 1,5,-1
 424 606 l 1,6,-1
 424 545 l 1,7,-1
 255 545 l 1,0,-1
232 -185 m 1,8,-1
 198 -185 l 1,9,-1
 215 -126 l 1,10,-1
 189 -126 l 1,11,-1
 189 -54 l 1,12,-1
 254 -54 l 1,13,-1
 254 -121 l 1,14,-1
 232 -185 l 1,8,-1
EndSplineSet
Position2: "'cpsp' Capital Spacing lookup 0 subtable" dx=5 dy=0 dh=10 dv=0
EndChar

StartChar: U
Encoding: 85 85 102
Width: 523
GlyphClass: 2
Flags: W
HStem: -11 64<184.316 338.913> 586 20G<64 132 392 458>
VStem: 64 68<108.391 606> 392 66<108.391 606>
AnchorPoint: "Anchor-1" 0 0 basechar 0
AnchorPoint: "Anchor-0" 262 606 basechar 0
LayerCount: 2
Fore
SplineSet
458 606 m 1,0,-1
 458 199 l 2,1,2
 458 97 458 97 406.5 43 c 128,-1,3
 355 -11 355 -11 261.5 -11 c 0,4,5
 168 -11 168 -11 116 43 c 128,-1,6
 64 97 64 97 64 199 c 2,7,-1
 64 606 l 1,8,-1
 132 606 l 1,9,-1
 132 193 l 2,10,11
 132 125 132 125 166.5 89 c 128,-1,12
 201 53 201 53 262 53 c 128,-1,13
 323 53 323 53 357.5 89.5 c 128,-1,14
 392 126 392 126 392 193 c 2,15,-1
 392 606 l 1,16,-1
 458 606 l 1,0,-1
EndSplineSet
Position2: "'cpsp' Capital Spacing lookup 0 subtable" dx=5 dy=0 dh=10 dv=0
EndChar

StartChar: Uacute
Encoding: 218 218 103
Width: 523
GlyphClass: 2
Flags: W
HStem: -11 64<184.316 338.913> 586 20G<64 132 392 458>
VStem: 64 68<108.391 606> 392 66<108.391 606>
LayerCount: 2
Fore
SplineSet
266 664 m 1,0,-1
 211 664 l 1,1,-1
 287 781 l 1,2,-1
 358 781 l 1,3,-1
 359 778 l 1,4,-1
 266 664 l 1,0,-1
458 606 m 1,5,-1
 458 199 l 2,6,7
 458 97 458 97 406.5 43 c 128,-1,8
 355 -11 355 -11 261.5 -11 c 0,9,10
 168 -11 168 -11 116 43 c 128,-1,11
 64 97 64 97 64 199 c 2,12,-1
 64 606 l 1,13,-1
 132 606 l 1,14,-1
 132 193 l 2,15,16
 132 125 132 125 166.5 89 c 128,-1,17
 201 53 201 53 262 53 c 128,-1,18
 323 53 323 53 357.5 89.5 c 128,-1,19
 392 126 392 126 392 193 c 2,20,-1
 392 606 l 1,21,-1
 458 606 l 1,5,-1
EndSplineSet
Position2: "'cpsp' Capital Spacing lookup 0 subtable" dx=5 dy=0 dh=10 dv=0
EndChar

StartChar: Ubreve
Encoding: 364 364 104
Width: 523
GlyphClass: 2
Flags: W
HStem: -11 64<184.316 338.913> 586 20G<64 132 392 458> 698 53<213.887 311.36>
VStem: 64 68<108.391 606> 154 56<758.858 781> 315 53<758.858 781> 392 66<108.391 606>
LayerCount: 2
Fore
SplineSet
315 781 m 1,0,-1
 368 781 l 1,1,2
 368 749 368 749 338.5 723.5 c 128,-1,3
 309 698 309 698 261.5 698 c 0,4,5
 214 698 214 698 184 723.5 c 128,-1,6
 154 749 154 749 154 781 c 1,7,-1
 210 781 l 1,8,9
 212 770 212 770 226.5 760.5 c 128,-1,10
 241 751 241 751 262 751 c 128,-1,11
 283 751 283 751 298 760.5 c 128,-1,12
 313 770 313 770 315 781 c 1,0,-1
458 606 m 1,13,-1
 458 199 l 2,14,15
 458 97 458 97 406.5 43 c 128,-1,16
 355 -11 355 -11 261.5 -11 c 0,17,18
 168 -11 168 -11 116 43 c 128,-1,19
 64 97 64 97 64 199 c 2,20,-1
 64 606 l 1,21,-1
 132 606 l 1,22,-1
 132 193 l 2,23,24
 132 125 132 125 166.5 89 c 128,-1,25
 201 53 201 53 262 53 c 128,-1,26
 323 53 323 53 357.5 89.5 c 128,-1,27
 392 126 392 126 392 193 c 2,28,-1
 392 606 l 1,29,-1
 458 606 l 1,13,-1
EndSplineSet
Position2: "'cpsp' Capital Spacing lookup 0 subtable" dx=5 dy=0 dh=10 dv=0
EndChar

StartChar: Ucircumflex
Encoding: 219 219 105
Width: 523
GlyphClass: 2
Flags: W
HStem: -11 64<184.316 338.913> 586 20G<64 132 392 458>
VStem: 64 68<108.391 606> 392 66<108.391 606>
LayerCount: 2
Fore
SplineSet
301 660 m 1,0,-1
 263 732 l 1,1,-1
 222 660 l 1,2,-1
 153 660 l 1,3,-1
 229 780 l 1,4,-1
 293 780 l 1,5,-1
 369 660 l 1,6,-1
 301 660 l 1,0,-1
458 606 m 1,7,-1
 458 199 l 2,8,9
 458 97 458 97 406.5 43 c 128,-1,10
 355 -11 355 -11 261.5 -11 c 0,11,12
 168 -11 168 -11 116 43 c 128,-1,13
 64 97 64 97 64 199 c 2,14,-1
 64 606 l 1,15,-1
 132 606 l 1,16,-1
 132 193 l 2,17,18
 132 125 132 125 166.5 89 c 128,-1,19
 201 53 201 53 262 53 c 128,-1,20
 323 53 323 53 357.5 89.5 c 128,-1,21
 392 126 392 126 392 193 c 2,22,-1
 392 606 l 1,23,-1
 458 606 l 1,7,-1
EndSplineSet
Position2: "'cpsp' Capital Spacing lookup 0 subtable" dx=5 dy=0 dh=10 dv=0
EndChar

StartChar: Udieresis
Encoding: 220 220 106
Width: 523
GlyphClass: 2
Flags: W
HStem: -11 64<184.316 338.913> 586 20G<64 132 392 458> 701 80<160 234 288 362>
VStem: 64 68<108.391 606> 160 74<701 781> 288 74<701 781> 392 66<108.391 606>
LayerCount: 2
Fore
SplineSet
160 701 m 1,0,-1
 160 781 l 1,1,-1
 234 781 l 1,2,-1
 234 701 l 1,3,-1
 160 701 l 1,0,-1
288 701 m 1,4,-1
 288 781 l 1,5,-1
 362 781 l 1,6,-1
 362 701 l 1,7,-1
 288 701 l 1,4,-1
458 606 m 1,8,-1
 458 199 l 2,9,10
 458 97 458 97 406.5 43 c 128,-1,11
 355 -11 355 -11 261.5 -11 c 0,12,13
 168 -11 168 -11 116 43 c 128,-1,14
 64 97 64 97 64 199 c 2,15,-1
 64 606 l 1,16,-1
 132 606 l 1,17,-1
 132 193 l 2,18,19
 132 125 132 125 166.5 89 c 128,-1,20
 201 53 201 53 262 53 c 128,-1,21
 323 53 323 53 357.5 89.5 c 128,-1,22
 392 126 392 126 392 193 c 2,23,-1
 392 606 l 1,24,-1
 458 606 l 1,8,-1
EndSplineSet
Position2: "'cpsp' Capital Spacing lookup 0 subtable" dx=5 dy=0 dh=10 dv=0
EndChar

StartChar: Ugrave
Encoding: 217 217 107
Width: 523
GlyphClass: 2
Flags: W
HStem: -11 64<184.316 338.913> 586 20G<64 132 392 458>
VStem: 64 68<108.391 606> 392 66<108.391 606>
LayerCount: 2
Fore
SplineSet
260 664 m 1,0,-1
 162 778 l 1,1,-1
 163 781 l 1,2,-1
 237 781 l 1,3,-1
 311 664 l 1,4,-1
 260 664 l 1,0,-1
458 606 m 1,5,-1
 458 199 l 2,6,7
 458 97 458 97 406.5 43 c 128,-1,8
 355 -11 355 -11 261.5 -11 c 0,9,10
 168 -11 168 -11 116 43 c 128,-1,11
 64 97 64 97 64 199 c 2,12,-1
 64 606 l 1,13,-1
 132 606 l 1,14,-1
 132 193 l 2,15,16
 132 125 132 125 166.5 89 c 128,-1,17
 201 53 201 53 262 53 c 128,-1,18
 323 53 323 53 357.5 89.5 c 128,-1,19
 392 126 392 126 392 193 c 2,20,-1
 392 606 l 1,21,-1
 458 606 l 1,5,-1
EndSplineSet
Position2: "'cpsp' Capital Spacing lookup 0 subtable" dx=5 dy=0 dh=10 dv=0
EndChar

StartChar: Uhungarumlaut
Encoding: 368 368 108
Width: 523
GlyphClass: 2
Flags: W
HStem: -11 64<184.316 338.913> 586 20G<64 132 392 458>
VStem: 64 68<108.391 606> 392 66<108.391 606>
LayerCount: 2
Fore
SplineSet
239 664 m 1,0,-1
 181 664 l 1,1,-1
 236 781 l 1,2,-1
 312 781 l 1,3,-1
 313 778 l 1,4,-1
 239 664 l 1,0,-1
352 664 m 1,5,-1
 295 664 l 1,6,-1
 349 781 l 1,7,-1
 425 781 l 1,8,-1
 426 778 l 1,9,-1
 352 664 l 1,5,-1
458 606 m 1,10,-1
 458 199 l 2,11,12
 458 97 458 97 406.5 43 c 128,-1,13
 355 -11 355 -11 261.5 -11 c 0,14,15
 168 -11 168 -11 116 43 c 128,-1,16
 64 97 64 97 64 199 c 2,17,-1
 64 606 l 1,18,-1
 132 606 l 1,19,-1
 132 193 l 2,20,21
 132 125 132 125 166.5 89 c 128,-1,22
 201 53 201 53 262 53 c 128,-1,23
 323 53 323 53 357.5 89.5 c 128,-1,24
 392 126 392 126 392 193 c 2,25,-1
 392 606 l 1,26,-1
 458 606 l 1,10,-1
EndSplineSet
Position2: "'cpsp' Capital Spacing lookup 0 subtable" dx=5 dy=0 dh=10 dv=0
EndChar

StartChar: Umacron
Encoding: 362 362 109
Width: 523
GlyphClass: 2
Flags: W
HStem: -11 64<184.316 338.913> 586 20G<64 132 392 458> 671 60<152 372>
VStem: 64 68<108.391 606> 392 66<108.391 606>
LayerCount: 2
Fore
SplineSet
152 671 m 1,0,-1
 152 731 l 1,1,-1
 372 731 l 1,2,-1
 372 671 l 1,3,-1
 152 671 l 1,0,-1
458 606 m 1,4,-1
 458 199 l 2,5,6
 458 97 458 97 406.5 43 c 128,-1,7
 355 -11 355 -11 261.5 -11 c 0,8,9
 168 -11 168 -11 116 43 c 128,-1,10
 64 97 64 97 64 199 c 2,11,-1
 64 606 l 1,12,-1
 132 606 l 1,13,-1
 132 193 l 2,14,15
 132 125 132 125 166.5 89 c 128,-1,16
 201 53 201 53 262 53 c 128,-1,17
 323 53 323 53 357.5 89.5 c 128,-1,18
 392 126 392 126 392 193 c 2,19,-1
 392 606 l 1,20,-1
 458 606 l 1,4,-1
EndSplineSet
Position2: "'cpsp' Capital Spacing lookup 0 subtable" dx=5 dy=0 dh=10 dv=0
EndChar

StartChar: Uogonek
Encoding: 370 370 110
Width: 523
GlyphClass: 2
Flags: W
HStem: -160 57<330.642 395.202> -148 45<343.844 396> -11 64<183.051 284.205> 586 20G<64 132 392 458>
VStem: 64 68<107.125 606> 261 64<-98.5224 -12.5198> 392 66<106.596 606>
LayerCount: 2
Fore
SplineSet
458 606 m 1,0,-1
 458 197 l 2,1,2
 458 50 458 50 349 4 c 1,3,4
 325 -22 325 -22 325 -54 c 0,5,6
 325 -103 325 -103 367 -103 c 2,7,-1
 396 -103 l 1,8,-1
 396 -148 l 1,9,10
 367 -160 367 -160 338.5 -160 c 0,11,12
 310 -160 310 -160 285.5 -141 c 128,-1,13
 261 -122 261 -122 261 -82 c 0,14,15
 261 -42 261 -42 285 -9 c 1,16,17
 273 -11 273 -11 262 -11 c 0,18,19
 168 -11 168 -11 116 42.5 c 128,-1,20
 64 96 64 96 64 197 c 2,21,-1
 64 606 l 1,22,-1
 132 606 l 1,23,-1
 132 191 l 2,24,25
 132 124 132 124 166.5 88.5 c 128,-1,26
 201 53 201 53 262 53 c 128,-1,27
 323 53 323 53 357.5 88.5 c 128,-1,28
 392 124 392 124 392 191 c 2,29,-1
 392 606 l 1,30,-1
 458 606 l 1,0,-1
EndSplineSet
Position2: "'cpsp' Capital Spacing lookup 0 subtable" dx=5 dy=0 dh=10 dv=0
EndChar

StartChar: Uring
Encoding: 366 366 111
Width: 523
GlyphClass: 2
Flags: W
HStem: -11 64<184.316 338.913> 586 20G<64 132 392 458> 640 38<225.409 299.128> 771 39<225.191 299.128>
VStem: 64 68<108.391 606> 177 39<687.507 761.809> 309 38<688.068 761.252> 392 66<108.391 606>
LayerCount: 2
Fore
SplineSet
262 810 m 128,-1,1
 297 810 297 810 322 785 c 128,-1,2
 347 760 347 760 347 725 c 128,-1,3
 347 690 347 690 322 665 c 128,-1,4
 297 640 297 640 262 640 c 128,-1,5
 227 640 227 640 202 664.5 c 128,-1,6
 177 689 177 689 177 724.5 c 0,7,8
 177 760 177 760 202 785 c 128,-1,0
 227 810 227 810 262 810 c 128,-1,1
262 771 m 128,-1,10
 243 771 243 771 229.5 757.5 c 128,-1,11
 216 744 216 744 216 725 c 128,-1,12
 216 706 216 706 229.5 692 c 128,-1,13
 243 678 243 678 262 678 c 128,-1,14
 281 678 281 678 295 692 c 128,-1,15
 309 706 309 706 309 725 c 128,-1,16
 309 744 309 744 295 757.5 c 128,-1,9
 281 771 281 771 262 771 c 128,-1,10
458 606 m 1,17,-1
 458 199 l 2,18,19
 458 97 458 97 406.5 43 c 128,-1,20
 355 -11 355 -11 261.5 -11 c 0,21,22
 168 -11 168 -11 116 43 c 128,-1,23
 64 97 64 97 64 199 c 2,24,-1
 64 606 l 1,25,-1
 132 606 l 1,26,-1
 132 193 l 2,27,28
 132 125 132 125 166.5 89 c 128,-1,29
 201 53 201 53 262 53 c 128,-1,30
 323 53 323 53 357.5 89.5 c 128,-1,31
 392 126 392 126 392 193 c 2,32,-1
 392 606 l 1,33,-1
 458 606 l 1,17,-1
EndSplineSet
Position2: "'cpsp' Capital Spacing lookup 0 subtable" dx=5 dy=0 dh=10 dv=0
EndChar

StartChar: Utilde
Encoding: 360 360 112
Width: 523
GlyphClass: 2
Flags: W
HStem: -11 64<184.316 338.913> 586 20G<64 132 392 458> 694 62<237.32 334.067> 719 62<188.65 285.883>
VStem: 64 68<108.391 606> 139 49<694 717.628> 335 51<756.598 781> 392 66<108.391 606>
LayerCount: 2
Fore
SplineSet
335 781 m 1,0,-1
 386 781 l 1,1,2
 386 748 386 748 367.5 721 c 128,-1,3
 349 694 349 694 314 694 c 0,4,5
 294 694 294 694 263 706.5 c 128,-1,6
 232 719 232 719 216 719 c 0,7,8
 192 719 192 719 188 694 c 1,9,-1
 139 694 l 1,10,11
 139 726 139 726 157.5 753.5 c 128,-1,12
 176 781 176 781 210 781 c 0,13,14
 229 781 229 781 260 768.5 c 128,-1,15
 291 756 291 756 307 756 c 0,16,17
 334 756 334 756 335 781 c 1,0,-1
458 606 m 1,18,-1
 458 199 l 2,19,20
 458 97 458 97 406.5 43 c 128,-1,21
 355 -11 355 -11 261.5 -11 c 0,22,23
 168 -11 168 -11 116 43 c 128,-1,24
 64 97 64 97 64 199 c 2,25,-1
 64 606 l 1,26,-1
 132 606 l 1,27,-1
 132 193 l 2,28,29
 132 125 132 125 166.5 89 c 128,-1,30
 201 53 201 53 262 53 c 128,-1,31
 323 53 323 53 357.5 89.5 c 128,-1,32
 392 126 392 126 392 193 c 2,33,-1
 392 606 l 1,34,-1
 458 606 l 1,18,-1
EndSplineSet
Position2: "'cpsp' Capital Spacing lookup 0 subtable" dx=5 dy=0 dh=10 dv=0
EndChar

StartChar: V
Encoding: 86 86 113
Width: 484
GlyphClass: 2
Flags: W
HStem: 0 21G<187.894 296.073> 586 20G<9 91.7615 403.055 474>
LayerCount: 2
Fore
SplineSet
9 606 m 1,0,-1
 86 606 l 1,1,-1
 243 61 l 1,2,-1
 247 61 l 1,3,-1
 409 606 l 1,4,-1
 474 606 l 1,5,-1
 290 0 l 1,6,-1
 194 0 l 1,7,-1
 9 606 l 1,0,-1
EndSplineSet
Position2: "'cpsp' Capital Spacing lookup 0 subtable" dx=5 dy=0 dh=10 dv=0
EndChar

StartChar: W
Encoding: 87 87 114
Width: 684
GlyphClass: 2
Flags: W
HStem: 0 60<200.906 210.627 485.225 494.412> 586 20G<12 89.5727 289.813 398.51 606.427 673>
VStem: 611 62<576.336 606>
AnchorPoint: "Anchor-1" 0 0 basechar 0
AnchorPoint: "Anchor-0" 342 606 basechar 0
LayerCount: 2
Fore
SplineSet
433 0 m 1,0,-1
 362 418 l 1,1,-1
 343 551 l 1,2,-1
 339 551 l 1,3,4
 330 464 330 464 322 418 c 2,5,-1
 252 0 l 1,6,-1
 154 0 l 1,7,-1
 12 606 l 1,8,-1
 85 606 l 1,9,-1
 184 173 l 1,10,-1
 204 60 l 1,11,-1
 208 60 l 1,12,13
 214 112 214 112 224 173 c 2,14,-1
 293 606 l 1,15,-1
 395 606 l 1,16,-1
 471 173 l 1,17,-1
 488 60 l 1,18,-1
 491 60 l 1,19,20
 502 132 502 132 512 173 c 2,21,-1
 611 606 l 1,22,-1
 673 606 l 1,23,-1
 530 0 l 1,24,-1
 433 0 l 1,0,-1
EndSplineSet
Position2: "'cpsp' Capital Spacing lookup 0 subtable" dx=5 dy=0 dh=10 dv=0
EndChar

StartChar: Wacute
Encoding: 7810 7810 115
Width: 684
GlyphClass: 2
Flags: W
HStem: 0 60<200.906 210.627 485.225 494.412> 586 20G<12 89.5727 289.813 398.51 606.427 673>
VStem: 611 62<576.336 606>
LayerCount: 2
Fore
SplineSet
346 664 m 1,0,-1
 293 664 l 1,1,-1
 369 781 l 1,2,-1
 440 781 l 1,3,-1
 441 778 l 1,4,-1
 346 664 l 1,0,-1
433 0 m 1,5,-1
 362 418 l 1,6,-1
 343 551 l 1,7,-1
 339 551 l 1,8,9
 330 464 330 464 322 418 c 2,10,-1
 252 0 l 1,11,-1
 154 0 l 1,12,-1
 12 606 l 1,13,-1
 85 606 l 1,14,-1
 184 173 l 1,15,-1
 204 60 l 1,16,-1
 208 60 l 1,17,18
 214 112 214 112 224 173 c 2,19,-1
 293 606 l 1,20,-1
 395 606 l 1,21,-1
 471 173 l 1,22,-1
 488 60 l 1,23,-1
 491 60 l 1,24,25
 502 132 502 132 512 173 c 2,26,-1
 611 606 l 1,27,-1
 673 606 l 1,28,-1
 530 0 l 1,29,-1
 433 0 l 1,5,-1
EndSplineSet
Position2: "'cpsp' Capital Spacing lookup 0 subtable" dx=5 dy=0 dh=10 dv=0
EndChar

StartChar: Wcircumflex
Encoding: 372 372 116
Width: 684
GlyphClass: 2
Flags: W
HStem: 0 60<200.906 210.627 485.225 494.412> 586 20G<12 89.5727 289.813 398.51 606.427 673>
VStem: 611 62<576.336 606>
LayerCount: 2
Fore
SplineSet
343 732 m 1,0,-1
 303 660 l 1,1,-1
 234 660 l 1,2,-1
 311 780 l 1,3,-1
 374 780 l 1,4,-1
 450 660 l 1,5,-1
 382 660 l 1,6,-1
 343 732 l 1,0,-1
433 0 m 1,7,-1
 362 418 l 1,8,-1
 343 551 l 1,9,-1
 339 551 l 1,10,11
 330 464 330 464 322 418 c 2,12,-1
 252 0 l 1,13,-1
 154 0 l 1,14,-1
 12 606 l 1,15,-1
 85 606 l 1,16,-1
 184 173 l 1,17,-1
 204 60 l 1,18,-1
 208 60 l 1,19,20
 214 112 214 112 224 173 c 2,21,-1
 293 606 l 1,22,-1
 395 606 l 1,23,-1
 471 173 l 1,24,-1
 488 60 l 1,25,-1
 491 60 l 1,26,27
 502 132 502 132 512 173 c 2,28,-1
 611 606 l 1,29,-1
 673 606 l 1,30,-1
 530 0 l 1,31,-1
 433 0 l 1,7,-1
EndSplineSet
Position2: "'cpsp' Capital Spacing lookup 0 subtable" dx=5 dy=0 dh=10 dv=0
EndChar

StartChar: Wdieresis
Encoding: 7812 7812 117
Width: 684
GlyphClass: 2
Flags: W
HStem: 0 60<200.906 210.627 485.225 494.412> 586 20G<12 89.5727 289.813 398.51 606.427 673> 701 80<243 315 368 442>
VStem: 243 72<701 781> 368 74<701 781> 611 62<576.336 606>
LayerCount: 2
Fore
SplineSet
243 701 m 1,0,-1
 243 781 l 1,1,-1
 315 781 l 1,2,-1
 315 701 l 1,3,-1
 243 701 l 1,0,-1
368 701 m 1,4,-1
 368 781 l 1,5,-1
 442 781 l 1,6,-1
 442 701 l 1,7,-1
 368 701 l 1,4,-1
433 0 m 1,8,-1
 362 418 l 1,9,-1
 343 551 l 1,10,-1
 339 551 l 1,11,12
 330 464 330 464 322 418 c 2,13,-1
 252 0 l 1,14,-1
 154 0 l 1,15,-1
 12 606 l 1,16,-1
 85 606 l 1,17,-1
 184 173 l 1,18,-1
 204 60 l 1,19,-1
 208 60 l 1,20,21
 214 112 214 112 224 173 c 2,22,-1
 293 606 l 1,23,-1
 395 606 l 1,24,-1
 471 173 l 1,25,-1
 488 60 l 1,26,-1
 491 60 l 1,27,28
 502 132 502 132 512 173 c 2,29,-1
 611 606 l 1,30,-1
 673 606 l 1,31,-1
 530 0 l 1,32,-1
 433 0 l 1,8,-1
EndSplineSet
Position2: "'cpsp' Capital Spacing lookup 0 subtable" dx=5 dy=0 dh=10 dv=0
EndChar

StartChar: Wgrave
Encoding: 7808 7808 118
Width: 684
GlyphClass: 2
Flags: W
HStem: 0 60<200.906 210.627 485.225 494.412> 586 20G<12 89.5727 289.813 398.51 606.427 673>
VStem: 611 62<576.336 606>
LayerCount: 2
Fore
SplineSet
340 664 m 1,0,-1
 245 778 l 1,1,-1
 246 781 l 1,2,-1
 317 781 l 1,3,-1
 393 664 l 1,4,-1
 340 664 l 1,0,-1
433 0 m 1,5,-1
 362 418 l 1,6,-1
 343 551 l 1,7,-1
 339 551 l 1,8,9
 330 464 330 464 322 418 c 2,10,-1
 252 0 l 1,11,-1
 154 0 l 1,12,-1
 12 606 l 1,13,-1
 85 606 l 1,14,-1
 184 173 l 1,15,-1
 204 60 l 1,16,-1
 208 60 l 1,17,18
 214 112 214 112 224 173 c 2,19,-1
 293 606 l 1,20,-1
 395 606 l 1,21,-1
 471 173 l 1,22,-1
 488 60 l 1,23,-1
 491 60 l 1,24,25
 502 132 502 132 512 173 c 2,26,-1
 611 606 l 1,27,-1
 673 606 l 1,28,-1
 530 0 l 1,29,-1
 433 0 l 1,5,-1
EndSplineSet
Position2: "'cpsp' Capital Spacing lookup 0 subtable" dx=5 dy=0 dh=10 dv=0
EndChar

StartChar: X
Encoding: 88 88 119
Width: 484
GlyphClass: 2
Flags: W
HStem: 0 21G<5 90.8287 384.41 479> 586 20G<22 116.67 372.24 459>
LayerCount: 2
Fore
SplineSet
397 0 m 1,0,-1
 239 251 l 1,1,-1
 78 0 l 1,2,-1
 5 0 l 1,3,-1
 204 314 l 1,4,-1
 22 606 l 1,5,-1
 104 606 l 1,6,-1
 244 385 l 1,7,-1
 385 606 l 1,8,-1
 459 606 l 1,9,-1
 277 323 l 1,10,-1
 479 0 l 1,11,-1
 397 0 l 1,0,-1
EndSplineSet
Position2: "'cpsp' Capital Spacing lookup 0 subtable" dx=5 dy=0 dh=10 dv=0
EndChar

StartChar: Y
Encoding: 89 89 120
Width: 484
GlyphClass: 2
Flags: W
HStem: 0 21G<208 276> 586 20G<9 96.4386 398.842 474>
VStem: 208 68<0 257>
AnchorPoint: "Anchor-1" 0 0 basechar 0
AnchorPoint: "Anchor-0" 242 606 basechar 0
LayerCount: 2
Fore
SplineSet
208 0 m 1,0,-1
 208 257 l 1,1,-1
 9 606 l 1,2,-1
 85 606 l 1,3,-1
 248 321 l 1,4,-1
 251 321 l 1,5,-1
 410 606 l 1,6,-1
 474 606 l 1,7,-1
 276 257 l 1,8,-1
 276 0 l 1,9,-1
 208 0 l 1,0,-1
EndSplineSet
Position2: "'cpsp' Capital Spacing lookup 0 subtable" dx=5 dy=0 dh=10 dv=0
EndChar

StartChar: Yacute
Encoding: 221 221 121
Width: 484
GlyphClass: 2
Flags: W
HStem: 0 21G<208 276> 586 20G<9 96.4386 398.842 474>
VStem: 208 68<0 257>
LayerCount: 2
Fore
SplineSet
244 664 m 1,0,-1
 191 664 l 1,1,-1
 267 781 l 1,2,-1
 339 781 l 1,3,-1
 340 778 l 1,4,-1
 244 664 l 1,0,-1
276 0 m 1,5,-1
 208 0 l 1,6,-1
 208 257 l 1,7,-1
 9 606 l 1,8,-1
 85 606 l 1,9,-1
 248 321 l 1,10,-1
 251 321 l 1,11,-1
 410 606 l 1,12,-1
 474 606 l 1,13,-1
 276 257 l 1,14,-1
 276 0 l 1,5,-1
EndSplineSet
Position2: "'cpsp' Capital Spacing lookup 0 subtable" dx=5 dy=0 dh=10 dv=0
EndChar

StartChar: Ycircumflex
Encoding: 374 374 122
Width: 484
GlyphClass: 2
Flags: W
HStem: 0 21G<208 276> 586 20G<9 96.4386 398.842 474>
VStem: 208 68<0 257>
LayerCount: 2
Fore
SplineSet
242 732 m 1,0,-1
 202 660 l 1,1,-1
 135 660 l 1,2,-1
 211 780 l 1,3,-1
 275 780 l 1,4,-1
 350 660 l 1,5,-1
 281 660 l 1,6,-1
 242 732 l 1,0,-1
208 0 m 1,7,-1
 208 257 l 1,8,-1
 9 606 l 1,9,-1
 85 606 l 1,10,-1
 248 321 l 1,11,-1
 251 321 l 1,12,-1
 410 606 l 1,13,-1
 474 606 l 1,14,-1
 276 257 l 1,15,-1
 276 0 l 1,16,-1
 208 0 l 1,7,-1
EndSplineSet
Position2: "'cpsp' Capital Spacing lookup 0 subtable" dx=5 dy=0 dh=10 dv=0
EndChar

StartChar: Ydieresis
Encoding: 376 376 123
Width: 484
GlyphClass: 2
Flags: W
HStem: 0 21G<208 276> 586 20G<9 96.4386 398.842 474> 701 80<142 215 269 343>
VStem: 142 73<701 781> 208 68<0 257> 269 74<701 781>
LayerCount: 2
Fore
SplineSet
142 701 m 1,0,-1
 142 781 l 1,1,-1
 215 781 l 1,2,-1
 215 701 l 1,3,-1
 142 701 l 1,0,-1
269 701 m 1,4,-1
 269 781 l 1,5,-1
 343 781 l 1,6,-1
 343 701 l 1,7,-1
 269 701 l 1,4,-1
276 0 m 1,8,-1
 208 0 l 1,9,-1
 208 257 l 1,10,-1
 9 606 l 1,11,-1
 85 606 l 1,12,-1
 248 321 l 1,13,-1
 251 321 l 1,14,-1
 410 606 l 1,15,-1
 474 606 l 1,16,-1
 276 257 l 1,17,-1
 276 0 l 1,8,-1
EndSplineSet
Position2: "'cpsp' Capital Spacing lookup 0 subtable" dx=5 dy=0 dh=10 dv=0
EndChar

StartChar: Ygrave
Encoding: 7922 7922 124
Width: 484
GlyphClass: 2
Flags: W
HStem: 0 21G<208 276> 586 20G<9 96.4386 398.842 474>
VStem: 208 68<0 257>
LayerCount: 2
Fore
SplineSet
239 664 m 1,0,-1
 144 778 l 1,1,-1
 145 781 l 1,2,-1
 216 781 l 1,3,-1
 292 664 l 1,4,-1
 239 664 l 1,0,-1
276 0 m 1,5,-1
 208 0 l 1,6,-1
 208 257 l 1,7,-1
 9 606 l 1,8,-1
 85 606 l 1,9,-1
 248 321 l 1,10,-1
 251 321 l 1,11,-1
 410 606 l 1,12,-1
 474 606 l 1,13,-1
 276 257 l 1,14,-1
 276 0 l 1,5,-1
EndSplineSet
Position2: "'cpsp' Capital Spacing lookup 0 subtable" dx=5 dy=0 dh=10 dv=0
EndChar

StartChar: Z
Encoding: 90 90 125
Width: 443
GlyphClass: 2
Flags: W
HStem: 0 62<116 423> 545 61<37 318>
AnchorPoint: "Anchor-1" 0 0 basechar 0
AnchorPoint: "Anchor-0" 222 606 basechar 0
LayerCount: 2
Fore
SplineSet
116 62 m 1,0,-1
 423 62 l 1,1,-1
 423 0 l 1,2,-1
 19 0 l 1,3,-1
 19 31 l 1,4,-1
 318 545 l 1,5,-1
 37 545 l 1,6,-1
 37 606 l 1,7,-1
 417 606 l 1,8,-1
 417 576 l 1,9,-1
 116 62 l 1,0,-1
EndSplineSet
Position2: "'cpsp' Capital Spacing lookup 0 subtable" dx=5 dy=0 dh=10 dv=0
EndChar

StartChar: Zacute
Encoding: 377 377 126
Width: 443
GlyphClass: 2
Flags: W
HStem: 0 62<116 423> 545 61<37 318>
LayerCount: 2
Fore
SplineSet
224 664 m 1,0,-1
 171 664 l 1,1,-1
 247 781 l 1,2,-1
 318 781 l 1,3,-1
 319 778 l 1,4,-1
 224 664 l 1,0,-1
116 62 m 1,5,-1
 423 62 l 1,6,-1
 423 0 l 1,7,-1
 19 0 l 1,8,-1
 19 31 l 1,9,-1
 318 545 l 1,10,-1
 37 545 l 1,11,-1
 37 606 l 1,12,-1
 417 606 l 1,13,-1
 417 576 l 1,14,-1
 116 62 l 1,5,-1
EndSplineSet
Position2: "'cpsp' Capital Spacing lookup 0 subtable" dx=5 dy=0 dh=10 dv=0
EndChar

StartChar: Zcaron
Encoding: 381 381 127
Width: 443
GlyphClass: 2
Flags: W
HStem: 0 62<116 423> 545 61<37 318>
LayerCount: 2
Fore
SplineSet
189 661 m 1,0,-1
 113 781 l 1,1,-1
 182 781 l 1,2,-1
 220 708 l 1,3,-1
 261 781 l 1,4,-1
 328 781 l 1,5,-1
 252 661 l 1,6,-1
 189 661 l 1,0,-1
116 62 m 1,7,-1
 423 62 l 1,8,-1
 423 0 l 1,9,-1
 19 0 l 1,10,-1
 19 31 l 1,11,-1
 318 545 l 1,12,-1
 37 545 l 1,13,-1
 37 606 l 1,14,-1
 417 606 l 1,15,-1
 417 576 l 1,16,-1
 116 62 l 1,7,-1
EndSplineSet
Position2: "'cpsp' Capital Spacing lookup 0 subtable" dx=5 dy=0 dh=10 dv=0
EndChar

StartChar: Zdotaccent
Encoding: 379 379 128
Width: 443
GlyphClass: 2
Flags: W
HStem: 0 62<116 423> 545 61<37 318> 702 79<186 258>
VStem: 186 72<702 781>
LayerCount: 2
Fore
SplineSet
186 702 m 1,0,-1
 186 781 l 1,1,-1
 258 781 l 1,2,-1
 258 702 l 1,3,-1
 186 702 l 1,0,-1
116 62 m 1,4,-1
 423 62 l 1,5,-1
 423 0 l 1,6,-1
 19 0 l 1,7,-1
 19 31 l 1,8,-1
 318 545 l 1,9,-1
 37 545 l 1,10,-1
 37 606 l 1,11,-1
 417 606 l 1,12,-1
 417 576 l 1,13,-1
 116 62 l 1,4,-1
EndSplineSet
Position2: "'cpsp' Capital Spacing lookup 0 subtable" dx=5 dy=0 dh=10 dv=0
EndChar

StartChar: a
Encoding: 97 97 129
Width: 403
GlyphClass: 2
Flags: W
HStem: -11 58<116.042 229.37 335.866 388.665> 4 43<346.935 389> 212 62<137.554 271> 417 59<135.394 253.928>
VStem: 35 67<60.5966 178.617> 52 62<327 397.058> 271 63<89.1585 212 274 399.183>
AnchorPoint: "Anchor-1" 0 0 basechar 0
AnchorPoint: "Anchor-0" 202 465 basechar 0
LayerCount: 2
Fore
SplineSet
92 442.5 m 128,-1,1
 132 476 132 476 198.5 476 c 128,-1,2
 265 476 265 476 299.5 442.5 c 128,-1,3
 334 409 334 409 334 348 c 2,4,-1
 334 78 l 2,5,6
 334 47 334 47 358 47 c 2,7,-1
 389 47 l 1,8,-1
 389 4 l 1,9,10
 372 -6 372 -6 345.5 -6 c 128,-1,11
 319 -6 319 -6 299.5 9.5 c 128,-1,12
 280 25 280 25 275 50 c 1,13,-1
 270 50 l 1,14,15
 233 -11 233 -11 158 -11 c 0,16,17
 69.3469387755 -11 69.3469387755 -11 43.5 63.5 c 0,18,19
 35 88 35 88 35 123 c 128,-1,20
 35 158 35 158 47 185.5 c 128,-1,21
 59 213 59 213 79 230 c 128,-1,22
 99 247 99 247 130 257 c 0,23,24
 182.7 274 182.7 274 271 274 c 1,25,-1
 271 337 l 2,26,27
 271 376 271 376 253.5 396.5 c 128,-1,28
 236 417 236 417 193.5 417 c 128,-1,29
 151 417 151 417 132.5 394 c 128,-1,30
 114 371 114 371 114 337 c 2,31,-1
 114 327 l 1,32,-1
 53 327 l 1,33,34
 52 332 52 332 52 347 c 0,35,0
 52 409 52 409 92 442.5 c 128,-1,1
272 166 m 2,36,-1
 272 212 l 1,37,38
 185 212 185 212 143.5 194 c 128,-1,39
 102 176 102 176 102 128.5 c 128,-1,40
 102 81 102 81 118.5 64 c 128,-1,41
 135 47 135 47 171 47 c 128,-1,42
 207 47 207 47 239.5 77.5 c 128,-1,43
 272 108 272 108 272 166 c 2,36,-1
EndSplineSet
Substitution2: "Single Substitution lookup 32 subtable" ordfeminine
Substitution2: "'aalt' Access All Alternates lookup 0 subtable" ordfeminine
EndChar

StartChar: aacute
Encoding: 225 225 130
Width: 403
GlyphClass: 2
Flags: W
HStem: -11 58<116.042 229.37 335.866 388.665> 4 43<346.935 389> 212 62<137.554 271> 417 59<135.394 253.928> 619 20G<212.009 297>
VStem: 35 67<60.5966 178.617> 52 62<327 397.058> 271 63<89.1585 212 274 399.183>
LayerCount: 2
Fore
SplineSet
202 522 m 1,0,-1
 149 522 l 1,1,-1
 225 639 l 1,2,-1
 297 639 l 1,3,-1
 297 636 l 1,4,-1
 202 522 l 1,0,-1
92 442.5 m 128,-1,6
 132 476 132 476 198.5 476 c 128,-1,7
 265 476 265 476 299.5 442.5 c 128,-1,8
 334 409 334 409 334 348 c 2,9,-1
 334 78 l 2,10,11
 334 47 334 47 358 47 c 2,12,-1
 389 47 l 1,13,-1
 389 4 l 1,14,15
 372 -6 372 -6 345.5 -6 c 128,-1,16
 319 -6 319 -6 299.5 9.5 c 128,-1,17
 280 25 280 25 275 50 c 1,18,-1
 270 50 l 1,19,20
 233 -11 233 -11 158 -11 c 0,21,22
 69.3469387755 -11 69.3469387755 -11 43.5 63.5 c 0,23,24
 35 88 35 88 35 123 c 128,-1,25
 35 158 35 158 47 185.5 c 128,-1,26
 59 213 59 213 79 230 c 128,-1,27
 99 247 99 247 130 257 c 0,28,29
 182.7 274 182.7 274 271 274 c 1,30,-1
 271 337 l 2,31,32
 271 376 271 376 253.5 396.5 c 128,-1,33
 236 417 236 417 193.5 417 c 128,-1,34
 151 417 151 417 132.5 394 c 128,-1,35
 114 371 114 371 114 337 c 2,36,-1
 114 327 l 1,37,-1
 53 327 l 1,38,39
 52 332 52 332 52 347 c 0,40,5
 52 409 52 409 92 442.5 c 128,-1,6
272 166 m 2,41,-1
 272 212 l 1,42,43
 185 212 185 212 143.5 194 c 128,-1,44
 102 176 102 176 102 128.5 c 128,-1,45
 102 81 102 81 118.5 64 c 128,-1,46
 135 47 135 47 171 47 c 128,-1,47
 207 47 207 47 239.5 77.5 c 128,-1,48
 272 108 272 108 272 166 c 2,41,-1
EndSplineSet
EndChar

StartChar: abreve
Encoding: 259 259 131
Width: 403
GlyphClass: 2
Flags: W
HStem: -11 58<116.042 229.37 335.866 388.665> 4 43<346.935 389> 212 62<137.554 271> 417 59<135.394 253.928> 555 55<155.664 255.572> 619 20G<98 153.5 258 312>
VStem: 35 67<60.5966 178.617> 52 62<327 397.058> 98 54<618.618 639> 259 53<616.942 639> 271 63<89.1585 212 274 399.183>
LayerCount: 2
Fore
SplineSet
259 639 m 1,0,-1
 312 639 l 1,1,2
 312 607 312 607 282.5 581 c 128,-1,3
 253 555 253 555 205.5 555 c 128,-1,4
 158 555 158 555 128 581 c 128,-1,5
 98 607 98 607 98 639 c 1,6,-1
 152 639 l 1,7,8
 155 629 155 629 169.5 619.5 c 128,-1,9
 184 610 184 610 205.5 610 c 128,-1,10
 227 610 227 610 242 619.5 c 128,-1,11
 257 629 257 629 259 639 c 1,0,-1
92 442.5 m 128,-1,13
 132 476 132 476 198.5 476 c 128,-1,14
 265 476 265 476 299.5 442.5 c 128,-1,15
 334 409 334 409 334 348 c 2,16,-1
 334 78 l 2,17,18
 334 47 334 47 358 47 c 2,19,-1
 389 47 l 1,20,-1
 389 4 l 1,21,22
 372 -6 372 -6 345.5 -6 c 128,-1,23
 319 -6 319 -6 299.5 9.5 c 128,-1,24
 280 25 280 25 275 50 c 1,25,-1
 270 50 l 1,26,27
 233 -11 233 -11 158 -11 c 0,28,29
 69.3469387755 -11 69.3469387755 -11 43.5 63.5 c 0,30,31
 35 88 35 88 35 123 c 128,-1,32
 35 158 35 158 47 185.5 c 128,-1,33
 59 213 59 213 79 230 c 128,-1,34
 99 247 99 247 130 257 c 0,35,36
 182.7 274 182.7 274 271 274 c 1,37,-1
 271 337 l 2,38,39
 271 376 271 376 253.5 396.5 c 128,-1,40
 236 417 236 417 193.5 417 c 128,-1,41
 151 417 151 417 132.5 394 c 128,-1,42
 114 371 114 371 114 337 c 2,43,-1
 114 327 l 1,44,-1
 53 327 l 1,45,46
 52 332 52 332 52 347 c 0,47,12
 52 409 52 409 92 442.5 c 128,-1,13
272 166 m 2,48,-1
 272 212 l 1,49,50
 185 212 185 212 143.5 194 c 128,-1,51
 102 176 102 176 102 128.5 c 128,-1,52
 102 81 102 81 118.5 64 c 128,-1,53
 135 47 135 47 171 47 c 128,-1,54
 207 47 207 47 239.5 77.5 c 128,-1,55
 272 108 272 108 272 166 c 2,48,-1
EndSplineSet
EndChar

StartChar: acircumflex
Encoding: 226 226 132
Width: 403
GlyphClass: 2
Flags: W
HStem: -11 58<116.042 229.37 335.866 388.665> 4 43<346.935 389> 212 62<137.554 271> 417 59<135.394 253.928>
VStem: 35 67<60.5966 178.617> 52 62<327 397.058> 271 63<89.1585 212 274 399.183>
LayerCount: 2
Fore
SplineSet
205 591 m 1,0,-1
 167 519 l 1,1,-1
 98 519 l 1,2,-1
 173 638 l 1,3,-1
 238 638 l 1,4,-1
 313 519 l 1,5,-1
 244 519 l 1,6,-1
 205 591 l 1,0,-1
92 442.5 m 128,-1,8
 132 476 132 476 198.5 476 c 128,-1,9
 265 476 265 476 299.5 442.5 c 128,-1,10
 334 409 334 409 334 348 c 2,11,-1
 334 78 l 2,12,13
 334 47 334 47 358 47 c 2,14,-1
 389 47 l 1,15,-1
 389 4 l 1,16,17
 372 -6 372 -6 345.5 -6 c 128,-1,18
 319 -6 319 -6 299.5 9.5 c 128,-1,19
 280 25 280 25 275 50 c 1,20,-1
 270 50 l 1,21,22
 233 -11 233 -11 158 -11 c 0,23,24
 69.3469387755 -11 69.3469387755 -11 43.5 63.5 c 0,25,26
 35 88 35 88 35 123 c 128,-1,27
 35 158 35 158 47 185.5 c 128,-1,28
 59 213 59 213 79 230 c 128,-1,29
 99 247 99 247 130 257 c 0,30,31
 182.7 274 182.7 274 271 274 c 1,32,-1
 271 337 l 2,33,34
 271 376 271 376 253.5 396.5 c 128,-1,35
 236 417 236 417 193.5 417 c 128,-1,36
 151 417 151 417 132.5 394 c 128,-1,37
 114 371 114 371 114 337 c 2,38,-1
 114 327 l 1,39,-1
 53 327 l 1,40,41
 52 332 52 332 52 347 c 0,42,7
 52 409 52 409 92 442.5 c 128,-1,8
272 166 m 2,43,-1
 272 212 l 1,44,45
 185 212 185 212 143.5 194 c 128,-1,46
 102 176 102 176 102 128.5 c 128,-1,47
 102 81 102 81 118.5 64 c 128,-1,48
 135 47 135 47 171 47 c 128,-1,49
 207 47 207 47 239.5 77.5 c 128,-1,50
 272 108 272 108 272 166 c 2,43,-1
EndSplineSet
EndChar

StartChar: adieresis
Encoding: 228 228 133
Width: 403
GlyphClass: 2
Flags: W
HStem: -11 58<116.042 229.37 335.866 388.665> 4 43<346.935 389> 212 62<137.554 271> 417 59<135.394 253.928> 559 80<103 177 230 305>
VStem: 35 67<60.5966 178.617> 52 62<327 397.058> 103 74<559 639> 230 75<559 639> 271 63<89.1585 212 274 399.183>
LayerCount: 2
Fore
SplineSet
103 559 m 1,0,-1
 103 639 l 1,1,-1
 177 639 l 1,2,-1
 177 559 l 1,3,-1
 103 559 l 1,0,-1
230 559 m 1,4,-1
 230 639 l 1,5,-1
 305 639 l 1,6,-1
 305 559 l 1,7,-1
 230 559 l 1,4,-1
92 442.5 m 128,-1,9
 132 476 132 476 198.5 476 c 128,-1,10
 265 476 265 476 299.5 442.5 c 128,-1,11
 334 409 334 409 334 348 c 2,12,-1
 334 78 l 2,13,14
 334 47 334 47 358 47 c 2,15,-1
 389 47 l 1,16,-1
 389 4 l 1,17,18
 372 -6 372 -6 345.5 -6 c 128,-1,19
 319 -6 319 -6 299.5 9.5 c 128,-1,20
 280 25 280 25 275 50 c 1,21,-1
 270 50 l 1,22,23
 233 -11 233 -11 158 -11 c 0,24,25
 69.3469387755 -11 69.3469387755 -11 43.5 63.5 c 0,26,27
 35 88 35 88 35 123 c 128,-1,28
 35 158 35 158 47 185.5 c 128,-1,29
 59 213 59 213 79 230 c 128,-1,30
 99 247 99 247 130 257 c 0,31,32
 182.7 274 182.7 274 271 274 c 1,33,-1
 271 337 l 2,34,35
 271 376 271 376 253.5 396.5 c 128,-1,36
 236 417 236 417 193.5 417 c 128,-1,37
 151 417 151 417 132.5 394 c 128,-1,38
 114 371 114 371 114 337 c 2,39,-1
 114 327 l 1,40,-1
 53 327 l 1,41,42
 52 332 52 332 52 347 c 0,43,8
 52 409 52 409 92 442.5 c 128,-1,9
272 166 m 2,44,-1
 272 212 l 1,45,46
 185 212 185 212 143.5 194 c 128,-1,47
 102 176 102 176 102 128.5 c 128,-1,48
 102 81 102 81 118.5 64 c 128,-1,49
 135 47 135 47 171 47 c 128,-1,50
 207 47 207 47 239.5 77.5 c 128,-1,51
 272 108 272 108 272 166 c 2,44,-1
EndSplineSet
EndChar

StartChar: agrave
Encoding: 224 224 134
Width: 403
GlyphClass: 2
Flags: W
HStem: -11 58<116.042 229.37 335.866 388.665> 4 43<346.935 389> 212 62<137.554 271> 417 59<135.394 253.928> 619 20G<101 185.991>
VStem: 35 67<60.5966 178.617> 52 62<327 397.058> 271 63<89.1585 212 274 399.183>
LayerCount: 2
Fore
SplineSet
196 522 m 1,0,-1
 101 636 l 1,1,-1
 102 639 l 1,2,-1
 173 639 l 1,3,-1
 249 522 l 1,4,-1
 196 522 l 1,0,-1
92 442.5 m 128,-1,6
 132 476 132 476 198.5 476 c 128,-1,7
 265 476 265 476 299.5 442.5 c 128,-1,8
 334 409 334 409 334 348 c 2,9,-1
 334 78 l 2,10,11
 334 47 334 47 358 47 c 2,12,-1
 389 47 l 1,13,-1
 389 4 l 1,14,15
 372 -6 372 -6 345.5 -6 c 128,-1,16
 319 -6 319 -6 299.5 9.5 c 128,-1,17
 280 25 280 25 275 50 c 1,18,-1
 270 50 l 1,19,20
 233 -11 233 -11 158 -11 c 0,21,22
 69.3469387755 -11 69.3469387755 -11 43.5 63.5 c 0,23,24
 35 88 35 88 35 123 c 128,-1,25
 35 158 35 158 47 185.5 c 128,-1,26
 59 213 59 213 79 230 c 128,-1,27
 99 247 99 247 130 257 c 0,28,29
 182.7 274 182.7 274 271 274 c 1,30,-1
 271 337 l 2,31,32
 271 376 271 376 253.5 396.5 c 128,-1,33
 236 417 236 417 193.5 417 c 128,-1,34
 151 417 151 417 132.5 394 c 128,-1,35
 114 371 114 371 114 337 c 2,36,-1
 114 327 l 1,37,-1
 53 327 l 1,38,39
 52 332 52 332 52 347 c 0,40,5
 52 409 52 409 92 442.5 c 128,-1,6
272 166 m 2,41,-1
 272 212 l 1,42,43
 185 212 185 212 143.5 194 c 128,-1,44
 102 176 102 176 102 128.5 c 128,-1,45
 102 81 102 81 118.5 64 c 128,-1,46
 135 47 135 47 171 47 c 128,-1,47
 207 47 207 47 239.5 77.5 c 128,-1,48
 272 108 272 108 272 166 c 2,41,-1
EndSplineSet
EndChar

StartChar: amacron
Encoding: 257 257 135
Width: 403
GlyphClass: 2
Flags: W
HStem: -11 58<116.042 229.37 335.866 388.665> 4 43<346.935 389> 212 62<137.554 271> 417 59<135.394 253.928> 530 59<95 316>
VStem: 35 67<60.5966 178.617> 52 62<327 397.058> 271 63<89.1585 212 274 399.183>
LayerCount: 2
Fore
SplineSet
95 589 m 1,0,-1
 316 589 l 1,1,-1
 316 530 l 1,2,-1
 95 530 l 1,3,-1
 95 589 l 1,0,-1
92 442.5 m 128,-1,5
 132 476 132 476 198.5 476 c 128,-1,6
 265 476 265 476 299.5 442.5 c 128,-1,7
 334 409 334 409 334 348 c 2,8,-1
 334 78 l 2,9,10
 334 47 334 47 358 47 c 2,11,-1
 389 47 l 1,12,-1
 389 4 l 1,13,14
 372 -6 372 -6 345.5 -6 c 128,-1,15
 319 -6 319 -6 299.5 9.5 c 128,-1,16
 280 25 280 25 275 50 c 1,17,-1
 270 50 l 1,18,19
 233 -11 233 -11 158 -11 c 0,20,21
 69.3469387755 -11 69.3469387755 -11 43.5 63.5 c 0,22,23
 35 88 35 88 35 123 c 128,-1,24
 35 158 35 158 47 185.5 c 128,-1,25
 59 213 59 213 79 230 c 128,-1,26
 99 247 99 247 130 257 c 0,27,28
 182.7 274 182.7 274 271 274 c 1,29,-1
 271 337 l 2,30,31
 271 376 271 376 253.5 396.5 c 128,-1,32
 236 417 236 417 193.5 417 c 128,-1,33
 151 417 151 417 132.5 394 c 128,-1,34
 114 371 114 371 114 337 c 2,35,-1
 114 327 l 1,36,-1
 53 327 l 1,37,38
 52 332 52 332 52 347 c 0,39,4
 52 409 52 409 92 442.5 c 128,-1,5
272 166 m 2,40,-1
 272 212 l 1,41,42
 185 212 185 212 143.5 194 c 128,-1,43
 102 176 102 176 102 128.5 c 128,-1,44
 102 81 102 81 118.5 64 c 128,-1,45
 135 47 135 47 171 47 c 128,-1,46
 207 47 207 47 239.5 77.5 c 128,-1,47
 272 108 272 108 272 166 c 2,40,-1
EndSplineSet
EndChar

StartChar: aogonek
Encoding: 261 261 136
Width: 403
GlyphClass: 2
Flags: W
HStem: -160 57<372.642 437.112> -148 45<385.842 438> -11 58<116.042 229.37> 212 62<137.554 271> 417 59<135.394 253.928>
VStem: 35 67<60.5966 178.617> 52 62<327 397.058> 271 63<89.1585 212 274 399.183> 303 64<-98.7692 -9.93736>
LayerCount: 2
Fore
SplineSet
438 -103 m 1,0,-1
 438 -148 l 1,1,2
 405 -160 405 -160 378.5 -160 c 128,-1,3
 352 -160 352 -160 327.5 -141 c 128,-1,4
 303 -122 303 -122 303 -80.5 c 128,-1,5
 303 -39 303 -39 329 -4 c 1,6,7
 286 6 286 6 275 50 c 1,8,-1
 270 50 l 1,9,10
 233 -11 233 -11 158 -11 c 0,11,12
 69.3469387755 -11 69.3469387755 -11 43.5 63.5 c 0,13,14
 35 88 35 88 35 123 c 128,-1,15
 35 158 35 158 47 185.5 c 128,-1,16
 59 213 59 213 79 230 c 128,-1,17
 99 247 99 247 130 257 c 0,18,19
 182.7 274 182.7 274 271 274 c 1,20,-1
 271 337 l 2,21,22
 271 376 271 376 253.5 396.5 c 128,-1,23
 236 417 236 417 193.5 417 c 128,-1,24
 151 417 151 417 132.5 394 c 128,-1,25
 114 371 114 371 114 337 c 2,26,-1
 114 327 l 1,27,-1
 53 327 l 1,28,29
 52 332 52 332 52 347 c 0,30,31
 52 409 52 409 92 442.5 c 128,-1,32
 132 476 132 476 198.5 476 c 128,-1,33
 265 476 265 476 299.5 442.5 c 128,-1,34
 334 409 334 409 334 348 c 2,35,-1
 334 78 l 2,36,37
 334 47 334 47 358 47 c 2,38,-1
 389 47 l 1,39,-1
 389 4 l 1,40,41
 367 -24 367 -24 367 -54 c 0,42,43
 367 -103 367 -103 407 -103 c 2,44,-1
 438 -103 l 1,0,-1
272 166 m 2,45,-1
 272 212 l 1,46,47
 185 212 185 212 143.5 194 c 128,-1,48
 102 176 102 176 102 128.5 c 128,-1,49
 102 81 102 81 118.5 64 c 128,-1,50
 135 47 135 47 171 47 c 128,-1,51
 207 47 207 47 239.5 77.5 c 128,-1,52
 272 108 272 108 272 166 c 2,45,-1
EndSplineSet
EndChar

StartChar: aring
Encoding: 229 229 137
Width: 403
GlyphClass: 2
Flags: W
HStem: -11 58<116.042 229.37 335.866 388.665> 4 43<346.935 389> 212 62<137.554 271> 417 59<135.394 253.928> 497 39<166.669 240.244> 629 38<166.449 240.459>
VStem: 35 67<60.5966 178.617> 52 62<327 397.058> 120 37<546.876 618.468> 251 38<547.091 619.16> 271 63<89.1585 212 274 399.183>
LayerCount: 2
Fore
SplineSet
205 667 m 128,-1,1
 240 667 240 667 264.5 642 c 128,-1,2
 289 617 289 617 289 582 c 128,-1,3
 289 547 289 547 264.5 522 c 128,-1,4
 240 497 240 497 205 497 c 128,-1,5
 170 497 170 497 145 522 c 128,-1,6
 120 547 120 547 120 582.5 c 128,-1,7
 120 618 120 618 145 642.5 c 128,-1,0
 170 667 170 667 205 667 c 128,-1,1
236.5 615.5 m 128,-1,9
 222 629 222 629 203.5 629 c 128,-1,10
 185 629 185 629 171 615.5 c 128,-1,11
 157 602 157 602 157 583.5 c 128,-1,12
 157 565 157 565 171 550.5 c 128,-1,13
 185 536 185 536 203.5 536 c 128,-1,14
 222 536 222 536 236.5 550.5 c 128,-1,15
 251 565 251 565 251 583.5 c 128,-1,8
 251 602 251 602 236.5 615.5 c 128,-1,9
92 442.5 m 128,-1,17
 132 476 132 476 198.5 476 c 128,-1,18
 265 476 265 476 299.5 442.5 c 128,-1,19
 334 409 334 409 334 348 c 2,20,-1
 334 78 l 2,21,22
 334 47 334 47 358 47 c 2,23,-1
 389 47 l 1,24,-1
 389 4 l 1,25,26
 372 -6 372 -6 345.5 -6 c 128,-1,27
 319 -6 319 -6 299.5 9.5 c 128,-1,28
 280 25 280 25 275 50 c 1,29,-1
 270 50 l 1,30,31
 233 -11 233 -11 158 -11 c 0,32,33
 69.3469387755 -11 69.3469387755 -11 43.5 63.5 c 0,34,35
 35 88 35 88 35 123 c 128,-1,36
 35 158 35 158 47 185.5 c 128,-1,37
 59 213 59 213 79 230 c 128,-1,38
 99 247 99 247 130 257 c 0,39,40
 182.7 274 182.7 274 271 274 c 1,41,-1
 271 337 l 2,42,43
 271 376 271 376 253.5 396.5 c 128,-1,44
 236 417 236 417 193.5 417 c 128,-1,45
 151 417 151 417 132.5 394 c 128,-1,46
 114 371 114 371 114 337 c 2,47,-1
 114 327 l 1,48,-1
 53 327 l 1,49,50
 52 332 52 332 52 347 c 0,51,16
 52 409 52 409 92 442.5 c 128,-1,17
272 166 m 2,52,-1
 272 212 l 1,53,54
 185 212 185 212 143.5 194 c 128,-1,55
 102 176 102 176 102 128.5 c 128,-1,56
 102 81 102 81 118.5 64 c 128,-1,57
 135 47 135 47 171 47 c 128,-1,58
 207 47 207 47 239.5 77.5 c 128,-1,59
 272 108 272 108 272 166 c 2,52,-1
EndSplineSet
EndChar

StartChar: aringacute
Encoding: 507 507 138
Width: 392
GlyphClass: 2
Flags: W
HStem: -11 58<116.042 229.37 335.866 388.665> 4 43<346.935 389> 212 62<137.554 271> 417 59<135.394 253.928> 500 37<166.131 242.07> 621 38<165.585 242.614>
VStem: 35 67<60.5966 178.617> 52 62<327 397.058> 120 37<546.791 612.133> 251 38<545.805 612.222> 271 63<89.1585 212 274 399.183>
LayerCount: 2
Fore
SplineSet
232 679 m 1,0,-1
 179 679 l 1,1,-1
 246 781 l 1,2,-1
 317 781 l 1,3,-1
 318 778 l 1,4,-1
 232 679 l 1,0,-1
145 636 m 128,-1,6
 170 659 170 659 205.5 659 c 128,-1,7
 241 659 241 659 265 635.5 c 128,-1,8
 289 612 289 612 289 578.5 c 128,-1,9
 289 545 289 545 264.5 522.5 c 128,-1,10
 240 500 240 500 205 500 c 128,-1,11
 170 500 170 500 145 522.5 c 128,-1,12
 120 545 120 545 120 579 c 128,-1,5
 120 613 120 613 145 636 c 128,-1,6
204 621 m 128,-1,14
 185 621 185 621 171 609 c 128,-1,15
 157 597 157 597 157 579 c 128,-1,16
 157 561 157 561 171.5 549 c 128,-1,17
 186 537 186 537 204 537 c 128,-1,18
 222 537 222 537 236.5 549 c 128,-1,19
 251 561 251 561 251 579 c 128,-1,20
 251 597 251 597 237 609 c 128,-1,13
 223 621 223 621 204 621 c 128,-1,14
92 442.5 m 128,-1,22
 132 476 132 476 198.5 476 c 128,-1,23
 265 476 265 476 299.5 442.5 c 128,-1,24
 334 409 334 409 334 348 c 2,25,-1
 334 78 l 2,26,27
 334 47 334 47 358 47 c 2,28,-1
 389 47 l 1,29,-1
 389 4 l 1,30,31
 372 -6 372 -6 345.5 -6 c 128,-1,32
 319 -6 319 -6 299.5 9.5 c 128,-1,33
 280 25 280 25 275 50 c 1,34,-1
 270 50 l 1,35,36
 233 -11 233 -11 158 -11 c 0,37,38
 69.3469387755 -11 69.3469387755 -11 43.5 63.5 c 0,39,40
 35 88 35 88 35 123 c 128,-1,41
 35 158 35 158 47 185.5 c 128,-1,42
 59 213 59 213 79 230 c 128,-1,43
 99 247 99 247 130 257 c 0,44,45
 182.7 274 182.7 274 271 274 c 1,46,-1
 271 337 l 2,47,48
 271 376 271 376 253.5 396.5 c 128,-1,49
 236 417 236 417 193.5 417 c 128,-1,50
 151 417 151 417 132.5 394 c 128,-1,51
 114 371 114 371 114 337 c 2,52,-1
 114 327 l 1,53,-1
 53 327 l 1,54,55
 52 332 52 332 52 347 c 0,56,21
 52 409 52 409 92 442.5 c 128,-1,22
272 166 m 2,57,-1
 272 212 l 1,58,59
 185 212 185 212 143.5 194 c 128,-1,60
 102 176 102 176 102 128.5 c 128,-1,61
 102 81 102 81 118.5 64 c 128,-1,62
 135 47 135 47 171 47 c 128,-1,63
 207 47 207 47 239.5 77.5 c 128,-1,64
 272 108 272 108 272 166 c 2,57,-1
EndSplineSet
EndChar

StartChar: atilde
Encoding: 227 227 139
Width: 403
GlyphClass: 2
Flags: W
HStem: -11 58<116.042 229.37 335.866 388.665> 4 43<346.935 389> 212 62<137.554 271> 417 59<135.394 253.928> 552 62<183.849 278.159> 578 61<131.911 229.115>
VStem: 35 67<60.5966 178.617> 52 62<327 397.058> 81 50<552 576.015> 271 63<89.1585 212 274 399.183> 279 50<614.598 639>
LayerCount: 2
Fore
SplineSet
279 639 m 1,0,-1
 329 639 l 1,1,2
 329 606 329 606 310 579 c 128,-1,3
 291 552 291 552 256 552 c 0,4,5
 237 552 237 552 206.5 565 c 128,-1,6
 176 578 176 578 160 578 c 0,7,8
 134 578 134 578 131 552 c 1,9,-1
 81 552 l 1,10,11
 81 585 81 585 100 612 c 128,-1,12
 119 639 119 639 154 639 c 0,13,14
 172 639 172 639 203 626.5 c 128,-1,15
 234 614 234 614 250 614 c 0,16,17
 276 614 276 614 279 639 c 1,0,-1
92 442.5 m 128,-1,19
 132 476 132 476 198.5 476 c 128,-1,20
 265 476 265 476 299.5 442.5 c 128,-1,21
 334 409 334 409 334 348 c 2,22,-1
 334 78 l 2,23,24
 334 47 334 47 358 47 c 2,25,-1
 389 47 l 1,26,-1
 389 4 l 1,27,28
 372 -6 372 -6 345.5 -6 c 128,-1,29
 319 -6 319 -6 299.5 9.5 c 128,-1,30
 280 25 280 25 275 50 c 1,31,-1
 270 50 l 1,32,33
 233 -11 233 -11 158 -11 c 0,34,35
 69.3469387755 -11 69.3469387755 -11 43.5 63.5 c 0,36,37
 35 88 35 88 35 123 c 128,-1,38
 35 158 35 158 47 185.5 c 128,-1,39
 59 213 59 213 79 230 c 128,-1,40
 99 247 99 247 130 257 c 0,41,42
 182.7 274 182.7 274 271 274 c 1,43,-1
 271 337 l 2,44,45
 271 376 271 376 253.5 396.5 c 128,-1,46
 236 417 236 417 193.5 417 c 128,-1,47
 151 417 151 417 132.5 394 c 128,-1,48
 114 371 114 371 114 337 c 2,49,-1
 114 327 l 1,50,-1
 53 327 l 1,51,52
 52 332 52 332 52 347 c 0,53,18
 52 409 52 409 92 442.5 c 128,-1,19
272 166 m 2,54,-1
 272 212 l 1,55,56
 185 212 185 212 143.5 194 c 128,-1,57
 102 176 102 176 102 128.5 c 128,-1,58
 102 81 102 81 118.5 64 c 128,-1,59
 135 47 135 47 171 47 c 128,-1,60
 207 47 207 47 239.5 77.5 c 128,-1,61
 272 108 272 108 272 166 c 2,54,-1
EndSplineSet
EndChar

StartChar: ae
Encoding: 230 230 140
Width: 644
GlyphClass: 2
Flags: W
HStem: -11 58<116.183 231.935 383.594 500.73> 212 62<138.49 273 339 529> 417 59<136.823 255.867 382.962 497.131>
VStem: 36 66<60.5966 178.617> 53 64<327 397.265> 274 65<97.5374 212 274 366.036> 529 66<76.9928 156 274 380.75>
AnchorPoint: "Anchor-1" 0 0 basechar 0
AnchorPoint: "Anchor-0" 323 465 basechar 0
LayerCount: 2
Fore
SplineSet
320 421 m 1,0,1
 363 476 363 476 443 476 c 128,-1,2
 523 476 523 476 559 426 c 128,-1,3
 595 376 595 376 595 264 c 2,4,-1
 595 212 l 1,5,-1
 339 212 l 1,6,7
 339 127 339 127 366 87.5 c 128,-1,8
 393 48 393 48 449 48 c 0,9,10
 486 48 486 48 510 77.5 c 128,-1,11
 534 107 534 107 534 156 c 1,12,-1
 595 156 l 1,13,14
 595 81 595 81 554.5 35 c 128,-1,15
 514 -11 514 -11 446 -11 c 0,16,17
 347 -11 347 -11 305 62 c 1,18,19
 250 -11 250 -11 173 -11 c 0,20,21
 36 -11 36 -11 36 120 c 0,22,23
 36 226.682539683 36 226.682539683 131.5 257 c 0,24,25
 185.05 274 185.05 274 274 274 c 1,26,-1
 274 337 l 2,27,28
 274 376 274 376 256 396.5 c 128,-1,29
 238 417 238 417 195 417 c 128,-1,30
 152 417 152 417 134.5 394 c 128,-1,31
 117 371 117 371 117 337 c 2,32,-1
 117 327 l 1,33,-1
 54 327 l 1,34,35
 53 332 53 332 53 347 c 0,36,37
 53 409 53 409 93.5 442.5 c 128,-1,38
 134 476 134 476 199 476 c 0,39,40
 287 476 287 476 320 421 c 1,0,1
447 417 m 0,41,42
 396 417 396 417 370.5 382 c 128,-1,43
 345 347 345 347 339 274 c 1,44,-1
 529 274 l 1,45,46
 529 417 529 417 447 417 c 0,41,42
273 157 m 2,47,-1
 273 212 l 1,48,49
 185 212 185 212 143.5 194 c 128,-1,50
 102 176 102 176 102 128.5 c 128,-1,51
 102 81 102 81 118.5 64 c 128,-1,52
 135 47 135 47 171.5 47 c 128,-1,53
 208 47 208 47 240.5 75 c 128,-1,54
 273 103 273 103 273 157 c 2,47,-1
EndSplineSet
EndChar

StartChar: aeacute
Encoding: 509 509 141
Width: 644
GlyphClass: 2
Flags: W
HStem: -11 58<116.183 231.935 383.594 500.73> 212 62<138.49 273 339 529> 417 59<136.823 255.867 382.962 497.131> 619 20G<335.009 420>
VStem: 36 66<60.5966 178.617> 53 64<327 397.265> 274 65<97.5374 212 274 366.036> 529 66<76.9928 156 274 380.75>
LayerCount: 2
Fore
SplineSet
325 522 m 1,0,-1
 272 522 l 1,1,-1
 348 639 l 1,2,-1
 419 639 l 1,3,-1
 420 636 l 1,4,-1
 325 522 l 1,0,-1
320 421 m 1,5,6
 363 476 363 476 443 476 c 128,-1,7
 523 476 523 476 559 426 c 128,-1,8
 595 376 595 376 595 264 c 2,9,-1
 595 212 l 1,10,-1
 339 212 l 1,11,12
 339 127 339 127 366 87.5 c 128,-1,13
 393 48 393 48 449 48 c 0,14,15
 486 48 486 48 510 77.5 c 128,-1,16
 534 107 534 107 534 156 c 1,17,-1
 595 156 l 1,18,19
 595 81 595 81 554.5 35 c 128,-1,20
 514 -11 514 -11 446 -11 c 0,21,22
 347 -11 347 -11 305 62 c 1,23,24
 250 -11 250 -11 173 -11 c 0,25,26
 36 -11 36 -11 36 120 c 0,27,28
 36 226.682539683 36 226.682539683 131.5 257 c 0,29,30
 185.05 274 185.05 274 274 274 c 1,31,-1
 274 337 l 2,32,33
 274 376 274 376 256 396.5 c 128,-1,34
 238 417 238 417 195 417 c 128,-1,35
 152 417 152 417 134.5 394 c 128,-1,36
 117 371 117 371 117 337 c 2,37,-1
 117 327 l 1,38,-1
 54 327 l 1,39,40
 53 332 53 332 53 347 c 0,41,42
 53 409 53 409 93.5 442.5 c 128,-1,43
 134 476 134 476 199 476 c 0,44,45
 287 476 287 476 320 421 c 1,5,6
447 417 m 0,46,47
 396 417 396 417 370.5 382 c 128,-1,48
 345 347 345 347 339 274 c 1,49,-1
 529 274 l 1,50,51
 529 417 529 417 447 417 c 0,46,47
273 157 m 2,52,-1
 273 212 l 1,53,54
 185 212 185 212 143.5 194 c 128,-1,55
 102 176 102 176 102 128.5 c 128,-1,56
 102 81 102 81 118.5 64 c 128,-1,57
 135 47 135 47 171.5 47 c 128,-1,58
 208 47 208 47 240.5 75 c 128,-1,59
 273 103 273 103 273 157 c 2,52,-1
EndSplineSet
EndChar

StartChar: b
Encoding: 98 98 142
Width: 391
GlyphClass: 2
Flags: W
HStem: -11 56<154.248 255.863> 0 21G<54 102.774> 420 56<154.472 256.046> 619 20G<54 117>
VStem: 54 63<87.75 376.375 422 639> 54 45<0 37.1> 290 66<86.2139 378.786>
LayerCount: 2
Fore
SplineSet
117 422 m 1,0,-1
 121 422 l 1,1,2
 133 447 133 447 159 461.5 c 128,-1,3
 185 476 185 476 219 476 c 0,4,5
 279 476 279 476 317.5 415 c 128,-1,6
 356 354 356 354 356 233 c 0,7,8
 356 -11 356 -11 214 -11 c 0,9,10
 147 -11 147 -11 113 53 c 1,11,-1
 109 53 l 1,12,-1
 99 0 l 1,13,-1
 54 0 l 1,14,-1
 54 639 l 1,15,-1
 117 639 l 1,16,-1
 117 422 l 1,0,-1
204 420 m 0,17,18
 117 420 117 420 117 245 c 2,19,-1
 117 216 l 2,20,21
 117 45 117 45 204 45 c 0,22,23
 247 45 247 45 268.5 85 c 128,-1,24
 290 125 290 125 290 216 c 2,25,-1
 290 249 l 2,26,27
 290 340 290 340 268.5 380 c 128,-1,28
 247 420 247 420 204 420 c 0,17,18
EndSplineSet
EndChar

StartChar: c
Encoding: 99 99 143
Width: 350
GlyphClass: 2
Flags: W
HStem: -11 58<133.581 236.195> 418 58<134.173 236.707>
VStem: 31 66<91.4308 373.287> 261 61<71.524 171 294 390.584>
AnchorPoint: "Anchor-1" 175 0 basechar 0
AnchorPoint: "Anchor-0" 175 465 basechar 0
LayerCount: 2
Fore
SplineSet
68.5 417 m 128,-1,1
 106 476 106 476 182.5 476 c 128,-1,2
 259 476 259 476 290.5 430 c 128,-1,3
 322 384 322 384 322 294 c 1,4,-1
 257 294 l 1,5,6
 257 360 257 360 242 389 c 128,-1,7
 227 418 227 418 186 418 c 0,8,9
 97 418 97 418 97 249 c 2,10,-1
 97 216 l 2,11,12
 97 47 97 47 185 47 c 0,13,14
 226 47 226 47 243.5 77.5 c 128,-1,15
 261 108 261 108 261 171 c 1,16,-1
 322 171 l 1,17,18
 322 96 322 96 289 42.5 c 128,-1,19
 256 -11 256 -11 180.5 -11 c 128,-1,20
 105 -11 105 -11 68 47.5 c 128,-1,21
 31 106 31 106 31 232 c 128,-1,0
 31 358 31 358 68.5 417 c 128,-1,1
EndSplineSet
EndChar

StartChar: cacute
Encoding: 263 263 144
Width: 350
GlyphClass: 2
Flags: W
HStem: -11 58<133.581 236.195> 418 58<134.173 236.707> 619 20G<196.009 281>
VStem: 31 66<91.4308 373.287> 261 61<71.524 171 294 390.584>
LayerCount: 2
Fore
SplineSet
187 522 m 1,0,-1
 133 522 l 1,1,-1
 209 639 l 1,2,-1
 281 639 l 1,3,-1
 281 636 l 1,4,-1
 187 522 l 1,0,-1
68.5 417 m 128,-1,6
 106 476 106 476 182.5 476 c 128,-1,7
 259 476 259 476 290.5 430 c 128,-1,8
 322 384 322 384 322 294 c 1,9,-1
 257 294 l 1,10,11
 257 360 257 360 242 389 c 128,-1,12
 227 418 227 418 186 418 c 0,13,14
 97 418 97 418 97 249 c 2,15,-1
 97 216 l 2,16,17
 97 47 97 47 185 47 c 0,18,19
 226 47 226 47 243.5 77.5 c 128,-1,20
 261 108 261 108 261 171 c 1,21,-1
 322 171 l 1,22,23
 322 96 322 96 289 42.5 c 128,-1,24
 256 -11 256 -11 180.5 -11 c 128,-1,25
 105 -11 105 -11 68 47.5 c 128,-1,26
 31 106 31 106 31 232 c 128,-1,5
 31 358 31 358 68.5 417 c 128,-1,6
EndSplineSet
EndChar

StartChar: ccaron
Encoding: 269 269 145
Width: 350
GlyphClass: 2
Flags: W
HStem: -11 58<133.581 236.195> 418 58<134.173 236.707> 619 20G<66 143.685 201.041 281>
VStem: 31 66<91.4308 373.287> 261 61<71.524 171 294 390.584>
LayerCount: 2
Fore
SplineSet
66 639 m 1,0,-1
 133 639 l 1,1,-1
 172 566 l 1,2,-1
 212 639 l 1,3,-1
 281 639 l 1,4,-1
 204 520 l 1,5,-1
 141 520 l 1,6,-1
 66 639 l 1,0,-1
68.5 417 m 128,-1,8
 106 476 106 476 182.5 476 c 128,-1,9
 259 476 259 476 290.5 430 c 128,-1,10
 322 384 322 384 322 294 c 1,11,-1
 257 294 l 1,12,13
 257 360 257 360 242 389 c 128,-1,14
 227 418 227 418 186 418 c 0,15,16
 97 418 97 418 97 249 c 2,17,-1
 97 216 l 2,18,19
 97 47 97 47 185 47 c 0,20,21
 226 47 226 47 243.5 77.5 c 128,-1,22
 261 108 261 108 261 171 c 1,23,-1
 322 171 l 1,24,25
 322 96 322 96 289 42.5 c 128,-1,26
 256 -11 256 -11 180.5 -11 c 128,-1,27
 105 -11 105 -11 68 47.5 c 128,-1,28
 31 106 31 106 31 232 c 128,-1,7
 31 358 31 358 68.5 417 c 128,-1,8
EndSplineSet
EndChar

StartChar: ccedilla
Encoding: 231 231 146
Width: 350
GlyphClass: 2
Flags: W
HStem: -161 50<89.9902 188.978> -154 43<89 161.871> -11 58<184 234.983> 418 58<134.173 236.707>
VStem: 31 66<91.0789 373.287> 189 65<-109.873 -68.7826> 261 61<71.803 171 294 390.584>
LayerCount: 2
Fore
SplineSet
68.5 417 m 128,-1,1
 106 476 106 476 182.5 476 c 128,-1,2
 259 476 259 476 290.5 430 c 128,-1,3
 322 384 322 384 322 294 c 1,4,-1
 257 294 l 1,5,6
 257 360 257 360 242 389 c 128,-1,7
 227 418 227 418 186 418 c 0,8,9
 97 418 97 418 97 249 c 2,10,-1
 97 216 l 2,11,12
 97 47 97 47 185 47 c 0,13,14
 226 47 226 47 243.5 77.5 c 128,-1,15
 261 108 261 108 261 171 c 1,16,-1
 322 171 l 1,17,18
 322 96 322 96 288.5 43 c 128,-1,19
 255 -10 255 -10 184 -11 c 1,20,-1
 182 -33 l 1,21,22
 254 -37 254 -37 254 -89 c 0,23,24
 254 -129 254 -129 226.5 -145 c 128,-1,25
 199 -161 199 -161 162.5 -161 c 128,-1,26
 126 -161 126 -161 89 -154 c 1,27,-1
 89 -111 l 1,28,-1
 157 -111 l 2,29,30
 189 -111 189 -111 189 -89.5 c 128,-1,31
 189 -68 189 -68 159 -68 c 2,32,-1
 130 -68 l 1,33,-1
 141 -4 l 1,34,35
 31 22 31 22 31 232 c 0,36,0
 31 358 31 358 68.5 417 c 128,-1,1
EndSplineSet
EndChar

StartChar: ccircumflex
Encoding: 265 265 147
Width: 350
GlyphClass: 2
Flags: W
HStem: -11 58<133.581 236.195> 418 58<134.173 236.707>
VStem: 31 66<91.4308 373.287> 261 61<71.524 171 294 390.584>
LayerCount: 2
Fore
SplineSet
173 591 m 1,0,-1
 133 519 l 1,1,-1
 66 519 l 1,2,-1
 142 638 l 1,3,-1
 206 638 l 1,4,-1
 281 519 l 1,5,-1
 212 519 l 1,6,-1
 173 591 l 1,0,-1
68.5 417 m 128,-1,8
 106 476 106 476 182.5 476 c 128,-1,9
 259 476 259 476 290.5 430 c 128,-1,10
 322 384 322 384 322 294 c 1,11,-1
 257 294 l 1,12,13
 257 360 257 360 242 389 c 128,-1,14
 227 418 227 418 186 418 c 0,15,16
 97 418 97 418 97 249 c 2,17,-1
 97 216 l 2,18,19
 97 47 97 47 185 47 c 0,20,21
 226 47 226 47 243.5 77.5 c 128,-1,22
 261 108 261 108 261 171 c 1,23,-1
 322 171 l 1,24,25
 322 96 322 96 289 42.5 c 128,-1,26
 256 -11 256 -11 180.5 -11 c 128,-1,27
 105 -11 105 -11 68 47.5 c 128,-1,28
 31 106 31 106 31 232 c 128,-1,7
 31 358 31 358 68.5 417 c 128,-1,8
EndSplineSet
EndChar

StartChar: cdotaccent
Encoding: 267 267 148
Width: 350
GlyphClass: 2
Flags: W
HStem: -11 58<133.581 236.195> 418 58<134.173 236.707> 560 79<137 209>
VStem: 31 66<91.4308 373.287> 137 72<560 639> 261 61<71.524 171 294 390.584>
LayerCount: 2
Fore
SplineSet
137 639 m 1,0,-1
 209 639 l 1,1,-1
 209 560 l 1,2,-1
 137 560 l 1,3,-1
 137 639 l 1,0,-1
68.5 417 m 128,-1,5
 106 476 106 476 182.5 476 c 128,-1,6
 259 476 259 476 290.5 430 c 128,-1,7
 322 384 322 384 322 294 c 1,8,-1
 257 294 l 1,9,10
 257 360 257 360 242 389 c 128,-1,11
 227 418 227 418 186 418 c 0,12,13
 97 418 97 418 97 249 c 2,14,-1
 97 216 l 2,15,16
 97 47 97 47 185 47 c 0,17,18
 226 47 226 47 243.5 77.5 c 128,-1,19
 261 108 261 108 261 171 c 1,20,-1
 322 171 l 1,21,22
 322 96 322 96 289 42.5 c 128,-1,23
 256 -11 256 -11 180.5 -11 c 128,-1,24
 105 -11 105 -11 68 47.5 c 128,-1,25
 31 106 31 106 31 232 c 128,-1,4
 31 358 31 358 68.5 417 c 128,-1,5
EndSplineSet
EndChar

StartChar: d
Encoding: 100 100 149
Width: 391
GlyphClass: 2
Flags: W
HStem: -11 56<134.978 236.86> 0 21G<288.981 337> 420 56<135.08 236.489> 619 20G<275 337>
VStem: 35 65<86.2139 378.786> 275 62<90.4636 373.602 422 639> 292 45<0 46.375>
LayerCount: 2
Fore
SplineSet
284 53 m 1,0,-1
 278 53 l 1,1,2
 246 -11 246 -11 177 -11 c 0,3,4
 35 -11 35 -11 35 233 c 0,5,6
 35 354 35 354 73.5 415 c 128,-1,7
 112 476 112 476 173 476 c 0,8,9
 206 476 206 476 232 461.5 c 128,-1,10
 258 447 258 447 270 422 c 1,11,-1
 275 422 l 1,12,-1
 275 639 l 1,13,-1
 337 639 l 1,14,-1
 337 0 l 1,15,-1
 292 0 l 1,16,-1
 284 53 l 1,0,-1
187 420 m 0,17,18
 144 420 144 420 122 380 c 128,-1,19
 100 340 100 340 100 249 c 2,20,-1
 100 216 l 2,21,22
 100 125 100 125 122 85 c 128,-1,23
 144 45 144 45 187 45 c 0,24,25
 275 45 275 45 275 216 c 2,26,-1
 275 245 l 2,27,28
 275 420 275 420 187 420 c 0,17,18
EndSplineSet
EndChar

StartChar: eth
Encoding: 240 240 150
Width: 391
GlyphClass: 2
Flags: W
HStem: -11 58<141.182 250.081> 418 58<139.853 233.595> 586 20G<209 308> 619 20G<100 176.5>
VStem: 35 65<96.4723 366.58> 290 67<96.4723 369.047>
LayerCount: 2
Fore
SplineSet
170 639 m 1,0,-1
 209 596 l 1,1,-1
 308 606 l 1,2,-1
 308 555 l 1,3,-1
 246 549 l 1,4,5
 357 402 357 402 357 232 c 0,6,7
 357 -11 357 -11 196 -11 c 128,-1,8
 35 -11 35 -11 35 232 c 0,9,10
 35 358 35 358 77.5 417 c 128,-1,11
 120 476 120 476 191 476 c 0,12,13
 212 476 212 476 234 464 c 1,14,15
 215 497 215 497 181 543 c 1,16,-1
 78 534 l 1,17,-1
 78 584 l 1,18,-1
 140 590 l 1,19,20
 111 625 111 625 100 636 c 1,21,-1
 102 639 l 1,22,-1
 170 639 l 1,0,-1
290 216 m 2,23,-1
 290 249 l 2,24,25
 290 418 290 418 196 418 c 0,26,27
 100 418 100 418 100 249 c 2,28,-1
 100 216 l 2,29,30
 100 47 100 47 196 47 c 0,31,32
 290 47 290 47 290 216 c 2,23,-1
EndSplineSet
EndChar

StartChar: dcaron
Encoding: 271 271 151
Width: 424
GlyphClass: 2
Flags: W
HStem: -11 56<134.978 236.86> 0 21G<288.981 337> 420 56<135.08 236.489> 519 87<374 406> 619 20G<275 337>
VStem: 35 65<86.2139 378.786> 275 62<90.4636 373.602 422 639> 292 45<0 46.375> 374 79<526 606>
LayerCount: 2
Fore
SplineSet
284 53 m 1,0,-1
 278 53 l 1,1,2
 246 -11 246 -11 177 -11 c 0,3,4
 35 -11 35 -11 35 233 c 0,5,6
 35 354 35 354 73.5 415 c 128,-1,7
 112 476 112 476 173 476 c 0,8,9
 206 476 206 476 232 461.5 c 128,-1,10
 258 447 258 447 270 422 c 1,11,-1
 275 422 l 1,12,-1
 275 639 l 1,13,-1
 337 639 l 1,14,-1
 337 0 l 1,15,-1
 292 0 l 1,16,-1
 284 53 l 1,0,-1
374 417 m 1,17,-1
 406 519 l 1,18,-1
 374 519 l 1,19,-1
 374 606 l 1,20,-1
 453 606 l 1,21,-1
 453 526 l 1,22,-1
 415 417 l 1,23,-1
 374 417 l 1,17,-1
187 420 m 0,24,25
 144 420 144 420 122 380 c 128,-1,26
 100 340 100 340 100 249 c 2,27,-1
 100 216 l 2,28,29
 100 125 100 125 122 85 c 128,-1,30
 144 45 144 45 187 45 c 0,31,32
 275 45 275 45 275 216 c 2,33,-1
 275 245 l 2,34,35
 275 420 275 420 187 420 c 0,24,25
EndSplineSet
EndChar

StartChar: dcroat
Encoding: 273 273 152
Width: 386
GlyphClass: 2
Flags: W
HStem: -11 56<134.978 236.86> 0 21G<288.981 337> 420 56<135.08 236.489> 515 55<182 275 337 389> 619 20G<275 337>
VStem: 35 65<86.2139 378.786> 275 62<90.4636 373.602 422 515 570 639> 292 45<0 46.375>
LayerCount: 2
Fore
SplineSet
389 570 m 1,0,-1
 389 515 l 1,1,-1
 337 515 l 1,2,-1
 337 0 l 1,3,-1
 292 0 l 1,4,-1
 284 53 l 1,5,-1
 278 53 l 1,6,7
 246 -11 246 -11 177 -11 c 0,8,9
 35 -11 35 -11 35 233 c 0,10,11
 35 354 35 354 73.5 415 c 128,-1,12
 112 476 112 476 173 476 c 0,13,14
 206 476 206 476 232 461.5 c 128,-1,15
 258 447 258 447 270 422 c 1,16,-1
 275 422 l 1,17,-1
 275 515 l 1,18,-1
 182 515 l 1,19,-1
 182 570 l 1,20,-1
 275 570 l 1,21,-1
 275 639 l 1,22,-1
 337 639 l 1,23,-1
 337 570 l 1,24,-1
 389 570 l 1,0,-1
187 420 m 0,25,26
 144 420 144 420 122 380 c 128,-1,27
 100 340 100 340 100 249 c 2,28,-1
 100 216 l 2,29,30
 100 125 100 125 122 85 c 128,-1,31
 144 45 144 45 187 45 c 0,32,33
 275 45 275 45 275 216 c 2,34,-1
 275 245 l 2,35,36
 275 420 275 420 187 420 c 0,25,26
EndSplineSet
EndChar

StartChar: e
Encoding: 101 101 153
Width: 403
GlyphClass: 2
Flags: W
HStem: -11 59<150.251 268.477> 212 62<107 297> 417 59<149.709 264.426>
VStem: 40 66<98.9812 212 274 363.035> 297 65<76.9928 156 274 380.75>
AnchorPoint: "Anchor-1" 202 0 basechar 0
AnchorPoint: "Anchor-0" 202 465 basechar 0
LayerCount: 2
Fore
SplineSet
40 232 m 0,0,1
 40 476 40 476 207.5 476 c 0,2,3
 290 476 290 476 326 426.5 c 128,-1,4
 362 377 362 377 362 264 c 2,5,-1
 362 212 l 1,6,-1
 106 212 l 1,7,8
 107 127 107 127 134 87.5 c 128,-1,9
 161 48 161 48 217 48 c 0,10,11
 253 48 253 48 276.5 77.5 c 128,-1,12
 300 107 300 107 300 156 c 1,13,-1
 362 156 l 1,14,15
 362 81 362 81 321.5 35 c 128,-1,16
 281 -11 281 -11 214 -11 c 0,17,18
 126 -11 126 -11 83 47 c 128,-1,19
 40 105 40 105 40 232 c 0,0,1
214 417 m 0,20,21
 163 417 163 417 137.5 382 c 128,-1,22
 112 347 112 347 107 274 c 1,23,-1
 297 274 l 1,24,25
 297 417 297 417 214 417 c 0,20,21
EndSplineSet
EndChar

StartChar: eacute
Encoding: 233 233 154
Width: 403
GlyphClass: 2
Flags: W
HStem: -11 59<150.251 268.477> 212 62<107 297> 417 59<149.709 264.426> 619 20G<227.009 313>
VStem: 40 66<98.9812 212 274 363.035> 297 65<76.9928 156 274 380.75>
LayerCount: 2
Fore
SplineSet
219 522 m 1,0,-1
 164 522 l 1,1,-1
 240 639 l 1,2,-1
 312 639 l 1,3,-1
 313 636 l 1,4,-1
 219 522 l 1,0,-1
40 232 m 0,5,6
 40 476 40 476 207.5 476 c 0,7,8
 290 476 290 476 326 426.5 c 128,-1,9
 362 377 362 377 362 264 c 2,10,-1
 362 212 l 1,11,-1
 106 212 l 1,12,13
 107 127 107 127 134 87.5 c 128,-1,14
 161 48 161 48 217 48 c 0,15,16
 253 48 253 48 276.5 77.5 c 128,-1,17
 300 107 300 107 300 156 c 1,18,-1
 362 156 l 1,19,20
 362 81 362 81 321.5 35 c 128,-1,21
 281 -11 281 -11 214 -11 c 0,22,23
 126 -11 126 -11 83 47 c 128,-1,24
 40 105 40 105 40 232 c 0,5,6
214 417 m 0,25,26
 163 417 163 417 137.5 382 c 128,-1,27
 112 347 112 347 107 274 c 1,28,-1
 297 274 l 1,29,30
 297 417 297 417 214 417 c 0,25,26
EndSplineSet
EndChar

StartChar: ebreve
Encoding: 277 277 155
Width: 403
GlyphClass: 2
Flags: W
HStem: -11 59<150.251 268.477> 212 62<107 297> 417 59<149.709 264.426> 555 55<153.328 251.572> 619 20G<94 150.5 254 308>
VStem: 40 66<98.9812 212 274 363.035> 94 55<616.766 639> 255 53<616.942 639> 297 65<76.9928 156 274 380.75>
LayerCount: 2
Fore
SplineSet
255 639 m 1,0,-1
 308 639 l 1,1,2
 308 607 308 607 278.5 581 c 128,-1,3
 249 555 249 555 201.5 555 c 128,-1,4
 154 555 154 555 124 581 c 128,-1,5
 94 607 94 607 94 639 c 1,6,-1
 149 639 l 1,7,8
 152 628 152 628 166 619 c 128,-1,9
 180 610 180 610 201.5 610 c 128,-1,10
 223 610 223 610 238 619.5 c 128,-1,11
 253 629 253 629 255 639 c 1,0,-1
40 232 m 0,12,13
 40 476 40 476 207.5 476 c 0,14,15
 290 476 290 476 326 426.5 c 128,-1,16
 362 377 362 377 362 264 c 2,17,-1
 362 212 l 1,18,-1
 106 212 l 1,19,20
 107 127 107 127 134 87.5 c 128,-1,21
 161 48 161 48 217 48 c 0,22,23
 253 48 253 48 276.5 77.5 c 128,-1,24
 300 107 300 107 300 156 c 1,25,-1
 362 156 l 1,26,27
 362 81 362 81 321.5 35 c 128,-1,28
 281 -11 281 -11 214 -11 c 0,29,30
 126 -11 126 -11 83 47 c 128,-1,31
 40 105 40 105 40 232 c 0,12,13
214 417 m 0,32,33
 163 417 163 417 137.5 382 c 128,-1,34
 112 347 112 347 107 274 c 1,35,-1
 297 274 l 1,36,37
 297 417 297 417 214 417 c 0,32,33
EndSplineSet
EndChar

StartChar: ecaron
Encoding: 283 283 156
Width: 403
GlyphClass: 2
Flags: W
HStem: -11 59<150.251 268.477> 212 62<107 297> 417 59<149.709 264.426> 619 20G<95 173.685 230.315 310>
VStem: 40 66<98.9812 212 274 363.035> 297 65<76.9928 156 274 380.75>
LayerCount: 2
Fore
SplineSet
95 639 m 1,0,-1
 163 639 l 1,1,-1
 202 566 l 1,2,-1
 241 639 l 1,3,-1
 310 639 l 1,4,-1
 233 520 l 1,5,-1
 168 520 l 1,6,-1
 95 639 l 1,0,-1
40 232 m 0,7,8
 40 476 40 476 207.5 476 c 0,9,10
 290 476 290 476 326 426.5 c 128,-1,11
 362 377 362 377 362 264 c 2,12,-1
 362 212 l 1,13,-1
 106 212 l 1,14,15
 107 127 107 127 134 87.5 c 128,-1,16
 161 48 161 48 217 48 c 0,17,18
 253 48 253 48 276.5 77.5 c 128,-1,19
 300 107 300 107 300 156 c 1,20,-1
 362 156 l 1,21,22
 362 81 362 81 321.5 35 c 128,-1,23
 281 -11 281 -11 214 -11 c 0,24,25
 126 -11 126 -11 83 47 c 128,-1,26
 40 105 40 105 40 232 c 0,7,8
214 417 m 0,27,28
 163 417 163 417 137.5 382 c 128,-1,29
 112 347 112 347 107 274 c 1,30,-1
 297 274 l 1,31,32
 297 417 297 417 214 417 c 0,27,28
EndSplineSet
EndChar

StartChar: ecircumflex
Encoding: 234 234 157
Width: 403
GlyphClass: 2
Flags: W
HStem: -11 59<150.251 268.477> 212 62<107 297> 417 59<149.709 264.426>
VStem: 40 66<98.9812 212 274 363.035> 297 65<76.9928 156 274 380.75>
LayerCount: 2
Fore
SplineSet
202 591 m 1,0,-1
 163 519 l 1,1,-1
 95 519 l 1,2,-1
 170 638 l 1,3,-1
 235 638 l 1,4,-1
 310 519 l 1,5,-1
 241 519 l 1,6,-1
 202 591 l 1,0,-1
40 232 m 0,7,8
 40 476 40 476 207.5 476 c 0,9,10
 290 476 290 476 326 426.5 c 128,-1,11
 362 377 362 377 362 264 c 2,12,-1
 362 212 l 1,13,-1
 106 212 l 1,14,15
 107 127 107 127 134 87.5 c 128,-1,16
 161 48 161 48 217 48 c 0,17,18
 253 48 253 48 276.5 77.5 c 128,-1,19
 300 107 300 107 300 156 c 1,20,-1
 362 156 l 1,21,22
 362 81 362 81 321.5 35 c 128,-1,23
 281 -11 281 -11 214 -11 c 0,24,25
 126 -11 126 -11 83 47 c 128,-1,26
 40 105 40 105 40 232 c 0,7,8
214 417 m 0,27,28
 163 417 163 417 137.5 382 c 128,-1,29
 112 347 112 347 107 274 c 1,30,-1
 297 274 l 1,31,32
 297 417 297 417 214 417 c 0,27,28
EndSplineSet
EndChar

StartChar: edieresis
Encoding: 235 235 158
Width: 403
GlyphClass: 2
Flags: W
HStem: -11 59<150.251 268.477> 212 62<107 297> 417 59<149.709 264.426> 559 80<101 174 227 302>
VStem: 40 66<98.9812 212 274 363.035> 101 73<559 639> 227 75<559 639> 297 65<76.9928 156 274 380.75>
LayerCount: 2
Fore
SplineSet
101 559 m 1,0,-1
 101 639 l 1,1,-1
 174 639 l 1,2,-1
 174 559 l 1,3,-1
 101 559 l 1,0,-1
227 559 m 1,4,-1
 227 639 l 1,5,-1
 302 639 l 1,6,-1
 302 559 l 1,7,-1
 227 559 l 1,4,-1
40 232 m 0,8,9
 40 476 40 476 207.5 476 c 0,10,11
 290 476 290 476 326 426.5 c 128,-1,12
 362 377 362 377 362 264 c 2,13,-1
 362 212 l 1,14,-1
 106 212 l 1,15,16
 107 127 107 127 134 87.5 c 128,-1,17
 161 48 161 48 217 48 c 0,18,19
 253 48 253 48 276.5 77.5 c 128,-1,20
 300 107 300 107 300 156 c 1,21,-1
 362 156 l 1,22,23
 362 81 362 81 321.5 35 c 128,-1,24
 281 -11 281 -11 214 -11 c 0,25,26
 126 -11 126 -11 83 47 c 128,-1,27
 40 105 40 105 40 232 c 0,8,9
214 417 m 0,28,29
 163 417 163 417 137.5 382 c 128,-1,30
 112 347 112 347 107 274 c 1,31,-1
 297 274 l 1,32,33
 297 417 297 417 214 417 c 0,28,29
EndSplineSet
EndChar

StartChar: edotaccent
Encoding: 279 279 159
Width: 403
GlyphClass: 2
Flags: W
HStem: -11 59<150.251 268.477> 212 62<107 297> 417 59<149.709 264.426> 560 79<167 238>
VStem: 40 66<98.9812 212 274 363.035> 167 71<560 639> 297 65<76.9928 156 274 380.75>
LayerCount: 2
Fore
SplineSet
167 639 m 1,0,-1
 238 639 l 1,1,-1
 238 560 l 1,2,-1
 167 560 l 1,3,-1
 167 639 l 1,0,-1
40 232 m 0,4,5
 40 476 40 476 207.5 476 c 0,6,7
 290 476 290 476 326 426.5 c 128,-1,8
 362 377 362 377 362 264 c 2,9,-1
 362 212 l 1,10,-1
 106 212 l 1,11,12
 107 127 107 127 134 87.5 c 128,-1,13
 161 48 161 48 217 48 c 0,14,15
 253 48 253 48 276.5 77.5 c 128,-1,16
 300 107 300 107 300 156 c 1,17,-1
 362 156 l 1,18,19
 362 81 362 81 321.5 35 c 128,-1,20
 281 -11 281 -11 214 -11 c 0,21,22
 126 -11 126 -11 83 47 c 128,-1,23
 40 105 40 105 40 232 c 0,4,5
214 417 m 0,24,25
 163 417 163 417 137.5 382 c 128,-1,26
 112 347 112 347 107 274 c 1,27,-1
 297 274 l 1,28,29
 297 417 297 417 214 417 c 0,24,25
EndSplineSet
EndChar

StartChar: egrave
Encoding: 232 232 160
Width: 403
GlyphClass: 2
Flags: W
HStem: -11 59<150.251 268.477> 212 62<107 297> 417 59<149.709 264.426> 619 20G<116 200.991>
VStem: 40 66<98.9812 212 274 363.035> 297 65<76.9928 156 274 380.75>
LayerCount: 2
Fore
SplineSet
211 522 m 1,0,-1
 116 636 l 1,1,-1
 117 639 l 1,2,-1
 188 639 l 1,3,-1
 264 522 l 1,4,-1
 211 522 l 1,0,-1
40 232 m 0,5,6
 40 476 40 476 207.5 476 c 0,7,8
 290 476 290 476 326 426.5 c 128,-1,9
 362 377 362 377 362 264 c 2,10,-1
 362 212 l 1,11,-1
 106 212 l 1,12,13
 107 127 107 127 134 87.5 c 128,-1,14
 161 48 161 48 217 48 c 0,15,16
 253 48 253 48 276.5 77.5 c 128,-1,17
 300 107 300 107 300 156 c 1,18,-1
 362 156 l 1,19,20
 362 81 362 81 321.5 35 c 128,-1,21
 281 -11 281 -11 214 -11 c 0,22,23
 126 -11 126 -11 83 47 c 128,-1,24
 40 105 40 105 40 232 c 0,5,6
214 417 m 0,25,26
 163 417 163 417 137.5 382 c 128,-1,27
 112 347 112 347 107 274 c 1,28,-1
 297 274 l 1,29,30
 297 417 297 417 214 417 c 0,25,26
EndSplineSet
EndChar

StartChar: emacron
Encoding: 275 275 161
Width: 403
GlyphClass: 2
Flags: W
HStem: -11 59<150.251 268.477> 212 62<107 297> 417 59<149.709 264.426> 530 59<92 313>
VStem: 40 66<98.9812 212 274 363.035> 297 65<76.9928 156 274 380.75>
LayerCount: 2
Fore
SplineSet
92 589 m 1,0,-1
 313 589 l 1,1,-1
 313 530 l 1,2,-1
 92 530 l 1,3,-1
 92 589 l 1,0,-1
40 232 m 0,4,5
 40 476 40 476 207.5 476 c 0,6,7
 290 476 290 476 326 426.5 c 128,-1,8
 362 377 362 377 362 264 c 2,9,-1
 362 212 l 1,10,-1
 106 212 l 1,11,12
 107 127 107 127 134 87.5 c 128,-1,13
 161 48 161 48 217 48 c 0,14,15
 253 48 253 48 276.5 77.5 c 128,-1,16
 300 107 300 107 300 156 c 1,17,-1
 362 156 l 1,18,19
 362 81 362 81 321.5 35 c 128,-1,20
 281 -11 281 -11 214 -11 c 0,21,22
 126 -11 126 -11 83 47 c 128,-1,23
 40 105 40 105 40 232 c 0,4,5
214 417 m 0,24,25
 163 417 163 417 137.5 382 c 128,-1,26
 112 347 112 347 107 274 c 1,27,-1
 297 274 l 1,28,29
 297 417 297 417 214 417 c 0,24,25
EndSplineSet
EndChar

StartChar: eogonek
Encoding: 281 281 162
Width: 403
GlyphClass: 2
Flags: W
HStem: -160 57<265.453 330.112> -148 45<278.842 331> -11 59<150.879 219> 212 62<107 297> 417 59<149.709 264.426>
VStem: 40 66<98.9812 212 274 363.035> 196 64<-98.7692 -10.4996> 297 65<77.234 156 274 380.75>
LayerCount: 2
Fore
SplineSet
362 212 m 1,0,-1
 106 212 l 1,1,2
 107 127 107 127 134 87.5 c 128,-1,3
 161 48 161 48 217 48 c 0,4,5
 253 48 253 48 276.5 77.5 c 128,-1,6
 300 107 300 107 300 156 c 1,7,-1
 362 156 l 1,8,9
 362 49 362 49 286 7 c 1,10,11
 260 -21 260 -21 260 -54 c 0,12,13
 260 -103 260 -103 300 -103 c 2,14,-1
 331 -103 l 1,15,-1
 331 -148 l 1,16,17
 298 -160 298 -160 271.5 -160 c 0,18,19
 245 -160 245 -160 220.5 -141 c 128,-1,20
 196 -122 196 -122 196 -82.5 c 0,21,22
 196 -43 196 -43 219 -11 c 1,23,-1
 214 -11 l 2,24,25
 126 -11 126 -11 83 47 c 128,-1,26
 40 105 40 105 40 231.5 c 0,27,28
 40 358 40 358 82.5 417 c 128,-1,29
 125 476 125 476 207.5 476 c 0,30,31
 290 476 290 476 326 426.5 c 128,-1,32
 362 377 362 377 362 264 c 2,33,-1
 362 212 l 1,0,-1
107 274 m 1,34,-1
 297 274 l 1,35,36
 297 417 297 417 214 417 c 0,37,38
 163 417 163 417 137.5 382 c 128,-1,39
 112 347 112 347 107 274 c 1,34,-1
EndSplineSet
EndChar

StartChar: f
Encoding: 102 102 163
Width: 191
GlyphClass: 2
Flags: W
HStem: 0 21G<47 109> 407 58<8 47 109 191> 593 53<113.667 190.292> 593 43<134.939 191>
VStem: 47 62<0 407 465 588.087>
LayerCount: 2
Fore
SplineSet
134 646 m 0,0,1
 161 646 161 646 191 636 c 1,2,-1
 191 593 l 1,3,-1
 153 593 l 2,4,5
 109 593 109 593 109 550 c 2,6,-1
 109 465 l 1,7,-1
 191 465 l 1,8,-1
 191 407 l 1,9,-1
 109 407 l 1,10,-1
 109 0 l 1,11,-1
 47 0 l 1,12,-1
 47 407 l 1,13,-1
 8 407 l 1,14,-1
 8 465 l 1,15,-1
 47 465 l 1,16,-1
 47 544 l 2,17,18
 47 588 47 588 67.5 617 c 128,-1,19
 88 646 88 646 134 646 c 0,0,1
EndSplineSet
EndChar

StartChar: g
Encoding: 103 103 164
Width: 391
GlyphClass: 2
Flags: W
HStem: -161 58<84.5343 304.861> 13 60<106.754 307.145> 164 55<131.795 245.591> 420 56<133.12 247.493>
VStem: 10 63<-92.3174 2.85056> 33 67<79.959 157.003> 44 63<244.284 392.617> 273 63<247.031 394.108> 316 56<488.468 539> 318 63<-90.4652 2.66333>
AnchorPoint: "Anchor-1" 0 0 basechar 0
AnchorPoint: "Anchor-0" 196 465 basechar 0
LayerCount: 2
Fore
SplineSet
316 539 m 1,0,-1
 372 539 l 1,1,2
 372 499 372 499 351 469 c 128,-1,3
 330 439 330 439 294 430 c 1,4,5
 336 386 336 386 336 317 c 128,-1,6
 336 248 336 248 297.5 206.5 c 128,-1,7
 259 165 259 165 196 164 c 1,8,-1
 145 164 l 2,9,10
 126 164 126 164 113 150.5 c 128,-1,11
 100 137 100 137 100 118 c 128,-1,12
 100 99 100 99 113.5 86 c 128,-1,13
 127 73 127 73 146 73 c 2,14,-1
 271 73 l 2,15,16
 321 73 321 73 351 42 c 128,-1,17
 381 11 381 11 381 -39 c 128,-1,18
 381 -89 381 -89 347.5 -125 c 128,-1,19
 314 -161 314 -161 249 -161 c 2,20,-1
 129 -161 l 2,21,22
 71 -161 71 -161 40.5 -129 c 128,-1,23
 10 -97 10 -97 10 -55.5 c 128,-1,24
 10 -14 10 -14 26.5 14 c 128,-1,25
 43 42 43 42 72 51 c 1,26,27
 33 76 33 76 33 120 c 0,28,29
 33 147 33 147 50 168.5 c 128,-1,30
 67 190 67 190 97 201 c 1,31,32
 44 244 44 244 44 318 c 128,-1,33
 44 392 44 392 83.5 434 c 128,-1,34
 123 476 123 476 190 476 c 0,35,36
 222 476 222 476 254 458 c 1,37,38
 284 473 284 473 297.5 492 c 128,-1,39
 311 511 311 511 316 539 c 1,0,-1
251.5 394.5 m 128,-1,41
 230 420 230 420 189.5 420 c 128,-1,42
 149 420 149 420 128 393.5 c 128,-1,43
 107 367 107 367 107 320 c 0,44,45
 107 219 107 219 189 219 c 0,46,47
 229 219 229 219 251 246 c 128,-1,48
 273 273 273 273 273 321 c 128,-1,40
 273 369 273 369 251.5 394.5 c 128,-1,41
260 13 m 2,49,-1
 130 13 l 2,50,51
 73 13 73 13 73 -45 c 0,52,53
 73 -70 73 -70 87.5 -86.5 c 128,-1,54
 102 -103 102 -103 130 -103 c 2,55,-1
 261 -103 l 2,56,57
 285 -103 285 -103 301.5 -86 c 128,-1,58
 318 -69 318 -69 318 -44.5 c 128,-1,59
 318 -20 318 -20 303.5 -3.5 c 128,-1,60
 289 13 289 13 260 13 c 2,49,-1
EndSplineSet
EndChar

StartChar: gbreve
Encoding: 287 287 165
Width: 391
GlyphClass: 2
Flags: W
HStem: -161 58<84.5343 304.861> 13 60<106.754 307.145> 164 55<131.795 245.591> 420 56<133.12 247.493> 555 55<146.849 246.572> 619 20G<89 145 249 303>
VStem: 10 63<-92.3174 2.85056> 33 67<79.959 157.003> 44 63<244.284 392.617> 89 54<618.618 639> 250 53<616.942 639> 273 63<247.031 394.108> 316 56<488.468 539> 318 63<-90.4652 2.66333>
LayerCount: 2
Fore
SplineSet
250 639 m 1,0,-1
 303 639 l 1,1,2
 303 607 303 607 273.5 581 c 128,-1,3
 244 555 244 555 196.5 555 c 128,-1,4
 149 555 149 555 119 581 c 128,-1,5
 89 607 89 607 89 639 c 1,6,-1
 143 639 l 1,7,8
 147 628 147 628 161 619 c 128,-1,9
 175 610 175 610 196.5 610 c 128,-1,10
 218 610 218 610 233 619.5 c 128,-1,11
 248 629 248 629 250 639 c 1,0,-1
316 539 m 1,12,-1
 372 539 l 1,13,14
 372 499 372 499 351 469 c 128,-1,15
 330 439 330 439 294 430 c 1,16,17
 336 386 336 386 336 317 c 128,-1,18
 336 248 336 248 297.5 206.5 c 128,-1,19
 259 165 259 165 196 164 c 1,20,-1
 145 164 l 2,21,22
 126 164 126 164 113 150.5 c 128,-1,23
 100 137 100 137 100 118 c 128,-1,24
 100 99 100 99 113.5 86 c 128,-1,25
 127 73 127 73 146 73 c 2,26,-1
 271 73 l 2,27,28
 321 73 321 73 351 42 c 128,-1,29
 381 11 381 11 381 -39 c 128,-1,30
 381 -89 381 -89 347.5 -125 c 128,-1,31
 314 -161 314 -161 249 -161 c 2,32,-1
 129 -161 l 2,33,34
 71 -161 71 -161 40.5 -129 c 128,-1,35
 10 -97 10 -97 10 -55.5 c 128,-1,36
 10 -14 10 -14 26.5 14 c 128,-1,37
 43 42 43 42 72 51 c 1,38,39
 33 76 33 76 33 120 c 0,40,41
 33 147 33 147 50 168.5 c 128,-1,42
 67 190 67 190 97 201 c 1,43,44
 44 244 44 244 44 318 c 128,-1,45
 44 392 44 392 83.5 434 c 128,-1,46
 123 476 123 476 190 476 c 0,47,48
 222 476 222 476 254 458 c 1,49,50
 284 473 284 473 297.5 492 c 128,-1,51
 311 511 311 511 316 539 c 1,12,-1
251.5 394.5 m 128,-1,53
 230 420 230 420 189.5 420 c 128,-1,54
 149 420 149 420 128 393.5 c 128,-1,55
 107 367 107 367 107 320 c 0,56,57
 107 219 107 219 189 219 c 0,58,59
 229 219 229 219 251 246 c 128,-1,60
 273 273 273 273 273 321 c 128,-1,52
 273 369 273 369 251.5 394.5 c 128,-1,53
260 13 m 2,61,-1
 130 13 l 2,62,63
 73 13 73 13 73 -45 c 0,64,65
 73 -70 73 -70 87.5 -86.5 c 128,-1,66
 102 -103 102 -103 130 -103 c 2,67,-1
 261 -103 l 2,68,69
 285 -103 285 -103 301.5 -86 c 128,-1,70
 318 -69 318 -69 318 -44.5 c 128,-1,71
 318 -20 318 -20 303.5 -3.5 c 128,-1,72
 289 13 289 13 260 13 c 2,61,-1
EndSplineSet
EndChar

StartChar: gcircumflex
Encoding: 285 285 166
Width: 391
GlyphClass: 2
Flags: W
HStem: -161 58<84.5343 304.861> 13 60<106.754 307.145> 164 55<131.795 245.591> 420 56<133.12 247.493>
VStem: 10 63<-92.3174 2.85056> 33 67<79.959 157.003> 44 63<244.284 392.617> 273 63<247.031 394.108> 316 56<486.747 539> 318 63<-90.4652 2.66333>
LayerCount: 2
Fore
SplineSet
196 591 m 1,0,-1
 158 519 l 1,1,-1
 89 519 l 1,2,-1
 164 638 l 1,3,-1
 229 638 l 1,4,-1
 304 519 l 1,5,-1
 235 519 l 1,6,-1
 196 591 l 1,0,-1
316 539 m 1,7,-1
 372 539 l 1,8,9
 372 499 372 499 351 469 c 128,-1,10
 330 439 330 439 294 430 c 1,11,12
 336 386 336 386 336 317 c 128,-1,13
 336 248 336 248 297.5 206.5 c 128,-1,14
 259 165 259 165 196 164 c 1,15,-1
 145 164 l 2,16,17
 126 164 126 164 113 150.5 c 128,-1,18
 100 137 100 137 100 118 c 128,-1,19
 100 99 100 99 113.5 86 c 128,-1,20
 127 73 127 73 146 73 c 2,21,-1
 271 73 l 2,22,23
 321 73 321 73 351 42 c 128,-1,24
 381 11 381 11 381 -39 c 128,-1,25
 381 -89 381 -89 347.5 -125 c 128,-1,26
 314 -161 314 -161 249 -161 c 2,27,-1
 129 -161 l 2,28,29
 71 -161 71 -161 40.5 -129 c 128,-1,30
 10 -97 10 -97 10 -55.5 c 128,-1,31
 10 -14 10 -14 26.5 14 c 128,-1,32
 43 42 43 42 72 51 c 1,33,34
 33 76 33 76 33 120 c 0,35,36
 33 147 33 147 50 168.5 c 128,-1,37
 67 190 67 190 97 201 c 1,38,39
 44 244 44 244 44 318 c 128,-1,40
 44 392 44 392 83.5 434 c 128,-1,41
 123 476 123 476 190 476 c 0,42,43
 222 476 222 476 254 458 c 1,44,45
 285.5 479 285.5 479 290.75 483.5 c 128,-1,46
 296 488 296 488 303.5 496.5 c 0,47,48
 313.797927461 508.170984456 313.797927461 508.170984456 316 539 c 1,7,-1
251.5 394.5 m 128,-1,50
 230 420 230 420 189.5 420 c 128,-1,51
 149 420 149 420 128 393.5 c 128,-1,52
 107 367 107 367 107 320 c 0,53,54
 107 219 107 219 189 219 c 0,55,56
 229 219 229 219 251 246 c 128,-1,57
 273 273 273 273 273 321 c 128,-1,49
 273 369 273 369 251.5 394.5 c 128,-1,50
260 13 m 2,58,-1
 130 13 l 2,59,60
 73 13 73 13 73 -45 c 0,61,62
 73 -70 73 -70 87.5 -86.5 c 128,-1,63
 102 -103 102 -103 130 -103 c 2,64,-1
 261 -103 l 2,65,66
 285 -103 285 -103 301.5 -86 c 128,-1,67
 318 -69 318 -69 318 -44.5 c 128,-1,68
 318 -20 318 -20 303.5 -3.5 c 128,-1,69
 289 13 289 13 260 13 c 2,58,-1
EndSplineSet
EndChar

StartChar: gcommaaccent
Encoding: 291 291 167
Width: 391
GlyphClass: 2
Flags: W
HStem: -161 58<84.5343 304.861> 13 60<106.754 307.145> 164 55<131.795 245.591> 420 56<133.12 247.493> 527 72<188 214>
VStem: 10 63<-92.3174 2.85056> 33 67<79.959 157.003> 44 63<244.284 392.617> 148 66<527 594> 273 63<247.031 394.108> 316 56<488.468 539> 318 63<-90.4652 2.66333>
LayerCount: 2
Fore
SplineSet
214 599 m 1,0,-1
 214 527 l 1,1,-1
 148 527 l 1,2,-1
 148 594 l 1,3,-1
 171 658 l 1,4,-1
 204 658 l 1,5,-1
 188 599 l 1,6,-1
 214 599 l 1,0,-1
316 539 m 1,7,-1
 372 539 l 1,8,9
 372 499 372 499 351 469 c 128,-1,10
 330 439 330 439 294 430 c 1,11,12
 336 386 336 386 336 317 c 128,-1,13
 336 248 336 248 297.5 206.5 c 128,-1,14
 259 165 259 165 196 164 c 1,15,-1
 145 164 l 2,16,17
 126 164 126 164 113 150.5 c 128,-1,18
 100 137 100 137 100 118 c 128,-1,19
 100 99 100 99 113.5 86 c 128,-1,20
 127 73 127 73 146 73 c 2,21,-1
 271 73 l 2,22,23
 321 73 321 73 351 42 c 128,-1,24
 381 11 381 11 381 -39 c 128,-1,25
 381 -89 381 -89 347.5 -125 c 128,-1,26
 314 -161 314 -161 249 -161 c 2,27,-1
 129 -161 l 2,28,29
 71 -161 71 -161 40.5 -129 c 128,-1,30
 10 -97 10 -97 10 -55.5 c 128,-1,31
 10 -14 10 -14 26.5 14 c 128,-1,32
 43 42 43 42 72 51 c 1,33,34
 33 76 33 76 33 120 c 0,35,36
 33 147 33 147 50 168.5 c 128,-1,37
 67 190 67 190 97 201 c 1,38,39
 44 244 44 244 44 318 c 128,-1,40
 44 392 44 392 83.5 434 c 128,-1,41
 123 476 123 476 190 476 c 0,42,43
 222 476 222 476 254 458 c 1,44,45
 284 473 284 473 297.5 492 c 128,-1,46
 311 511 311 511 316 539 c 1,7,-1
251.5 394.5 m 128,-1,48
 230 420 230 420 189.5 420 c 128,-1,49
 149 420 149 420 128 393.5 c 128,-1,50
 107 367 107 367 107 320 c 0,51,52
 107 219 107 219 189 219 c 0,53,54
 229 219 229 219 251 246 c 128,-1,55
 273 273 273 273 273 321 c 128,-1,47
 273 369 273 369 251.5 394.5 c 128,-1,48
260 13 m 2,56,-1
 130 13 l 2,57,58
 73 13 73 13 73 -45 c 0,59,60
 73 -70 73 -70 87.5 -86.5 c 128,-1,61
 102 -103 102 -103 130 -103 c 2,62,-1
 261 -103 l 2,63,64
 285 -103 285 -103 301.5 -86 c 128,-1,65
 318 -69 318 -69 318 -44.5 c 128,-1,66
 318 -20 318 -20 303.5 -3.5 c 128,-1,67
 289 13 289 13 260 13 c 2,56,-1
EndSplineSet
EndChar

StartChar: gdotaccent
Encoding: 289 289 168
Width: 391
GlyphClass: 2
Flags: W
HStem: -161 58<84.5343 304.861> 13 60<106.754 307.145> 164 55<131.795 245.591> 420 56<133.12 247.493> 560 79<161 231>
VStem: 10 63<-92.3174 2.85056> 33 67<79.959 157.003> 44 63<244.284 392.617> 161 70<560 639> 273 63<247.031 394.108> 316 56<488.468 539> 318 63<-90.4652 2.66333>
LayerCount: 2
Fore
SplineSet
161 639 m 1,0,-1
 231 639 l 1,1,-1
 231 560 l 1,2,-1
 161 560 l 1,3,-1
 161 639 l 1,0,-1
316 539 m 1,4,-1
 372 539 l 1,5,6
 372 499 372 499 351 469 c 128,-1,7
 330 439 330 439 294 430 c 1,8,9
 336 386 336 386 336 317 c 128,-1,10
 336 248 336 248 297.5 206.5 c 128,-1,11
 259 165 259 165 196 164 c 1,12,-1
 145 164 l 2,13,14
 126 164 126 164 113 150.5 c 128,-1,15
 100 137 100 137 100 118 c 128,-1,16
 100 99 100 99 113.5 86 c 128,-1,17
 127 73 127 73 146 73 c 2,18,-1
 271 73 l 2,19,20
 321 73 321 73 351 42 c 128,-1,21
 381 11 381 11 381 -39 c 128,-1,22
 381 -89 381 -89 347.5 -125 c 128,-1,23
 314 -161 314 -161 249 -161 c 2,24,-1
 129 -161 l 2,25,26
 71 -161 71 -161 40.5 -129 c 128,-1,27
 10 -97 10 -97 10 -55.5 c 128,-1,28
 10 -14 10 -14 26.5 14 c 128,-1,29
 43 42 43 42 72 51 c 1,30,31
 33 76 33 76 33 120 c 0,32,33
 33 147 33 147 50 168.5 c 128,-1,34
 67 190 67 190 97 201 c 1,35,36
 44 244 44 244 44 318 c 128,-1,37
 44 392 44 392 83.5 434 c 128,-1,38
 123 476 123 476 190 476 c 0,39,40
 222 476 222 476 254 458 c 1,41,42
 284 473 284 473 297.5 492 c 128,-1,43
 311 511 311 511 316 539 c 1,4,-1
251.5 394.5 m 128,-1,45
 230 420 230 420 189.5 420 c 128,-1,46
 149 420 149 420 128 393.5 c 128,-1,47
 107 367 107 367 107 320 c 0,48,49
 107 219 107 219 189 219 c 0,50,51
 229 219 229 219 251 246 c 128,-1,52
 273 273 273 273 273 321 c 128,-1,44
 273 369 273 369 251.5 394.5 c 128,-1,45
260 13 m 2,53,-1
 130 13 l 2,54,55
 73 13 73 13 73 -45 c 0,56,57
 73 -70 73 -70 87.5 -86.5 c 128,-1,58
 102 -103 102 -103 130 -103 c 2,59,-1
 261 -103 l 2,60,61
 285 -103 285 -103 301.5 -86 c 128,-1,62
 318 -69 318 -69 318 -44.5 c 128,-1,63
 318 -20 318 -20 303.5 -3.5 c 128,-1,64
 289 13 289 13 260 13 c 2,53,-1
EndSplineSet
EndChar

StartChar: h
Encoding: 104 104 169
Width: 391
GlyphClass: 2
Flags: W
HStem: 0 21G<54 117 275 337> 420 56<156.078 260.837> 619 20G<54 117>
VStem: 54 63<0 375.268 416 639> 275 62<0 405.444>
AnchorPoint: "Anchor-1" 0 0 basechar 0
AnchorPoint: "Anchor-0" 196 465 basechar 0
LayerCount: 2
Fore
SplineSet
117 416 m 1,0,-1
 123 416 l 1,1,2
 156 476 156 476 224 476 c 0,3,4
 337 476 337 476 337 338 c 2,5,-1
 337 0 l 1,6,-1
 275 0 l 1,7,-1
 275 340 l 2,8,9
 275 386 275 386 257.5 403 c 128,-1,10
 240 420 240 420 205 420 c 0,11,12
 170 420 170 420 143.5 383 c 128,-1,13
 117 346 117 346 117 283 c 2,14,-1
 117 0 l 1,15,-1
 54 0 l 1,16,-1
 54 639 l 1,17,-1
 117 639 l 1,18,-1
 117 416 l 1,0,-1
EndSplineSet
EndChar

StartChar: hbar
Encoding: 295 295 170
Width: 391
GlyphClass: 2
Flags: W
HStem: 0 21G<54 117 275 337> 420 56<156.934 260.874> 515 55<0 54 117 206> 619 20G<54 117>
VStem: 54 63<0 375.268 416 515 570 639> 275 62<0 405.444>
LayerCount: 2
Fore
SplineSet
206 570 m 1,0,-1
 206 515 l 1,1,-1
 117 515 l 1,2,-1
 117 416 l 1,3,-1
 123 416 l 1,4,5
 156 476 156 476 224 476 c 0,6,7
 337 476 337 476 337 338 c 2,8,-1
 337 0 l 1,9,-1
 275 0 l 1,10,-1
 275 340 l 2,11,12
 275 386 275 386 257.5 403 c 128,-1,13
 240 420 240 420 205 420 c 0,14,15
 170 420 170 420 143.5 383 c 128,-1,16
 117 346 117 346 117 283 c 2,17,-1
 117 0 l 1,18,-1
 54 0 l 1,19,-1
 54 515 l 1,20,-1
 0 515 l 1,21,-1
 0 570 l 1,22,-1
 54 570 l 1,23,-1
 54 639 l 1,24,-1
 117 639 l 1,25,-1
 117 570 l 1,26,-1
 206 570 l 1,0,-1
EndSplineSet
EndChar

StartChar: hcircumflex
Encoding: 293 293 171
Width: 391
GlyphClass: 2
Flags: W
HStem: 0 21G<54 117 275 337> 420 56<156.078 260.837> 619 20G<54 117>
VStem: 54 63<0 375.268 416 639> 275 62<0 405.444>
LayerCount: 2
Fore
SplineSet
90 732 m 1,0,-1
 50 660 l 1,1,-1
 -19 660 l 1,2,-1
 57 780 l 1,3,-1
 121 780 l 1,4,-1
 197 660 l 1,5,-1
 129 660 l 1,6,-1
 90 732 l 1,0,-1
117 416 m 1,7,-1
 123 416 l 1,8,9
 156 476 156 476 224 476 c 0,10,11
 337 476 337 476 337 338 c 2,12,-1
 337 0 l 1,13,-1
 275 0 l 1,14,-1
 275 340 l 2,15,16
 275 386 275 386 257.5 403 c 128,-1,17
 240 420 240 420 205 420 c 0,18,19
 170 420 170 420 143.5 383 c 128,-1,20
 117 346 117 346 117 283 c 2,21,-1
 117 0 l 1,22,-1
 54 0 l 1,23,-1
 54 639 l 1,24,-1
 117 639 l 1,25,-1
 117 416 l 1,7,-1
EndSplineSet
EndChar

StartChar: i
Encoding: 105 105 172
Width: 149
GlyphClass: 2
Flags: W
HStem: 0 21G<43 106> 445 20G<43 106> 555 84<43 106>
VStem: 43 63<0 465 555 639>
LayerCount: 2
Fore
SplineSet
43 639 m 1,0,-1
 106 639 l 1,1,-1
 106 555 l 1,2,-1
 43 555 l 1,3,-1
 43 639 l 1,0,-1
43 465 m 1,4,-1
 106 465 l 1,5,-1
 106 0 l 1,6,-1
 43 0 l 1,7,-1
 43 465 l 1,4,-1
EndSplineSet
EndChar

StartChar: dotlessi
Encoding: 305 305 173
Width: 202
GlyphClass: 2
Flags: W
HStem: 0 21G<70 132> 445 20G<70 132>
VStem: 70 62<0 465>
AnchorPoint: "Anchor-1" 0 0 basechar 0
AnchorPoint: "Anchor-0" 101 465 basechar 0
LayerCount: 2
Fore
SplineSet
70 465 m 1,0,-1
 132 465 l 1,1,-1
 132 0 l 1,2,-1
 70 0 l 1,3,-1
 70 465 l 1,0,-1
EndSplineSet
EndChar

StartChar: iacute
Encoding: 237 237 174
Width: 202
GlyphClass: 2
Flags: W
HStem: 0 21G<70 132> 445 20G<70 132> 619 20G<115.009 199>
VStem: 70 62<0 465>
LayerCount: 2
Fore
SplineSet
105 522 m 1,0,-1
 52 522 l 1,1,-1
 128 639 l 1,2,-1
 198 639 l 1,3,-1
 199 636 l 1,4,-1
 105 522 l 1,0,-1
70 0 m 1,5,-1
 70 465 l 1,6,-1
 132 465 l 1,7,-1
 132 0 l 1,8,-1
 70 0 l 1,5,-1
EndSplineSet
EndChar

StartChar: ibreve
Encoding: 301 301 175
Width: 202
GlyphClass: 2
Flags: W
HStem: 0 21G<70 132> 445 20G<70 132> 555 55<52.94 150.572> 619 20G<-7 50 153 207>
VStem: -7 56<616.942 639> 70 62<0 465> 154 53<616.942 639>
LayerCount: 2
Fore
SplineSet
154 639 m 1,0,-1
 207 639 l 1,1,2
 207 607 207 607 177.5 581 c 128,-1,3
 148 555 148 555 101 555 c 128,-1,4
 54 555 54 555 23.5 581.5 c 128,-1,5
 -7 608 -7 608 -7 639 c 1,6,-1
 49 639 l 1,7,8
 51 629 51 629 66 619.5 c 128,-1,9
 81 610 81 610 101.5 610 c 0,10,11
 122 610 122 610 137 619.5 c 128,-1,12
 152 629 152 629 154 639 c 1,0,-1
70 465 m 1,13,-1
 132 465 l 1,14,-1
 132 0 l 1,15,-1
 70 0 l 1,16,-1
 70 465 l 1,13,-1
EndSplineSet
EndChar

StartChar: icircumflex
Encoding: 238 238 176
Width: 202
GlyphClass: 2
Flags: W
HStem: 0 21G<70 132> 445 20G<70 132>
VStem: 70 62<0 465>
LayerCount: 2
Fore
SplineSet
102 591 m 1,0,-1
 62 519 l 1,1,-1
 -8 519 l 1,2,-1
 69 638 l 1,3,-1
 133 638 l 1,4,-1
 208 519 l 1,5,-1
 141 519 l 1,6,-1
 102 591 l 1,0,-1
70 465 m 1,7,-1
 132 465 l 1,8,-1
 132 0 l 1,9,-1
 70 0 l 1,10,-1
 70 465 l 1,7,-1
EndSplineSet
EndChar

StartChar: idieresis
Encoding: 239 239 177
Width: 202
GlyphClass: 2
Flags: W
HStem: 0 21G<70 132> 445 20G<70 132> 559 80<1 75 128 201>
VStem: 1 74<559 639> 70 62<0 465> 128 73<559 639>
LayerCount: 2
Fore
SplineSet
1 559 m 1,0,-1
 1 639 l 1,1,-1
 75 639 l 1,2,-1
 75 559 l 1,3,-1
 1 559 l 1,0,-1
128 559 m 1,4,-1
 128 639 l 1,5,-1
 201 639 l 1,6,-1
 201 559 l 1,7,-1
 128 559 l 1,4,-1
70 0 m 1,8,-1
 70 465 l 1,9,-1
 132 465 l 1,10,-1
 132 0 l 1,11,-1
 70 0 l 1,8,-1
EndSplineSet
EndChar

StartChar: igrave
Encoding: 236 236 178
Width: 202
GlyphClass: 2
Flags: W
HStem: 0 21G<70 132> 445 20G<70 132> 619 20G<2 87.9915>
VStem: 70 62<0 465>
LayerCount: 2
Fore
SplineSet
98 522 m 1,0,-1
 2 636 l 1,1,-1
 3 639 l 1,2,-1
 75 639 l 1,3,-1
 151 522 l 1,4,-1
 98 522 l 1,0,-1
70 0 m 1,5,-1
 70 465 l 1,6,-1
 132 465 l 1,7,-1
 132 0 l 1,8,-1
 70 0 l 1,5,-1
EndSplineSet
EndChar

StartChar: ij
Encoding: 307 307 179
Width: 298
GlyphClass: 2
Flags: W
HStem: -161 53<112.661 188.073> -150 42<112 167.016> 0 21G<43 106> 445 20G<43 106 192 255> 555 84<43 106 192 255>
VStem: 43 63<0 465 555 639> 192 63<-103.087 465 555 639>
LayerCount: 2
Fore
SplineSet
43 555 m 1,0,-1
 43 639 l 1,1,-1
 106 639 l 1,2,-1
 106 555 l 1,3,-1
 43 555 l 1,0,-1
192 555 m 1,4,-1
 192 639 l 1,5,-1
 255 639 l 1,6,-1
 255 555 l 1,7,-1
 192 555 l 1,4,-1
43 0 m 1,8,-1
 43 465 l 1,9,-1
 106 465 l 1,10,-1
 106 0 l 1,11,-1
 43 0 l 1,8,-1
255 465 m 1,12,-1
 255 -59 l 2,13,14
 255 -103 255 -103 234.5 -132 c 128,-1,15
 214 -161 214 -161 168 -161 c 0,16,17
 138 -161 138 -161 112 -150 c 1,18,-1
 112 -108 l 1,19,-1
 151 -108 l 2,20,21
 192 -108 192 -108 192 -65 c 2,22,-1
 192 465 l 1,23,-1
 255 465 l 1,12,-1
EndSplineSet
EndChar

StartChar: imacron
Encoding: 299 299 180
Width: 202
GlyphClass: 2
Flags: W
HStem: 0 21G<70 132> 445 20G<70 132> 530 59<-10 211>
VStem: 70 62<0 465>
LayerCount: 2
Fore
SplineSet
-10 589 m 1,0,-1
 211 589 l 1,1,-1
 211 530 l 1,2,-1
 -10 530 l 1,3,-1
 -10 589 l 1,0,-1
70 465 m 1,4,-1
 132 465 l 1,5,-1
 132 0 l 1,6,-1
 70 0 l 1,7,-1
 70 465 l 1,4,-1
EndSplineSet
EndChar

StartChar: iogonek
Encoding: 303 303 181
Width: 149
GlyphClass: 2
Flags: W
HStem: -159 57<92.3813 156.156> -147 45<105.751 157> 445 20G<43 106> 560 79<38 111>
VStem: 23 63<-97.7692 -10.2398> 43 63<0 465 560 639>
LayerCount: 2
Fore
SplineSet
38 560 m 1,0,-1
 38 639 l 1,1,-1
 111 639 l 1,2,-1
 111 560 l 1,3,-1
 38 560 l 1,0,-1
106 465 m 1,4,-1
 106 0 l 1,5,6
 86 -29 86 -29 86 -53 c 0,7,8
 86 -102 86 -102 126 -102 c 2,9,-1
 157 -102 l 1,10,-1
 157 -147 l 1,11,12
 126 -159 126 -159 99 -159 c 0,13,14
 72 -159 72 -159 47.5 -140 c 128,-1,15
 23 -121 23 -121 23 -77.5 c 0,16,17
 23 -34 23 -34 53 0 c 1,18,-1
 43 0 l 1,19,-1
 43 465 l 1,20,-1
 106 465 l 1,4,-1
EndSplineSet
EndChar

StartChar: itilde
Encoding: 297 297 182
Width: 202
GlyphClass: 2
Flags: W
HStem: 0 21G<70 132> 445 20G<70 132> 552 62<79.1724 174.421> 578 61<27.2519 125.28>
VStem: -22 48<552 576.015> 70 62<0 465> 175 49<614.598 639>
LayerCount: 2
Fore
SplineSet
175 639 m 1,0,-1
 224 639 l 1,1,2
 224 605 224 605 206 578.5 c 128,-1,3
 188 552 188 552 153 552 c 0,4,5
 134 552 134 552 102.5 565 c 128,-1,6
 71 578 71 578 55 578 c 0,7,8
 30 578 30 578 26 552 c 1,9,-1
 -22 552 l 1,10,11
 -22 585 -22 585 -3.5 612 c 128,-1,12
 15 639 15 639 49 639 c 0,13,14
 67 639 67 639 98.5 626.5 c 128,-1,15
 130 614 130 614 147 614 c 0,16,17
 172 614 172 614 175 639 c 1,0,-1
70 465 m 1,18,-1
 132 465 l 1,19,-1
 132 0 l 1,20,-1
 70 0 l 1,21,-1
 70 465 l 1,18,-1
EndSplineSet
EndChar

StartChar: j
Encoding: 106 106 183
Width: 149
GlyphClass: 2
Flags: W
HStem: -161 53<-36.3372 39.0727> -150 42<-37 18.1065> 445 20G<43 106> 555 84<43 106>
VStem: 43 63<-103.087 465 555 639>
LayerCount: 2
Fore
SplineSet
43 639 m 1,0,-1
 106 639 l 1,1,-1
 106 555 l 1,2,-1
 43 555 l 1,3,-1
 43 639 l 1,0,-1
106 465 m 1,4,-1
 106 -59 l 2,5,6
 106 -103 106 -103 85.5 -132 c 128,-1,7
 65 -161 65 -161 19 -161 c 0,8,9
 -11 -161 -11 -161 -37 -150 c 1,10,-1
 -37 -108 l 1,11,-1
 2 -108 l 2,12,13
 43 -108 43 -108 43 -65 c 2,14,-1
 43 465 l 1,15,-1
 106 465 l 1,4,-1
EndSplineSet
EndChar

StartChar: jcircumflex
Encoding: 309 309 184
Width: 149
GlyphClass: 2
Flags: W
HStem: -161 53<-36.3372 39.0727> -150 42<-37 18.1065> 445 20G<43 106>
VStem: 43 63<-103.087 465>
LayerCount: 2
Fore
SplineSet
75 591 m 1,0,-1
 35 519 l 1,1,-1
 -34 519 l 1,2,-1
 42 638 l 1,3,-1
 106 638 l 1,4,-1
 182 519 l 1,5,-1
 114 519 l 1,6,-1
 75 591 l 1,0,-1
106 465 m 1,7,-1
 106 -59 l 2,8,9
 106 -103 106 -103 85.5 -132 c 128,-1,10
 65 -161 65 -161 19 -161 c 0,11,12
 -11 -161 -11 -161 -37 -150 c 1,13,-1
 -37 -108 l 1,14,-1
 2 -108 l 2,15,16
 43 -108 43 -108 43 -65 c 2,17,-1
 43 465 l 1,18,-1
 106 465 l 1,7,-1
EndSplineSet
EndChar

StartChar: k
Encoding: 107 107 185
Width: 350
GlyphClass: 2
Flags: W
HStem: 0 21G<54 117 268.908 350> 445 20G<259.133 343> 619 20G<54 117>
VStem: 54 63<0 162 240 639>
AnchorPoint: "Anchor-1" 175 0 basechar 0
AnchorPoint: "Anchor-0" 0 0 basechar 0
LayerCount: 2
Fore
SplineSet
343 465 m 1,0,-1
 207 273 l 1,1,-1
 350 0 l 1,2,-1
 279 0 l 1,3,-1
 169 218 l 1,4,-1
 117 162 l 1,5,-1
 117 0 l 1,6,-1
 54 0 l 1,7,-1
 54 639 l 1,8,-1
 117 639 l 1,9,-1
 117 240 l 1,10,-1
 273 465 l 1,11,-1
 343 465 l 1,0,-1
EndSplineSet
EndChar

StartChar: kcommaaccent
Encoding: 311 311 186
Width: 350
GlyphClass: 2
Flags: W
HStem: -126 72<143 169> 0 21G<54 117 268.908 350> 445 20G<259.133 343> 619 20G<54 117>
VStem: 54 63<0 162 240 639> 143 65<-126 -54> 153 34<-185 -163.667>
LayerCount: 2
Fore
SplineSet
343 465 m 1,0,-1
 207 273 l 1,1,-1
 350 0 l 1,2,-1
 279 0 l 1,3,-1
 169 218 l 1,4,-1
 117 162 l 1,5,-1
 117 0 l 1,6,-1
 54 0 l 1,7,-1
 54 639 l 1,8,-1
 117 639 l 1,9,-1
 117 240 l 1,10,-1
 273 465 l 1,11,-1
 343 465 l 1,0,-1
153 -185 m 1,12,-1
 169 -126 l 1,13,-1
 143 -126 l 1,14,-1
 143 -54 l 1,15,-1
 208 -54 l 1,16,-1
 208 -121 l 1,17,-1
 187 -185 l 1,18,-1
 153 -185 l 1,12,-1
EndSplineSet
EndChar

StartChar: kgreenlandic
Encoding: 312 312 187
Width: 348
GlyphClass: 2
Flags: W
HStem: 0 21G<54 117 268.908 350> 445 20G<54 117 259.133 343>
VStem: 54 63<0 162 240 465>
LayerCount: 2
Fore
SplineSet
279 0 m 1,0,-1
 169 218 l 1,1,-1
 117 162 l 1,2,-1
 117 0 l 1,3,-1
 54 0 l 1,4,-1
 54 465 l 1,5,-1
 117 465 l 1,6,-1
 117 240 l 1,7,-1
 273 465 l 1,8,-1
 343 465 l 1,9,-1
 207 273 l 1,10,-1
 350 0 l 1,11,-1
 279 0 l 1,0,-1
EndSplineSet
EndChar

StartChar: l
Encoding: 108 108 188
Width: 149
GlyphClass: 2
Flags: W
HStem: 0 21G<43 106> 619 20G<43 106>
VStem: 43 63<0 639>
AnchorPoint: "Anchor-1" 74 0 basechar 0
AnchorPoint: "Anchor-0" 74 465 basechar 0
LayerCount: 2
Fore
SplineSet
43 639 m 1,0,-1
 106 639 l 1,1,-1
 106 0 l 1,2,-1
 43 0 l 1,3,-1
 43 639 l 1,0,-1
EndSplineSet
EndChar

StartChar: lacute
Encoding: 314 314 189
Width: 149
GlyphClass: 2
Flags: W
HStem: 0 21G<43 106> 619 20G<43 106>
VStem: 43 63<0 639>
LayerCount: 2
Fore
SplineSet
77 664 m 1,0,-1
 24 664 l 1,1,-1
 100 781 l 1,2,-1
 172 781 l 1,3,-1
 172 778 l 1,4,-1
 77 664 l 1,0,-1
43 0 m 1,5,-1
 43 639 l 1,6,-1
 106 639 l 1,7,-1
 106 0 l 1,8,-1
 43 0 l 1,5,-1
EndSplineSet
EndChar

StartChar: lcaron
Encoding: 318 318 190
Width: 191
GlyphClass: 2
Flags: W
HStem: 0 21G<43 106> 519 87<138 169> 619 20G<43 106>
VStem: 43 63<0 639> 138 78<526 606>
LayerCount: 2
Fore
SplineSet
43 639 m 1,0,-1
 106 639 l 1,1,-1
 106 0 l 1,2,-1
 43 0 l 1,3,-1
 43 639 l 1,0,-1
138 417 m 1,4,-1
 169 519 l 1,5,-1
 138 519 l 1,6,-1
 138 606 l 1,7,-1
 216 606 l 1,8,-1
 216 526 l 1,9,-1
 179 417 l 1,10,-1
 138 417 l 1,4,-1
EndSplineSet
EndChar

StartChar: lcommaaccent
Encoding: 316 316 191
Width: 149
GlyphClass: 2
Flags: W
HStem: -126 72<42 68> 0 21G<43 106> 619 20G<43 106>
VStem: 43 63<-126 -54 0 639> 53 33<-185 -163.667>
LayerCount: 2
Fore
SplineSet
43 639 m 1,0,-1
 106 639 l 1,1,-1
 106 0 l 1,2,-1
 43 0 l 1,3,-1
 43 639 l 1,0,-1
53 -185 m 1,4,-1
 68 -126 l 1,5,-1
 42 -126 l 1,6,-1
 42 -54 l 1,7,-1
 107 -54 l 1,8,-1
 107 -121 l 1,9,-1
 86 -185 l 1,10,-1
 53 -185 l 1,4,-1
EndSplineSet
EndChar

StartChar: ldot
Encoding: 320 320 192
Width: 283
GlyphClass: 2
Flags: W
HStem: 0 21G<43 106> 258 92<141 225> 619 20G<43 106>
VStem: 43 63<0 639> 141 84<258 350>
LayerCount: 2
Fore
SplineSet
43 639 m 1,0,-1
 106 639 l 1,1,-1
 106 0 l 1,2,-1
 43 0 l 1,3,-1
 43 639 l 1,0,-1
141 350 m 1,4,-1
 225 350 l 1,5,-1
 225 258 l 1,6,-1
 141 258 l 1,7,-1
 141 350 l 1,4,-1
EndSplineSet
Ligature2: "Ligature Substitution lookup 31 subtable" l periodcentered
EndChar

StartChar: lslash
Encoding: 322 322 193
Width: 149
GlyphClass: 2
Flags: W
HStem: 0 21G<43 106> 619 20G<43 106>
VStem: 43 63<0 221 335 639>
LayerCount: 2
Fore
SplineSet
185 347 m 1,0,-1
 106 277 l 1,1,-1
 106 0 l 1,2,-1
 43 0 l 1,3,-1
 43 221 l 1,4,-1
 -21 167 l 1,5,-1
 -21 222 l 1,6,-1
 43 279 l 1,7,-1
 43 639 l 1,8,-1
 106 639 l 1,9,-1
 106 335 l 1,10,-1
 185 405 l 1,11,-1
 185 347 l 1,0,-1
EndSplineSet
EndChar

StartChar: m
Encoding: 109 109 194
Width: 592
GlyphClass: 2
Flags: W
HStem: 0 21G<54 117 264 328 474 537> 420 56<153.79 250.141 364.364 460.259> 445 20G<54 102.774>
VStem: 54 63<0 377.672> 54 45<427.9 465> 264 64<0 377.914> 474 63<0 405.014>
LayerCount: 2
Fore
SplineSet
428 476 m 0,0,1
 537 476 537 476 537 338 c 2,2,-1
 537 0 l 1,3,-1
 474 0 l 1,4,-1
 474 340 l 2,5,6
 474 420 474 420 411 420 c 0,7,8
 376 420 376 420 352 382.5 c 128,-1,9
 328 345 328 345 328 281 c 2,10,-1
 328 0 l 1,11,-1
 264 0 l 1,12,-1
 264 340 l 2,13,14
 264 420 264 420 202 420 c 0,15,16
 166 420 166 420 141.5 383 c 128,-1,17
 117 346 117 346 117 283 c 2,18,-1
 117 0 l 1,19,-1
 54 0 l 1,20,-1
 54 465 l 1,21,-1
 99 465 l 1,22,-1
 109 412 l 1,23,-1
 114 412 l 1,24,25
 148 476 148 476 221 476 c 0,26,27
 294 476 294 476 318 408 c 1,28,29
 336 442 336 442 366 459 c 128,-1,30
 396 476 396 476 428 476 c 0,0,1
EndSplineSet
EndChar

StartChar: n
Encoding: 110 110 195
Width: 391
GlyphClass: 2
Flags: W
HStem: 0 21G<54 117 275 337> 420 56<156.071 260.837> 445 20G<54 102.774>
VStem: 54 63<0 375.268> 54 45<427.9 465> 275 62<0 405.444>
AnchorPoint: "Anchor-1" 196 0 basechar 0
AnchorPoint: "Anchor-0" 196 465 basechar 0
LayerCount: 2
Fore
SplineSet
224 476 m 0,0,1
 337 476 337 476 337 338 c 2,2,-1
 337 0 l 1,3,-1
 275 0 l 1,4,-1
 275 340 l 2,5,6
 275 386 275 386 257.5 403 c 128,-1,7
 240 420 240 420 205 420 c 0,8,9
 170 420 170 420 143.5 383 c 128,-1,10
 117 346 117 346 117 283 c 2,11,-1
 117 0 l 1,12,-1
 54 0 l 1,13,-1
 54 465 l 1,14,-1
 99 465 l 1,15,-1
 109 412 l 1,16,-1
 114 412 l 1,17,18
 149 476 149 476 224 476 c 0,0,1
EndSplineSet
Substitution2: "'sups' Superscript lookup 10 subtable" nsuperior
Substitution2: "'aalt' Access All Alternates lookup 0 subtable" nsuperior
EndChar

StartChar: nacute
Encoding: 324 324 196
Width: 391
GlyphClass: 2
Flags: W
HStem: 0 21G<54 117 275 337> 420 56<156.071 260.837> 445 20G<54 102.774> 619 20G<208.009 293>
VStem: 54 63<0 375.268> 54 45<427.9 465> 275 62<0 405.444>
LayerCount: 2
Fore
SplineSet
198 522 m 1,0,-1
 145 522 l 1,1,-1
 221 639 l 1,2,-1
 292 639 l 1,3,-1
 293 636 l 1,4,-1
 198 522 l 1,0,-1
224 476 m 0,5,6
 337 476 337 476 337 338 c 2,7,-1
 337 0 l 1,8,-1
 275 0 l 1,9,-1
 275 340 l 2,10,11
 275 386 275 386 257.5 403 c 128,-1,12
 240 420 240 420 205 420 c 0,13,14
 170 420 170 420 143.5 383 c 128,-1,15
 117 346 117 346 117 283 c 2,16,-1
 117 0 l 1,17,-1
 54 0 l 1,18,-1
 54 465 l 1,19,-1
 99 465 l 1,20,-1
 109 412 l 1,21,-1
 114 412 l 1,22,23
 149 476 149 476 224 476 c 0,5,6
EndSplineSet
EndChar

StartChar: napostrophe
Encoding: 329 329 197
Width: 480
GlyphClass: 2
Flags: W
HStem: 0 21G<142 205 363 425> 420 56<244.534 347.849> 445 20G<142 190.774> 473 21G<46 87.7692> 533 73<37 63>
VStem: 37 66<538 606> 142 63<0 375.268> 142 45<427.9 465> 363 62<0 405.444>
LayerCount: 2
Fore
SplineSet
81 473 m 1,0,-1
 46 473 l 1,1,-1
 63 533 l 1,2,-1
 37 533 l 1,3,-1
 37 606 l 1,4,-1
 103 606 l 1,5,-1
 103 538 l 1,6,-1
 81 473 l 1,0,-1
314 476 m 0,7,8
 425 476 425 476 425 338 c 2,9,-1
 425 0 l 1,10,-1
 363 0 l 1,11,-1
 363 340 l 2,12,13
 363 385 363 385 345.5 402.5 c 128,-1,14
 328 420 328 420 293 420 c 0,15,16
 258 420 258 420 231.5 383 c 128,-1,17
 205 346 205 346 205 283 c 2,18,-1
 205 0 l 1,19,-1
 142 0 l 1,20,-1
 142 465 l 1,21,-1
 187 465 l 1,22,-1
 197 412 l 1,23,-1
 202 412 l 1,24,25
 237 476 237 476 314 476 c 0,7,8
EndSplineSet
EndChar

StartChar: ncaron
Encoding: 328 328 198
Width: 391
GlyphClass: 2
Flags: W
HStem: 0 21G<54 117 275 337> 420 56<156.071 260.837> 445 20G<54 102.774> 619 20G<89 168.411 224.315 304>
VStem: 54 63<0 375.268> 54 45<427.9 465> 275 62<0 405.444>
LayerCount: 2
Fore
SplineSet
89 639 m 1,0,-1
 158 639 l 1,1,-1
 196 566 l 1,2,-1
 235 639 l 1,3,-1
 304 639 l 1,4,-1
 228 520 l 1,5,-1
 162 520 l 1,6,-1
 89 639 l 1,0,-1
224 476 m 0,7,8
 337 476 337 476 337 338 c 2,9,-1
 337 0 l 1,10,-1
 275 0 l 1,11,-1
 275 340 l 2,12,13
 275 386 275 386 257.5 403 c 128,-1,14
 240 420 240 420 205 420 c 0,15,16
 170 420 170 420 143.5 383 c 128,-1,17
 117 346 117 346 117 283 c 2,18,-1
 117 0 l 1,19,-1
 54 0 l 1,20,-1
 54 465 l 1,21,-1
 99 465 l 1,22,-1
 109 412 l 1,23,-1
 114 412 l 1,24,25
 149 476 149 476 224 476 c 0,7,8
EndSplineSet
EndChar

StartChar: ncommaaccent
Encoding: 326 326 199
Width: 391
GlyphClass: 2
Flags: W
HStem: -126 72<163 189> 0 21G<54 117 275 337> 420 56<156.071 260.837> 445 20G<54 102.774>
VStem: 54 63<0 375.268> 54 45<427.9 465> 163 66<-121 -54> 275 62<0 405.444>
LayerCount: 2
Fore
SplineSet
224 476 m 0,0,1
 337 476 337 476 337 338 c 2,2,-1
 337 0 l 1,3,-1
 275 0 l 1,4,-1
 275 340 l 2,5,6
 275 386 275 386 257.5 403 c 128,-1,7
 240 420 240 420 205 420 c 0,8,9
 170 420 170 420 143.5 383 c 128,-1,10
 117 346 117 346 117 283 c 2,11,-1
 117 0 l 1,12,-1
 54 0 l 1,13,-1
 54 465 l 1,14,-1
 99 465 l 1,15,-1
 109 412 l 1,16,-1
 114 412 l 1,17,18
 149 476 149 476 224 476 c 0,0,1
172 -185 m 1,19,-1
 189 -126 l 1,20,-1
 163 -126 l 1,21,-1
 163 -54 l 1,22,-1
 229 -54 l 1,23,-1
 229 -121 l 1,24,-1
 207 -185 l 1,25,-1
 172 -185 l 1,19,-1
EndSplineSet
EndChar

StartChar: eng
Encoding: 331 331 200
Width: 391
GlyphClass: 2
Flags: W
HStem: -161 53<194.662 270.073> -150 42<194 249.061> 0 21G<54 117> 420 56<156.071 260.837> 445 20G<54 102.774>
VStem: 54 63<0 375.268> 54 45<427.9 465> 275 62<-103.087 405.444>
LayerCount: 2
Fore
SplineSet
224 476 m 0,0,1
 337 476 337 476 337 338 c 2,2,-1
 337 -59 l 2,3,4
 337 -103 337 -103 316.5 -132 c 128,-1,5
 296 -161 296 -161 250 -161 c 0,6,7
 220 -161 220 -161 194 -150 c 1,8,-1
 194 -108 l 1,9,-1
 233 -108 l 2,10,11
 275 -108 275 -108 275 -65 c 2,12,-1
 275 340 l 2,13,14
 275 386 275 386 257.5 403 c 128,-1,15
 240 420 240 420 205 420 c 0,16,17
 170 420 170 420 143.5 383 c 128,-1,18
 117 346 117 346 117 283 c 2,19,-1
 117 0 l 1,20,-1
 54 0 l 1,21,-1
 54 465 l 1,22,-1
 99 465 l 1,23,-1
 109 412 l 1,24,-1
 114 412 l 1,25,26
 149 476 149 476 224 476 c 0,0,1
EndSplineSet
EndChar

StartChar: ntilde
Encoding: 241 241 201
Width: 391
GlyphClass: 2
Flags: W
HStem: 0 21G<54 117 275 337> 420 56<156.071 260.837> 445 20G<54 102.774> 552 62<174.849 269.159> 578 61<122.911 220.115>
VStem: 54 63<0 375.268> 54 45<427.9 465> 72 50<552 576.015> 270 50<614.598 639> 275 62<0 405.444>
LayerCount: 2
Fore
SplineSet
270 639 m 1,0,-1
 320 639 l 1,1,2
 320 606 320 606 301 579 c 128,-1,3
 282 552 282 552 247 552 c 0,4,5
 228 552 228 552 197 565 c 128,-1,6
 166 578 166 578 151 578 c 0,7,8
 125 578 125 578 122 552 c 1,9,-1
 72 552 l 1,10,11
 72 585 72 585 91 612 c 128,-1,12
 110 639 110 639 145 639 c 0,13,14
 164 639 164 639 195 626.5 c 128,-1,15
 226 614 226 614 241 614 c 0,16,17
 267 614 267 614 270 639 c 1,0,-1
224 476 m 0,18,19
 337 476 337 476 337 338 c 2,20,-1
 337 0 l 1,21,-1
 275 0 l 1,22,-1
 275 340 l 2,23,24
 275 386 275 386 257.5 403 c 128,-1,25
 240 420 240 420 205 420 c 0,26,27
 170 420 170 420 143.5 383 c 128,-1,28
 117 346 117 346 117 283 c 2,29,-1
 117 0 l 1,30,-1
 54 0 l 1,31,-1
 54 465 l 1,32,-1
 99 465 l 1,33,-1
 109 412 l 1,34,-1
 114 412 l 1,35,36
 149 476 149 476 224 476 c 0,18,19
EndSplineSet
EndChar

StartChar: o
Encoding: 111 111 202
Width: 391
GlyphClass: 2
Flags: W
HStem: -11 58<141.182 250.081> 418 58<141.182 250.081>
VStem: 35 65<96.4723 368.224> 290 67<96.4723 368.224>
AnchorPoint: "Anchor-1" 0 0 basechar 0
AnchorPoint: "Anchor-0" 196 465 basechar 0
LayerCount: 2
Fore
SplineSet
196 476 m 128,-1,1
 357 476 357 476 357 232.5 c 0,2,3
 357 -11 357 -11 196 -11 c 128,-1,4
 35 -11 35 -11 35 232.5 c 0,5,0
 35 476 35 476 196 476 c 128,-1,1
196 418 m 0,6,7
 100 418 100 418 100 249 c 2,8,-1
 100 216 l 2,9,10
 100 47 100 47 196 47 c 0,11,12
 290 47 290 47 290 216 c 2,13,-1
 290 249 l 2,14,15
 290 418 290 418 196 418 c 0,6,7
EndSplineSet
Substitution2: "Single Substitution lookup 32 subtable" ordmasculine
Substitution2: "'aalt' Access All Alternates lookup 0 subtable" ordmasculine
EndChar

StartChar: oacute
Encoding: 243 243 203
Width: 391
GlyphClass: 2
Flags: W
HStem: -11 58<141.182 250.081> 418 58<141.182 250.081> 619 20G<208.009 293>
VStem: 35 65<96.4723 368.224> 290 67<96.4723 368.224>
LayerCount: 2
Fore
SplineSet
198 522 m 1,0,-1
 145 522 l 1,1,-1
 221 639 l 1,2,-1
 292 639 l 1,3,-1
 293 636 l 1,4,-1
 198 522 l 1,0,-1
196 476 m 128,-1,6
 357 476 357 476 357 232.5 c 0,7,8
 357 -11 357 -11 196 -11 c 128,-1,9
 35 -11 35 -11 35 232.5 c 0,10,5
 35 476 35 476 196 476 c 128,-1,6
196 418 m 0,11,12
 100 418 100 418 100 249 c 2,13,-1
 100 216 l 2,14,15
 100 47 100 47 196 47 c 0,16,17
 290 47 290 47 290 216 c 2,18,-1
 290 249 l 2,19,20
 290 418 290 418 196 418 c 0,11,12
EndSplineSet
EndChar

StartChar: obreve
Encoding: 335 335 204
Width: 391
GlyphClass: 2
Flags: W
HStem: -11 58<141.182 250.081> 418 58<141.182 250.081> 555 55<146.849 246.572> 619 20G<89 145 249 303>
VStem: 35 65<96.4723 368.224> 89 54<618.618 639> 250 53<616.942 639> 290 67<96.4723 368.224>
LayerCount: 2
Fore
SplineSet
250 639 m 1,0,-1
 303 639 l 1,1,2
 303 607 303 607 273.5 581 c 128,-1,3
 244 555 244 555 196.5 555 c 0,4,5
 149 555 149 555 119 581 c 128,-1,6
 89 607 89 607 89 639 c 1,7,-1
 143 639 l 1,8,9
 147 628 147 628 161 619 c 128,-1,10
 175 610 175 610 196.5 610 c 0,11,12
 218 610 218 610 233 619.5 c 128,-1,13
 248 629 248 629 250 639 c 1,0,-1
196 476 m 128,-1,15
 357 476 357 476 357 232.5 c 0,16,17
 357 -11 357 -11 196 -11 c 128,-1,18
 35 -11 35 -11 35 232.5 c 0,19,14
 35 476 35 476 196 476 c 128,-1,15
196 418 m 0,20,21
 100 418 100 418 100 249 c 2,22,-1
 100 216 l 2,23,24
 100 47 100 47 196 47 c 0,25,26
 290 47 290 47 290 216 c 2,27,-1
 290 249 l 2,28,29
 290 418 290 418 196 418 c 0,20,21
EndSplineSet
EndChar

StartChar: ocircumflex
Encoding: 244 244 205
Width: 391
GlyphClass: 2
Flags: W
HStem: -11 58<141.182 250.081> 418 58<141.182 250.081>
VStem: 35 65<96.4723 368.224> 290 67<96.4723 368.224>
LayerCount: 2
Fore
SplineSet
196 591 m 1,0,-1
 158 519 l 1,1,-1
 89 519 l 1,2,-1
 164 638 l 1,3,-1
 229 638 l 1,4,-1
 304 519 l 1,5,-1
 235 519 l 1,6,-1
 196 591 l 1,0,-1
196 476 m 128,-1,8
 357 476 357 476 357 232.5 c 0,9,10
 357 -11 357 -11 196 -11 c 128,-1,11
 35 -11 35 -11 35 232.5 c 0,12,7
 35 476 35 476 196 476 c 128,-1,8
196 418 m 0,13,14
 100 418 100 418 100 249 c 2,15,-1
 100 216 l 2,16,17
 100 47 100 47 196 47 c 0,18,19
 290 47 290 47 290 216 c 2,20,-1
 290 249 l 2,21,22
 290 418 290 418 196 418 c 0,13,14
EndSplineSet
EndChar

StartChar: odieresis
Encoding: 246 246 206
Width: 391
GlyphClass: 2
Flags: W
HStem: -11 58<141.182 250.081> 418 58<141.182 250.081> 559 80<95 169 221 296>
VStem: 35 65<96.4723 368.224> 95 74<559 639> 221 75<559 639> 290 67<96.4723 368.224>
LayerCount: 2
Fore
SplineSet
95 559 m 1,0,-1
 95 639 l 1,1,-1
 169 639 l 1,2,-1
 169 559 l 1,3,-1
 95 559 l 1,0,-1
221 559 m 1,4,-1
 221 639 l 1,5,-1
 296 639 l 1,6,-1
 296 559 l 1,7,-1
 221 559 l 1,4,-1
196 476 m 128,-1,9
 357 476 357 476 357 232.5 c 0,10,11
 357 -11 357 -11 196 -11 c 128,-1,12
 35 -11 35 -11 35 232.5 c 0,13,8
 35 476 35 476 196 476 c 128,-1,9
196 418 m 0,14,15
 100 418 100 418 100 249 c 2,16,-1
 100 216 l 2,17,18
 100 47 100 47 196 47 c 0,19,20
 290 47 290 47 290 216 c 2,21,-1
 290 249 l 2,22,23
 290 418 290 418 196 418 c 0,14,15
EndSplineSet
EndChar

StartChar: ograve
Encoding: 242 242 207
Width: 391
GlyphClass: 2
Flags: W
HStem: -11 58<141.182 250.081> 418 58<141.182 250.081> 619 20G<96 183.991>
VStem: 35 65<96.4723 368.224> 290 67<96.4723 368.224>
LayerCount: 2
Fore
SplineSet
194 522 m 1,0,-1
 96 636 l 1,1,-1
 97 639 l 1,2,-1
 171 639 l 1,3,-1
 247 522 l 1,4,-1
 194 522 l 1,0,-1
196 476 m 128,-1,6
 357 476 357 476 357 232.5 c 0,7,8
 357 -11 357 -11 196 -11 c 128,-1,9
 35 -11 35 -11 35 232.5 c 0,10,5
 35 476 35 476 196 476 c 128,-1,6
196 418 m 0,11,12
 100 418 100 418 100 249 c 2,13,-1
 100 216 l 2,14,15
 100 47 100 47 196 47 c 0,16,17
 290 47 290 47 290 216 c 2,18,-1
 290 249 l 2,19,20
 290 418 290 418 196 418 c 0,11,12
EndSplineSet
EndChar

StartChar: ohungarumlaut
Encoding: 337 337 208
Width: 391
GlyphClass: 2
Flags: W
HStem: -11 58<141.182 250.081> 418 58<141.182 250.081> 619 20G<123.769 211 309.598 398>
VStem: 35 65<96.4723 368.224> 290 67<96.4723 368.224>
LayerCount: 2
Fore
SplineSet
79 522 m 1,0,-1
 133 639 l 1,1,-1
 210 639 l 1,2,-1
 211 636 l 1,3,-1
 137 522 l 1,4,-1
 79 522 l 1,0,-1
264 522 m 1,5,-1
 319 639 l 1,6,-1
 397 639 l 1,7,-1
 398 636 l 1,8,-1
 322 522 l 1,9,-1
 264 522 l 1,5,-1
196 476 m 128,-1,11
 357 476 357 476 357 232.5 c 0,12,13
 357 -11 357 -11 196 -11 c 128,-1,14
 35 -11 35 -11 35 232.5 c 0,15,10
 35 476 35 476 196 476 c 128,-1,11
196 418 m 0,16,17
 100 418 100 418 100 249 c 2,18,-1
 100 216 l 2,19,20
 100 47 100 47 196 47 c 0,21,22
 290 47 290 47 290 216 c 2,23,-1
 290 249 l 2,24,25
 290 418 290 418 196 418 c 0,16,17
EndSplineSet
EndChar

StartChar: omacron
Encoding: 333 333 209
Width: 391
GlyphClass: 2
Flags: W
HStem: -11 58<141.182 250.081> 418 58<141.182 250.081> 530 59<86 307>
VStem: 35 65<96.4723 368.224> 290 67<96.4723 368.224>
LayerCount: 2
Fore
SplineSet
86 589 m 1,0,-1
 307 589 l 1,1,-1
 307 530 l 1,2,-1
 86 530 l 1,3,-1
 86 589 l 1,0,-1
196 476 m 128,-1,5
 357 476 357 476 357 232.5 c 0,6,7
 357 -11 357 -11 196 -11 c 128,-1,8
 35 -11 35 -11 35 232.5 c 0,9,4
 35 476 35 476 196 476 c 128,-1,5
196 418 m 0,10,11
 100 418 100 418 100 249 c 2,12,-1
 100 216 l 2,13,14
 100 47 100 47 196 47 c 0,15,16
 290 47 290 47 290 216 c 2,17,-1
 290 249 l 2,18,19
 290 418 290 418 196 418 c 0,10,11
EndSplineSet
EndChar

StartChar: oslash
Encoding: 248 248 210
Width: 443
GlyphClass: 2
Flags: W
HStem: -11 58<164.417 275.089> 418 58<166.279 275.944>
VStem: 61 65<119.243 368.224> 315 66<96.4723 342.706>
AnchorPoint: "Anchor-1" 0 0 basechar 0
AnchorPoint: "Anchor-0" 222 465 basechar 0
LayerCount: 2
Fore
SplineSet
385 493 m 1,0,-1
 342 414 l 1,1,2
 381 357 381 357 381 232 c 0,3,4
 381 -11 381 -11 221 -11 c 0,5,6
 163 -11 163 -11 126 20 c 1,7,-1
 101 -28 l 1,8,-1
 58 -28 l 1,9,-1
 99 50 l 1,10,11
 61 109 61 109 61 232 c 0,12,13
 61 476 61 476 221 476 c 0,14,15
 278 476 278 476 316 445 c 1,16,-1
 342 493 l 1,17,-1
 385 493 l 1,0,-1
220 418 m 0,18,19
 126 418 126 418 126 249 c 2,20,-1
 126 216 l 2,21,22
 126 150 126 150 137 118 c 1,23,-1
 283 389 l 1,24,25
 259 418 259 418 220 418 c 0,18,19
303 345 m 1,26,-1
 158 76 l 1,27,28
 181 47 181 47 220 47 c 0,29,30
 315 47 315 47 315 216 c 2,31,-1
 315 249 l 2,32,33
 315 312 315 312 303 345 c 1,26,-1
EndSplineSet
EndChar

